<?xml version="1.0" encoding="utf-8"?>
<svg viewBox="22 10 244.727 80" width="244.727" height="80" xmlns="http://www.w3.org/2000/svg">
  <defs>
    <filter id="filter0_d_57_7896" x="-2" y="0" width="128" height="128" filterUnits="userSpaceOnUse" color-interpolation-filters="sRGB">
      <feFlood flood-opacity="0" result="BackgroundImageFix"/>
      <feColorMatrix in="SourceAlpha" type="matrix" values="0 0 0 0 0 0 0 0 0 0 0 0 0 0 0 0 0 0 127 0" result="hardAlpha"/>
      <feOffset dy="14"/>
      <feGaussianBlur stdDeviation="12"/>
      <feComposite in2="hardAlpha" operator="out"/>
      <feColorMatrix type="matrix" values="0 0 0 0 0.545098 0 0 0 0 0.545098 0 0 0 0 0.545098 0 0 0 0.15 0"/>
      <feBlend mode="normal" in2="BackgroundImageFix" result="effect1_dropShadow_57_7896"/>
      <feBlend mode="normal" in="SourceGraphic" in2="effect1_dropShadow_57_7896" result="shape"/>
    </filter>
  </defs>
  <g filter="url(#filter0_d_57_7896)">
    <rect x="22" y="10" width="80" height="80" fill="#BEAD8E"/>
  </g>
  <path d="M49.54 63.8301V36.3901H55.5V47.2701H67.66V36.3901H73.62V63.8301H67.66V52.3101H55.5V63.8301H49.54Z" fill="white"/>
  <path d="M132.086 46.4004V28.5644H135.96V35.6364H143.864V28.5644H147.738V46.4004H143.864V38.9124H135.96V46.4004H132.086ZM162.608 46.7124C160.718 46.7124 159.089 46.3744 157.72 45.6984C156.35 45.0224 155.302 43.9997 154.574 42.6304C153.846 41.2611 153.482 39.5451 153.482 37.4824C153.482 35.3851 153.846 33.6604 154.574 32.3084C155.302 30.9391 156.35 29.9251 157.72 29.2664C159.089 28.5904 160.718 28.2524 162.608 28.2524C164.532 28.2524 166.17 28.5904 167.522 29.2664C168.891 29.9251 169.94 30.9391 170.668 32.3084C171.396 33.6604 171.76 35.3851 171.76 37.4824C171.76 39.5451 171.396 41.2611 170.668 42.6304C169.94 43.9997 168.891 45.0224 167.522 45.6984C166.17 46.3744 164.532 46.7124 162.608 46.7124ZM162.608 43.5404C163.457 43.5404 164.202 43.4191 164.844 43.1764C165.485 42.9337 166.022 42.5697 166.456 42.0844C166.889 41.5991 167.218 41.0097 167.444 40.3164C167.669 39.6057 167.782 38.7997 167.782 37.8984V37.0924C167.782 36.1737 167.669 35.3591 167.444 34.6484C167.218 33.9377 166.889 33.3484 166.456 32.8804C166.022 32.3951 165.485 32.0311 164.844 31.7884C164.202 31.5457 163.457 31.4244 162.608 31.4244C161.776 31.4244 161.039 31.5457 160.398 31.7884C159.756 32.0311 159.219 32.3951 158.786 32.8804C158.352 33.3484 158.023 33.9377 157.798 34.6484C157.59 35.3591 157.486 36.1737 157.486 37.0924V37.8984C157.486 38.7997 157.59 39.6057 157.798 40.3164C158.023 41.0097 158.352 41.5991 158.786 42.0844C159.219 42.5697 159.756 42.9337 160.398 43.1764C161.039 43.4191 161.776 43.5404 162.608 43.5404ZM181.213 46.4004V31.8144H175.493V28.5644H190.859V31.8144H185.113V46.4004H181.213ZM196.075 46.4004V28.5644H210.323V31.7364H199.975V35.7144H209.127V38.8604H199.975V43.2024H210.479V46.4004H196.075ZM216.423 46.4004V28.5644H220.297V43.0984H229.293V46.4004H216.423ZM132.346 74.4004V56.5644H136.168L140.224 68.1344C140.328 68.4464 140.432 68.7931 140.536 69.1744C140.657 69.5384 140.761 69.8851 140.848 70.2144C140.952 70.5437 141.03 70.8297 141.082 71.0724H141.264C141.316 70.8124 141.385 70.5177 141.472 70.1884C141.559 69.8417 141.654 69.4864 141.758 69.1224C141.862 68.7584 141.957 68.4291 142.044 68.1344L146.1 56.5644H149.896V74.4004H147.426V63.9484C147.426 63.4111 147.435 62.8304 147.452 62.2064C147.469 61.5651 147.487 60.9844 147.504 60.4644C147.521 59.9271 147.53 59.5457 147.53 59.3204H147.322C147.27 59.5457 147.183 59.8664 147.062 60.2824C146.941 60.6811 146.811 61.1057 146.672 61.5564C146.551 61.9897 146.438 62.3797 146.334 62.7264L142.148 74.4004H140.016L135.83 62.7264C135.726 62.4317 135.613 62.0937 135.492 61.7124C135.388 61.3137 135.275 60.9064 135.154 60.4904C135.05 60.0744 134.946 59.6844 134.842 59.3204H134.66C134.677 59.7017 134.686 60.1784 134.686 60.7504C134.703 61.3051 134.712 61.8684 134.712 62.4404C134.729 62.9951 134.738 63.4977 134.738 63.9484V74.4004H132.346ZM156.96 74.4004V56.5644H159.43V74.4004H156.96ZM166.491 74.4004V56.5644H175.877C177.091 56.5644 178.096 56.7897 178.893 57.2404C179.708 57.6737 180.315 58.2891 180.713 59.0864C181.112 59.8664 181.311 60.7677 181.311 61.7904C181.311 63.0211 181.034 64.0784 180.479 64.9624C179.925 65.8464 179.162 66.4791 178.191 66.8604L181.935 74.4004H179.231L175.747 67.3024H168.961V74.4004H166.491ZM168.961 65.1964H175.643C176.631 65.1964 177.403 64.8931 177.957 64.2864C178.529 63.6797 178.815 62.8477 178.815 61.7904C178.815 61.1317 178.694 60.5771 178.451 60.1264C178.209 59.6757 177.853 59.3291 177.385 59.0864C176.917 58.8264 176.337 58.6964 175.643 58.6964H168.961V65.1964ZM185.928 74.4004L192.974 56.5644H196.224L203.296 74.4004H200.618L198.876 69.9804H190.192L188.476 74.4004H185.928ZM190.998 67.8744H198.044L195.886 62.2844C195.834 62.1284 195.756 61.9117 195.652 61.6344C195.548 61.3571 195.435 61.0537 195.314 60.7244C195.193 60.3777 195.071 60.0311 194.95 59.6844C194.829 59.3204 194.716 58.9911 194.612 58.6964H194.456C194.335 59.0431 194.196 59.4417 194.04 59.8924C193.884 60.3431 193.728 60.7851 193.572 61.2184C193.416 61.6344 193.286 61.9897 193.182 62.2844L190.998 67.8744ZM208.305 74.4004V56.5644H210.697L219.355 68.3164C219.441 68.4204 219.554 68.5764 219.693 68.7844C219.831 68.9924 219.97 69.2004 220.109 69.4084C220.247 69.5991 220.36 69.7724 220.447 69.9284H220.551C220.551 69.6511 220.551 69.3824 220.551 69.1224C220.551 68.8451 220.551 68.5764 220.551 68.3164V56.5644H222.969V74.4004H220.707L211.945 62.4404C211.823 62.2497 211.641 61.9811 211.399 61.6344C211.173 61.2877 210.983 61.0104 210.827 60.8024H210.697C210.697 61.0797 210.697 61.3571 210.697 61.6344C210.697 61.8944 210.697 62.1631 210.697 62.4404V74.4004H208.305ZM230.049 74.4004V56.5644H236.705C238.577 56.5644 240.172 56.8764 241.489 57.5004C242.806 58.1244 243.812 59.0951 244.505 60.4124C245.216 61.7124 245.571 63.4024 245.571 65.4824C245.571 67.5277 245.216 69.2091 244.505 70.5264C243.812 71.8437 242.806 72.8231 241.489 73.4644C240.172 74.0884 238.577 74.4004 236.705 74.4004H230.049ZM232.519 72.2684H236.653C237.641 72.2684 238.525 72.1471 239.305 71.9044C240.085 71.6444 240.752 71.2544 241.307 70.7344C241.862 70.2144 242.278 69.5471 242.555 68.7324C242.85 67.9004 242.997 66.9124 242.997 65.7684V65.2484C242.997 64.0697 242.85 63.0731 242.555 62.2584C242.278 61.4264 241.862 60.7504 241.307 60.2304C240.77 59.7104 240.111 59.3291 239.331 59.0864C238.551 58.8264 237.658 58.6964 236.653 58.6964H232.519V72.2684ZM249.359 74.4004L256.405 56.5644H259.655L266.727 74.4004H264.049L262.307 69.9804H253.623L251.907 74.4004H249.359ZM254.429 67.8744H261.475L259.317 62.2844C259.265 62.1284 259.187 61.9117 259.083 61.6344C258.979 61.3571 258.866 61.0537 258.745 60.7244C258.623 60.3777 258.502 60.0311 258.381 59.6844C258.259 59.3204 258.147 58.9911 258.043 58.6964H257.887C257.765 59.0431 257.627 59.4417 257.471 59.8924C257.315 60.3431 257.159 60.7851 257.003 61.2184C256.847 61.6344 256.717 61.9897 256.613 62.2844L254.429 67.8744Z" fill="#111111"/>
</svg>