<svg width="135" height="47" viewBox="0 0 135 47" fill="none" xmlns="http://www.w3.org/2000/svg">
<path d="M0.0859855 18.4004V0.564389H3.95999V7.63639H11.864V0.564389H15.738V18.4004H11.864V10.9124H3.95999V18.4004H0.0859855ZM30.6075 18.7124C28.7182 18.7124 27.0889 18.3744 25.7195 17.6984C24.3502 17.0224 23.3015 15.9997 22.5735 14.6304C21.8455 13.2611 21.4815 11.5451 21.4815 9.48239C21.4815 7.38506 21.8455 5.66039 22.5735 4.30839C23.3015 2.93906 24.3502 1.92506 25.7195 1.26639C27.0889 0.59039 28.7182 0.25239 30.6075 0.25239C32.5315 0.25239 34.1695 0.59039 35.5215 1.26639C36.8909 1.92506 37.9395 2.93906 38.6675 4.30839C39.3955 5.66039 39.7595 7.38506 39.7595 9.48239C39.7595 11.5451 39.3955 13.2611 38.6675 14.6304C37.9395 15.9997 36.8909 17.0224 35.5215 17.6984C34.1695 18.3744 32.5315 18.7124 30.6075 18.7124ZM30.6075 15.5404C31.4569 15.5404 32.2022 15.4191 32.8435 15.1764C33.4849 14.9337 34.0222 14.5697 34.4555 14.0844C34.8889 13.5991 35.2182 13.0097 35.4435 12.3164C35.6689 11.6057 35.7815 10.7997 35.7815 9.89839V9.09239C35.7815 8.17372 35.6689 7.35906 35.4435 6.64839C35.2182 5.93772 34.8889 5.34839 34.4555 4.88039C34.0222 4.39506 33.4849 4.03106 32.8435 3.78839C32.2022 3.54572 31.4569 3.42439 30.6075 3.42439C29.7755 3.42439 29.0389 3.54572 28.3975 3.78839C27.7562 4.03106 27.2189 4.39506 26.7855 4.88039C26.3522 5.34839 26.0229 5.93772 25.7975 6.64839C25.5895 7.35906 25.4855 8.17372 25.4855 9.09239V9.89839C25.4855 10.7997 25.5895 11.6057 25.7975 12.3164C26.0229 13.0097 26.3522 13.5991 26.7855 14.0844C27.2189 14.5697 27.7562 14.9337 28.3975 15.1764C29.0389 15.4191 29.7755 15.5404 30.6075 15.5404ZM49.2132 18.4004V3.81439H43.4932V0.564389H58.8592V3.81439H53.1132V18.4004H49.2132ZM64.0754 18.4004V0.564389H78.3234V3.73639H67.9754V7.71439H77.1274V10.8604H67.9754V15.2024H78.4794V18.4004H64.0754ZM84.4235 18.4004V0.564389H88.2975V15.0984H97.2935V18.4004H84.4235ZM0.345985 46.4004V28.5644H4.16799L8.22399 40.1344C8.32799 40.4464 8.43199 40.7931 8.53599 41.1744C8.65732 41.5384 8.76132 41.8851 8.84799 42.2144C8.95199 42.5437 9.02999 42.8297 9.08199 43.0724H9.26399C9.31599 42.8124 9.38532 42.5177 9.47199 42.1884C9.55865 41.8417 9.65399 41.4864 9.75799 41.1224C9.86199 40.7584 9.95732 40.4291 10.044 40.1344L14.1 28.5644H17.896V46.4004H15.426V35.9484C15.426 35.4111 15.4347 34.8304 15.452 34.2064C15.4693 33.5651 15.4867 32.9844 15.504 32.4644C15.5213 31.9271 15.53 31.5457 15.53 31.3204H15.322C15.27 31.5457 15.1833 31.8664 15.062 32.2824C14.9407 32.6811 14.8107 33.1057 14.672 33.5564C14.5507 33.9897 14.438 34.3797 14.334 34.7264L10.148 46.4004H8.01599L3.82999 34.7264C3.72599 34.4317 3.61332 34.0937 3.49199 33.7124C3.38799 33.3137 3.27532 32.9064 3.15399 32.4904C3.04999 32.0744 2.94599 31.6844 2.84199 31.3204H2.65999C2.67732 31.7017 2.68599 32.1784 2.68599 32.7504C2.70332 33.3051 2.71199 33.8684 2.71199 34.4404C2.72932 34.9951 2.73799 35.4977 2.73799 35.9484V46.4004H0.345985ZM24.9597 46.4004V28.5644H27.4297V46.4004H24.9597ZM34.4913 46.4004V28.5644H43.8773C45.0906 28.5644 46.096 28.7897 46.8933 29.2404C47.708 29.6737 48.3146 30.2891 48.7133 31.0864C49.112 31.8664 49.3113 32.7677 49.3113 33.7904C49.3113 35.0211 49.034 36.0784 48.4793 36.9624C47.9246 37.8464 47.162 38.4791 46.1913 38.8604L49.9353 46.4004H47.2313L43.7473 39.3024H36.9613V46.4004H34.4913ZM36.9613 37.1964H43.6433C44.6313 37.1964 45.4026 36.8931 45.9573 36.2864C46.5293 35.6797 46.8153 34.8477 46.8153 33.7904C46.8153 33.1317 46.694 32.5771 46.4513 32.1264C46.2086 31.6757 45.8533 31.3291 45.3853 31.0864C44.9173 30.8264 44.3366 30.6964 43.6433 30.6964H36.9613V37.1964ZM53.9279 46.4004L60.9739 28.5644H64.2239L71.2959 46.4004H68.6179L66.8759 41.9804H58.1919L56.4759 46.4004H53.9279ZM58.9979 39.8744H66.0439L63.8859 34.2844C63.8339 34.1284 63.7559 33.9117 63.6519 33.6344C63.5479 33.3571 63.4353 33.0537 63.3139 32.7244C63.1926 32.3777 63.0713 32.0311 62.9499 31.6844C62.8286 31.3204 62.7159 30.9911 62.6119 30.6964H62.4559C62.3346 31.0431 62.1959 31.4417 62.0399 31.8924C61.8839 32.3431 61.7279 32.7851 61.5719 33.2184C61.4159 33.6344 61.2859 33.9897 61.1819 34.2844L58.9979 39.8744ZM76.3046 46.4004V28.5644H78.6966L87.3546 40.3164C87.4412 40.4204 87.5539 40.5764 87.6926 40.7844C87.8312 40.9924 87.9699 41.2004 88.1086 41.4084C88.2472 41.5991 88.3599 41.7724 88.4466 41.9284H88.5506C88.5506 41.6511 88.5506 41.3824 88.5506 41.1224C88.5506 40.8451 88.5506 40.5764 88.5506 40.3164V28.5644H90.9686V46.4004H88.7066L79.9446 34.4404C79.8232 34.2497 79.6412 33.9811 79.3986 33.6344C79.1732 33.2877 78.9826 33.0104 78.8266 32.8024H78.6966C78.6966 33.0797 78.6966 33.3571 78.6966 33.6344C78.6966 33.8944 78.6966 34.1631 78.6966 34.4404V46.4004H76.3046ZM98.0491 46.4004V28.5644H104.705C106.577 28.5644 108.172 28.8764 109.489 29.5004C110.806 30.1244 111.812 31.0951 112.505 32.4124C113.216 33.7124 113.571 35.4024 113.571 37.4824C113.571 39.5277 113.216 41.2091 112.505 42.5264C111.812 43.8437 110.806 44.8231 109.489 45.4644C108.172 46.0884 106.577 46.4004 104.705 46.4004H98.0491ZM100.519 44.2684H104.653C105.641 44.2684 106.525 44.1471 107.305 43.9044C108.085 43.6444 108.752 43.2544 109.307 42.7344C109.862 42.2144 110.278 41.5471 110.555 40.7324C110.85 39.9004 110.997 38.9124 110.997 37.7684V37.2484C110.997 36.0697 110.85 35.0731 110.555 34.2584C110.278 33.4264 109.862 32.7504 109.307 32.2304C108.77 31.7104 108.111 31.3291 107.331 31.0864C106.551 30.8264 105.658 30.6964 104.653 30.6964H100.519V44.2684ZM117.359 46.4004L124.405 28.5644H127.655L134.727 46.4004H132.049L130.307 41.9804H121.623L119.907 46.4004H117.359ZM122.429 39.8744H129.475L127.317 34.2844C127.265 34.1284 127.187 33.9117 127.083 33.6344C126.979 33.3571 126.866 33.0537 126.745 32.7244C126.623 32.3777 126.502 32.0311 126.381 31.6844C126.259 31.3204 126.147 30.9911 126.043 30.6964H125.887C125.765 31.0431 125.627 31.4417 125.471 31.8924C125.315 32.3431 125.159 32.7851 125.003 33.2184C124.847 33.6344 124.717 33.9897 124.613 34.2844L122.429 39.8744Z" fill="#111111"/>
</svg>
