<svg width="12" height="10" viewBox="0 0 12 10" fill="none" xmlns="http://www.w3.org/2000/svg">
<path fill-rule="evenodd" clip-rule="evenodd" d="M1.75636 3.28816L1.93333 2.75725H1.63636C1.36848 2.75725 1.15151 2.54028 1.15151 2.2724C1.15151 2.00452 1.36848 1.78755 1.63636 1.78755C1.93333 1.78755 2.25648 1.78755 2.25648 1.78755C2.25648 1.78755 2.48776 1.09374 2.63103 0.664647C2.69697 0.466586 2.88218 0.333008 3.09091 0.333008C4.2223 0.333008 7.7777 0.333008 8.90909 0.333008C9.11782 0.333008 9.30303 0.466586 9.36897 0.664647L9.74352 1.78755H10.3636C10.6315 1.78755 10.8485 2.00452 10.8485 2.2724C10.8485 2.54028 10.6315 2.75725 10.3636 2.75725H10.0667L10.2436 3.28816C10.8703 3.4501 11.3333 4.01931 11.3333 4.69664V9.06028C11.3333 9.32816 11.1164 9.54513 10.8485 9.54513C10.5522 9.54513 10.175 9.54513 9.87879 9.54513C9.61091 9.54513 9.39394 9.32816 9.39394 9.06028V8.57543H2.60606V9.06028C2.60606 9.32816 2.38909 9.54513 2.12121 9.54513C1.82497 9.54513 1.44776 9.54513 1.15151 9.54513C0.883636 9.54513 0.666666 9.32816 0.666666 9.06028C0.666666 8.1381 0.666666 6.09834 0.666666 4.69664C0.666666 4.01931 1.1297 3.4501 1.75636 3.28816ZM2.60606 5.18149C2.87394 5.18149 3.09091 5.39846 3.09091 5.66634C3.09091 5.93422 2.87394 6.15119 2.60606 6.15119C2.18303 6.15119 1.63636 6.15119 1.63636 6.15119V7.60574H3.27612C3.27612 7.60574 3.84582 6.46658 4.11176 5.93446C4.19394 5.7701 4.3617 5.66634 4.54545 5.66634C5.20824 5.66634 6.79176 5.66634 7.45454 5.66634C7.6383 5.66634 7.80606 5.7701 7.88824 5.93446C8.15418 6.46658 8.72388 7.60574 8.72388 7.60574H10.3636V6.15119H9.39394C9.12606 6.15119 8.90909 5.93422 8.90909 5.66634C8.90909 5.39846 9.12606 5.18149 9.39394 5.18149C9.81697 5.18149 10.3636 5.18149 10.3636 5.18149V4.69664C10.3636 4.42877 10.1467 4.2118 9.87879 4.2118C8.35103 4.2118 3.64897 4.2118 2.12121 4.2118C1.85333 4.2118 1.63636 4.42877 1.63636 4.69664V5.18149H2.60606ZM7.15491 6.63604H4.84509L4.36024 7.60574H7.63976L7.15491 6.63604ZM3.44048 1.3027L2.79394 3.2421H9.20606L8.55951 1.3027H3.44048Z" fill="#222222"/>
</svg>
