<svg width="12" height="12" viewBox="0 0 12 12" fill="none" xmlns="http://www.w3.org/2000/svg">
<path d="M10.832 8.36893L9.408 7.55243L10.6456 7.00868C10.818 6.93293 10.8974 6.73118 10.8219 6.55818C10.7479 6.39081 10.54 6.30868 10.3712 6.38243L8.6705 7.12956L6.68737 5.99231L8.661 4.85306L10.381 5.60206C10.5556 5.67731 10.7577 5.59118 10.8299 5.42456C10.9047 5.25156 10.8252 5.05006 10.6529 4.97531L9.39662 4.42831L10.8279 3.60205C10.9069 3.55643 10.9634 3.48268 10.9869 3.39443C11.0104 3.30618 10.9982 3.21418 10.9525 3.13518C10.8615 2.97868 10.6435 2.91918 10.4857 3.01005L9.06412 3.83068L9.21637 2.48743C9.22687 2.3963 9.20112 2.30668 9.144 2.23493C9.08712 2.16368 9.006 2.11893 8.91612 2.10905C8.72487 2.08643 8.55737 2.22468 8.53775 2.41105L8.34462 4.25618L6.375 5.40206V3.12668L7.86562 2.01268C7.93612 1.96093 7.98225 1.88443 7.9955 1.79718C8.00925 1.70605 7.985 1.61055 7.92925 1.53505C7.82037 1.38743 7.61237 1.35355 7.46312 1.46343L6.375 2.27505V0.62568C6.375 0.42443 6.17687 0.28418 5.999 0.28418C5.82212 0.28418 5.625 0.42443 5.625 0.62568V2.26505L4.55337 1.4633C4.40675 1.35443 4.193 1.38743 4.08387 1.53493C4.02675 1.61193 4.00212 1.70893 4.016 1.8008C4.029 1.88668 4.0745 1.9618 4.14312 2.01193L5.625 3.11618V5.40093L3.68487 4.28018L3.47825 2.4338C3.45762 2.26155 3.31412 2.13168 3.14412 2.13168C3.1305 2.13168 3.11637 2.13243 3.10337 2.13418C2.91887 2.1553 2.78475 2.32468 2.8045 2.5133L2.96225 3.85681L1.50713 3.02218C1.45563 2.9928 1.39713 2.97718 1.338 2.97718C1.21575 2.97718 1.10225 3.04293 1.04175 3.14893C0.948875 3.3108 1.005 3.5198 1.168 3.6153L2.63237 4.45506L1.37825 5.00581C1.2945 5.04256 1.23013 5.10955 1.19725 5.19443C1.16413 5.27943 1.16625 5.37231 1.20288 5.45543C1.27488 5.62143 1.47625 5.70618 1.65275 5.63193L3.37 4.87793L5.31687 5.99418L3.36587 7.12056L1.66325 6.37893C1.49413 6.30556 1.28688 6.38793 1.21388 6.55581C1.13838 6.72818 1.21763 6.93006 1.39063 7.00606L2.62962 7.54556L1.17688 8.38431C1.01475 8.47931 0.959 8.68868 1.05263 8.85106C1.11338 8.95631 1.22713 9.02168 1.34888 9.02168C1.4095 9.02168 1.46875 9.00556 1.51913 8.97593L2.98163 8.13156L2.8265 9.49431C2.8165 9.58518 2.84237 9.67443 2.89962 9.74593C2.95662 9.81706 3.03787 9.86193 3.12537 9.87143C3.13875 9.87331 3.15312 9.87368 3.16737 9.87368C3.34112 9.87368 3.48687 9.74343 3.5065 9.56968L3.702 7.70618L5.625 6.58781V8.85781L4.3045 9.96243C4.1635 10.0806 4.1475 10.2962 4.26775 10.4416C4.331 10.5199 4.43112 10.5667 4.53562 10.5667C4.63 10.5667 4.69337 10.5262 4.74075 10.4886L5.625 9.74693V11.3734C5.625 11.5747 5.82212 11.7149 5.999 11.7149C6.17687 11.7149 6.375 11.5747 6.375 11.3734V9.73593L7.27287 10.4901C7.42237 10.6104 7.62462 10.5819 7.73925 10.4431C7.79675 10.3739 7.82712 10.2881 7.82462 10.2009C7.822 10.1063 7.781 10.0214 7.70975 9.96206L6.375 8.84656V6.58243L8.3385 7.71693L8.54675 9.58068C8.56737 9.75256 8.71125 9.88218 8.88162 9.88218C8.89775 9.88218 8.90775 9.88131 8.91875 9.87968C9.00875 9.86981 9.0895 9.82506 9.14612 9.75406C9.20337 9.68231 9.22912 9.59243 9.2185 9.50106L9.05987 8.14018L10.4922 8.96156C10.5436 8.99118 10.6024 9.00681 10.6621 9.00681C10.7845 9.00681 10.898 8.94093 10.9581 8.83493C11.0512 8.67243 10.995 8.46331 10.832 8.36893Z" fill="#222222"/>
</svg>
