<svg width="12" height="10" viewBox="0 0 12 10" fill="none" xmlns="http://www.w3.org/2000/svg">
<path d="M5.95001 6.32047C5.24316 6.32047 4.53631 6.61153 4.07893 7.15207C3.66313 7.65102 2.9147 6.98575 3.3305 6.48679C3.99577 5.73836 4.9521 5.32256 5.95001 5.32256C6.94793 5.32256 7.90426 5.73836 8.56953 6.48679C8.98533 6.98575 8.23689 7.65102 7.8211 7.15207C7.36372 6.61153 6.65687 6.32047 5.95001 6.32047ZM5.95001 9.81316C5.40948 9.81316 4.9521 9.35579 4.9521 8.81525C4.9521 8.27472 5.40948 7.81734 5.95001 7.81734C6.49055 7.81734 6.94793 8.27472 6.94793 8.81525C6.94793 9.35579 6.49055 9.81316 5.95001 9.81316ZM5.95001 3.8257C4.61947 3.8257 3.41366 4.28307 2.45732 5.2394C2.04153 5.6552 1.25152 5.03151 1.75047 4.53255C2.87312 3.4099 4.36999 2.82779 5.95001 2.82779C7.53004 2.82779 9.02691 3.4099 10.1496 4.53255C10.6485 5.03151 9.8585 5.6552 9.44271 5.2394C8.48637 4.28307 7.28056 3.8257 5.95001 3.8257ZM5.95001 1.33092C4.03735 1.33092 2.24943 2.03777 0.877299 3.32674C0.378343 3.78412 -0.328511 3.07726 0.170445 2.61989C1.79205 1.12302 3.78787 0.333008 5.95001 0.333008C8.11216 0.333008 10.108 1.12302 11.7296 2.61989C12.2285 3.07726 11.5217 3.78412 11.0227 3.32674C9.6506 2.03777 7.86268 1.33092 5.95001 1.33092Z" fill="#222222"/>
</svg>
