<svg width="16" height="12" viewBox="0 0 16 12" fill="none" xmlns="http://www.w3.org/2000/svg">
<path d="M14.125 0.375H1.875C1.37772 0.375 0.900805 0.572544 0.549175 0.924175C0.197544 1.27581 0 1.75272 0 2.25L0 9.75C0 10.2473 0.197544 10.7242 0.549175 11.0758C0.900805 11.4275 1.37772 11.625 1.875 11.625H14.125C14.6223 11.625 15.0992 11.4275 15.4508 11.0758C15.8025 10.7242 16 10.2473 16 9.75V2.25C16 1.75272 15.8025 1.27581 15.4508 0.924175C15.0992 0.572544 14.6223 0.375 14.125 0.375ZM15.25 9.75C15.25 10.0484 15.1315 10.3345 14.9205 10.5455C14.7095 10.7565 14.4234 10.875 14.125 10.875H1.875C1.57663 10.875 1.29048 10.7565 1.0795 10.5455C0.868526 10.3345 0.75 10.0484 0.75 9.75V2.25C0.75 1.95163 0.868526 1.66548 1.0795 1.4545C1.29048 1.24353 1.57663 1.125 1.875 1.125H14.125C14.4234 1.125 14.7095 1.24353 14.9205 1.4545C15.1315 1.66548 15.25 1.95163 15.25 2.25V9.75Z" fill="#BEAD8E"/>
</svg>
