<svg width="14" height="14" viewBox="0 0 14 14" fill="none" xmlns="http://www.w3.org/2000/svg">
<path d="M9.9735 7.166C10.6095 6.4575 11 5.5245 11 4.5C11 2.2945 9.2055 0.5 7 0.5C4.7945 0.5 3 2.2945 3 4.5C3 6.7055 4.7945 8.5 7 8.5C7.7775 8.5 8.5015 8.2735 9.1165 7.888C11.2915 8.7075 12.789 10.698 12.9795 13H1.021C1.1505 11.4505 1.8775 10.0055 3.06 8.9745C3.2685 8.793 3.29 8.4775 3.1085 8.269C2.9275 8.061 2.6115 8.039 2.403 8.2205C0.8755 9.5515 0 11.4755 0 13.5C0 13.7765 0.224 14 0.5 14H13.5C13.7765 14 14 13.7765 14 13.5C14 10.757 12.41 8.3075 9.9735 7.166ZM4 4.5C4 2.8455 5.3455 1.5 7 1.5C8.6545 1.5 10 2.8455 10 4.5C10 6.1545 8.6545 7.5 7 7.5C5.3455 7.5 4 6.1545 4 4.5Z" fill="#BEAD8E"/>
</svg>
