<svg width="12" height="16" viewBox="0 0 12 16" fill="none" xmlns="http://www.w3.org/2000/svg">
<path d="M0.75 14.25C0.473844 14.25 0.25 14.0261 0.25 13.75V2.0625C0.25 0.925219 1.17522 0 2.3125 0H11.25C11.5262 0 11.75 0.223875 11.75 0.5V12C11.75 12.2761 11.5262 12.5 11.25 12.5C10.9738 12.5 10.75 12.2761 10.75 12V1H2.3125C1.72662 1 1.25 1.47662 1.25 2.0625V13.75C1.25 14.0261 1.02616 14.25 0.75 14.25Z" fill="#BEAD8E"/>
<path d="M11.25 16H2.5C1.25934 16 0.25 14.9907 0.25 13.75C0.25 12.5093 1.25934 11.5 2.5 11.5H11.25C11.5262 11.5 11.75 11.7239 11.75 12C11.75 12.2761 11.5262 12.5 11.25 12.5H2.5C1.81075 12.5 1.25 13.0608 1.25 13.75C1.25 14.4392 1.81075 15 2.5 15H11.25C11.5262 15 11.75 15.2239 11.75 15.5C11.75 15.7761 11.5262 16 11.25 16Z" fill="#BEAD8E"/>
<path d="M11.25 14.25H2.5C2.22384 14.25 2 14.0261 2 13.75C2 13.4739 2.22384 13.25 2.5 13.25H11.25C11.5262 13.25 11.75 13.4739 11.75 13.75C11.75 14.0261 11.5262 14.25 11.25 14.25Z" fill="#BEAD8E"/>
<path d="M3 12.5C2.72384 12.5 2.5 12.2761 2.5 12V0.5C2.5 0.223875 2.72384 0 3 0C3.27616 0 3.5 0.223875 3.5 0.5V12C3.5 12.2761 3.27616 12.5 3 12.5Z" fill="#BEAD8E"/>
</svg>
