<svg width="16" height="8" viewBox="0 0 16 8" fill="none" xmlns="http://www.w3.org/2000/svg">
<path d="M14.9414 0.0927734H5.70881C5.57922 0.0927734 5.47418 0.197836 5.47418 0.327398C5.47418 0.456961 5.57922 0.562023 5.70881 0.562023H14.9414C15.2663 0.562023 15.5307 0.826367 15.5307 1.1513V6.85696C15.5307 7.18187 15.2663 7.44624 14.9414 7.44624H14.183V5.3874C14.183 4.94371 13.8221 4.58274 13.3784 4.58274H3.27681C2.83312 4.58274 2.47218 4.94371 2.47218 5.3874V7.44624H1.71381C1.38887 7.44624 1.12452 7.1819 1.12452 6.85696V3.79805C1.12452 3.66846 1.01949 3.56343 0.889899 3.56343C0.760305 3.56343 0.655273 3.66849 0.655273 3.79805V6.85696C0.655273 7.44062 1.13012 7.91549 1.71381 7.91549H14.9414C15.5251 7.91549 15.9999 7.44062 15.9999 6.85696V1.1513C15.9999 0.567617 15.5251 0.0927734 14.9414 0.0927734V0.0927734ZM2.94143 5.99737H13.7138V6.50087H2.94143V5.99737ZM3.27681 5.05199H13.3784C13.5633 5.05199 13.7138 5.20246 13.7138 5.3874V5.52812H2.94143V5.3874C2.94143 5.20246 3.09187 5.05199 3.27681 5.05199ZM2.94143 6.97012H13.7138V7.44624H2.94143V6.97012Z" fill="#BEAD8E"/>
</svg>
