<svg width="12" height="16" viewBox="0 0 12 16" fill="none" xmlns="http://www.w3.org/2000/svg">
<path d="M11.9838 15.4566L11.9348 14.7707C11.9346 14.7685 11.9345 14.7663 11.9342 14.7641C11.8247 13.6689 11.6198 12.5615 11.6104 12.5108C11.4629 11.4763 10.8207 11.0019 10.3071 10.7861C10.1934 10.7383 10.0814 10.7011 9.97502 10.6721V4.39122C9.97502 4.262 9.87027 4.15722 9.74102 4.15722C9.6118 4.15722 9.50702 4.26197 9.50702 4.39122V10.5844C9.36605 10.5696 9.26868 10.5699 9.24158 10.5703C9.21455 10.5699 9.11715 10.5697 8.97612 10.5845V2.60206H9.50702V3.28575C9.50702 3.41497 9.61177 3.51975 9.74102 3.51975C9.87024 3.51975 9.97502 3.415 9.97502 3.28575V0.733469C9.97499 0.329031 9.64599 0 9.24155 0C8.83712 0 8.50808 0.329031 8.50808 0.733469V10.6721C8.40171 10.7011 8.28968 10.7383 8.17605 10.7861C8.05502 10.8369 7.9269 10.9024 7.79977 10.986L7.88343 9.41859C8.08461 9.3645 8.23337 9.18103 8.23337 8.963V8.31763C8.23337 8.05722 8.02152 7.84538 7.76112 7.84538H7.67552C7.71393 7.74447 7.73446 7.63613 7.73446 7.52481C7.73446 7.02806 7.33033 6.62397 6.83362 6.62397C6.72327 6.62397 6.61624 6.6435 6.51587 6.68141C6.31087 6.38597 5.96868 6.20003 5.60008 6.20003C5.47896 6.20003 5.35902 6.22006 5.2453 6.25838C5.09346 5.62372 4.5214 5.15053 3.84087 5.15053C3.16033 5.15053 2.58824 5.62369 2.4364 6.25838C2.32268 6.22006 2.20274 6.20003 2.08162 6.20003C1.46802 6.20003 0.968803 6.69922 0.968803 7.31281C0.968803 7.50128 1.0158 7.68388 1.10021 7.84538H0.942147C0.68174 7.84538 0.469897 8.05722 0.469897 8.31759V8.963C0.469897 9.18103 0.618615 9.3645 0.819803 9.41859L0.926115 11.4106L0.234615 12.1021C0.107115 12.2296 0.0368652 12.3991 0.0368652 12.5795C0.0368652 12.7598 0.107084 12.9293 0.234615 13.0568C0.36624 13.1884 0.539115 13.2542 0.71199 13.2542C0.818053 13.2542 0.924022 13.2292 1.02055 13.1797L1.11108 14.8761C1.14474 15.5063 1.66546 16 2.29655 16H6.40677C6.53408 16 6.65677 15.9796 6.77202 15.9423C6.84358 15.9794 6.92346 16 7.00533 16H11.4778C11.6181 16 11.7535 15.9411 11.8491 15.8384C11.9446 15.7357 11.9938 15.5966 11.9838 15.4566ZM8.97608 0.733469C8.97608 0.587094 9.09518 0.468 9.24155 0.468C9.38793 0.468 9.50699 0.587094 9.50699 0.733469V2.13409H8.97608V0.733469ZM9.23505 11.0383C9.23918 11.0384 9.2438 11.0384 9.2479 11.0383C9.3123 11.0368 10.7407 11.0174 11.0941 12.3174H7.72874L7.7658 11.6228C8.31855 11.0262 9.18383 11.037 9.23505 11.0383ZM2.08165 6.66803C2.23002 6.66803 2.36955 6.71716 2.48515 6.81009C2.55627 6.86728 2.65408 6.87788 2.73577 6.83738C2.81749 6.79684 2.86821 6.7125 2.86568 6.62131L2.86533 6.60988C2.86515 6.60475 2.86493 6.59966 2.86493 6.5945C2.86493 6.05638 3.30274 5.61856 3.8409 5.61856C4.37905 5.61856 4.81683 6.05638 4.81683 6.5945C4.81683 6.59966 4.81662 6.60478 4.81643 6.60988L4.81608 6.62131C4.81358 6.7125 4.86427 6.79681 4.94599 6.83738C5.02771 6.87791 5.12555 6.86728 5.19662 6.81009C5.31221 6.71716 5.45171 6.66803 5.60012 6.66803C5.86612 6.66803 6.1084 6.83512 6.20293 7.08384C6.2294 7.15344 6.2874 7.20628 6.35915 7.22619C6.4309 7.24609 6.5078 7.23063 6.56637 7.18456C6.6433 7.124 6.73574 7.092 6.83365 7.092C7.0723 7.092 7.26649 7.28619 7.26649 7.52488C7.26649 7.64806 7.21437 7.76391 7.12455 7.84544H1.69624C1.53702 7.724 1.43683 7.52134 1.43683 7.31287C1.4368 6.95728 1.72608 6.66803 2.08165 6.66803ZM0.937928 8.31759C0.937928 8.31525 0.939834 8.31334 0.942178 8.31334H7.76115C7.76349 8.31334 7.7654 8.31525 7.7654 8.31759V8.96297C7.7654 8.96531 7.76349 8.96722 7.76115 8.96722H5.81249C5.5019 8.96722 5.2269 9.15203 5.1119 9.43803C4.98643 9.75019 4.68802 9.95184 4.35165 9.95184C4.33312 9.95184 4.3148 9.95088 4.29655 9.94963L4.73493 9.51125C4.86243 9.38375 4.93268 9.21422 4.93268 9.03388C4.93268 8.85353 4.86246 8.684 4.73493 8.5565C4.47171 8.29328 4.04343 8.29328 3.78021 8.5565L3.26912 9.06759C3.15693 9.00319 3.02743 8.96719 2.89083 8.96719H0.942178C0.939834 8.96719 0.937928 8.96528 0.937928 8.96294V8.31759ZM2.9008 9.43594L1.37105 10.9657L1.28937 9.43522H2.8908C2.89424 9.43522 2.89746 9.43584 2.9008 9.43594ZM6.40677 15.532H2.29655C1.91424 15.532 1.5988 15.2329 1.57843 14.8512L1.4678 12.7784L2.47499 11.7712C2.56637 11.6799 2.56637 11.5317 2.47499 11.4403C2.38362 11.349 2.23546 11.349 2.14408 11.4403L0.85849 12.7259C0.77774 12.8067 0.646334 12.8067 0.565584 12.7259C0.484834 12.6452 0.484834 12.5138 0.565584 12.433L4.11112 8.8875C4.19187 8.80672 4.32324 8.80672 4.40402 8.8875C4.48477 8.96825 4.48477 9.09966 4.40402 9.18041L2.93462 10.6498C2.84324 10.7412 2.84324 10.8893 2.93462 10.9807C3.02599 11.0721 3.17415 11.0721 3.26552 10.9807L3.90555 10.3407C4.04549 10.3921 4.1959 10.4199 4.35165 10.4199C4.88012 10.4199 5.34899 10.103 5.54612 9.61263C5.58943 9.50488 5.69399 9.43525 5.81246 9.43525H7.4139L7.1249 14.8512C7.10452 15.233 6.78908 15.532 6.40677 15.532ZM11.5066 15.5195C11.5012 15.5252 11.4919 15.532 11.4778 15.532H10.7468C10.6747 14.519 10.4808 13.7664 10.472 13.7327C10.4394 13.6077 10.3117 13.5328 10.1865 13.5654C10.0615 13.598 9.98655 13.7258 10.0192 13.8508C10.0212 13.8586 10.2061 14.5764 10.2775 15.532H9.47555V13.7918C9.47555 13.6626 9.3708 13.5578 9.24155 13.5578C9.1123 13.5578 9.00755 13.6625 9.00755 13.7918V15.532H8.20565C8.27677 14.5813 8.4609 13.8626 8.46393 13.8509C8.49655 13.7258 8.42165 13.598 8.29658 13.5654C8.17158 13.5327 8.04374 13.6077 8.01112 13.7327C8.00233 13.7665 7.8084 14.5191 7.73633 15.532H7.35099C7.49093 15.3486 7.57902 15.1229 7.59218 14.8762L7.70374 12.7855H11.1841C11.2478 13.1499 11.3856 13.9822 11.4682 14.8074L11.517 15.4899C11.518 15.504 11.5119 15.5138 11.5066 15.5195Z" fill="#BEAD8E"/>
</svg>
