<svg width="16" height="15" viewBox="0 0 16 15" fill="none" xmlns="http://www.w3.org/2000/svg">
<path d="M15.6875 12.4456H15.0676V6.08245C15.4328 5.80089 15.6686 5.35914 15.6686 4.86336V3.18835C15.6686 3.18542 15.6669 3.11532 15.6438 3.06517L14.6519 0.584196C14.6044 0.465508 14.4895 0.387695 14.3617 0.387695H1.63828C1.51047 0.387695 1.39556 0.465508 1.34809 0.584196L0.35625 3.06517C0.333094 3.11001 0.331437 3.18542 0.331437 3.18835V4.86336C0.331437 5.35914 0.567187 5.80089 0.932437 6.08245V12.4456H0.3125C0.139906 12.4456 0 12.5855 0 12.7581V14.3988C0 14.5714 0.139906 14.7113 0.3125 14.7113H6.58731C6.75991 14.7113 6.89981 14.5714 6.89981 14.3988C6.89981 14.2262 6.75991 14.0863 6.58731 14.0863H0.625V13.0706H15.375V14.0863H9.41272C9.24013 14.0863 9.10022 14.2262 9.10022 14.3988C9.10022 14.5714 9.24013 14.7113 9.41272 14.7113H15.6875C15.8601 14.7113 16 14.5714 16 14.3988V12.7581C16 12.5855 15.8601 12.4456 15.6875 12.4456ZM12.5915 4.86336C12.5915 5.36708 12.1817 5.77686 11.678 5.77686C11.1743 5.77686 10.7645 5.36704 10.7645 4.86336V3.49992H12.5915V4.86336ZM10.1395 4.86336C10.1395 5.36708 9.72972 5.77686 9.22603 5.77686C8.72234 5.77686 8.3125 5.36708 8.3125 4.86336V3.49992H10.1395V4.86336ZM7.6875 4.86336C7.6875 5.36708 7.27769 5.77686 6.774 5.77686C6.27031 5.77686 5.8605 5.36704 5.8605 4.86336V3.49992H7.6875V4.86336ZM5.2355 4.86336C5.2355 5.36708 4.82569 5.77686 4.322 5.77686C3.81831 5.77686 3.4085 5.36704 3.4085 4.86336V3.49992H5.23553V4.86336H5.2355ZM0.956438 4.86336V3.49992H2.78344V4.86336C2.78344 5.36708 2.37363 5.77686 1.86994 5.77686C1.36625 5.77686 0.956438 5.36708 0.956438 4.86336ZM5.52253 1.0127L5.27437 2.87492H3.50266L3.99897 1.0127H5.52253ZM8.3125 1.0127H9.84694L10.0951 2.87492H8.3125V1.0127ZM12.001 1.0127L12.4973 2.87492H10.7257L10.4775 1.0127H12.001ZM13.2165 3.49992H15.0435V4.86336C15.0435 5.36708 14.6337 5.77686 14.13 5.77686C13.6263 5.77686 13.2165 5.36704 13.2165 4.86336V3.49992ZM14.8946 2.87492H13.1441L12.6478 1.0127H14.1501L14.8946 2.87492ZM7.6875 2.87492H5.90491L6.15306 1.0127H7.6875V2.87492ZM1.84991 1.0127H3.35216L2.85584 2.87492H1.10544L1.84991 1.0127ZM3.05628 12.4456V7.89767H6.28944V12.4456H3.05628V12.4456ZM6.91444 12.4456V7.58517C6.91444 7.41258 6.77453 7.27267 6.60194 7.27267H2.74378C2.57119 7.27267 2.43128 7.41258 2.43128 7.58517V12.4456H1.55744V6.36995C1.65838 6.39086 1.76291 6.40186 1.86994 6.40186C2.36981 6.40186 2.81472 6.1622 3.09594 5.79179C3.37712 6.1622 3.82206 6.40186 4.32194 6.40186C4.82181 6.40186 5.26675 6.1622 5.54794 5.79179C5.82912 6.1622 6.27406 6.40186 6.77394 6.40186C7.27381 6.40186 7.71875 6.1622 7.99994 5.79179C8.28113 6.1622 8.72606 6.40186 9.22594 6.40186C9.72581 6.40186 10.1708 6.1622 10.4519 5.79179C10.7331 6.1622 11.1781 6.40186 11.6779 6.40186C12.1778 6.40186 12.6227 6.1622 12.9039 5.79179C13.1851 6.1622 13.6301 6.40186 14.1299 6.40186C14.237 6.40186 14.3415 6.39086 14.4424 6.36995V12.4456H6.91444V12.4456Z" fill="#BEAD8E"/>
</svg>
