<svg width="12" height="11" viewBox="0 0 12 11" fill="none" xmlns="http://www.w3.org/2000/svg">
<path d="M5.95 6.87028C5.24315 6.87028 4.53629 7.16134 4.07892 7.70187C3.66312 8.20083 2.91469 7.53555 3.33048 7.0366C3.99576 6.28816 4.95209 5.87237 5.95 5.87237C6.94791 5.87237 7.90424 6.28816 8.56952 7.0366C8.98531 7.53555 8.23688 8.20083 7.82108 7.70187C7.36371 7.16134 6.65685 6.87028 5.95 6.87028ZM5.95 10.363C5.40946 10.363 4.95209 9.90559 4.95209 9.36506C4.95209 8.82452 5.40946 8.36715 5.95 8.36715C6.49053 8.36715 6.94791 8.82452 6.94791 9.36506C6.94791 9.90559 6.49053 10.363 5.95 10.363ZM5.95 4.3755C4.61945 4.3755 3.41364 4.83288 2.45731 5.78921C2.04151 6.20501 1.2515 5.58131 1.75046 5.08236C2.87311 3.9597 4.36997 3.37759 5.95 3.37759C7.53003 3.37759 9.02689 3.9597 10.1495 5.08236C10.6485 5.58131 9.85849 6.20501 9.44269 5.78921C8.48636 4.83288 7.28055 4.3755 5.95 4.3755ZM5.95 1.88072C4.03734 1.88072 2.24941 2.58758 0.877283 3.87655C0.378328 4.33392 -0.328526 3.62707 0.17043 3.16969C1.79204 1.67283 3.78786 0.882812 5.95 0.882812C8.11214 0.882812 10.108 1.67283 11.7296 3.16969C12.2285 3.62707 11.5217 4.33392 11.0227 3.87655C9.65059 2.58758 7.86266 1.88072 5.95 1.88072Z" fill="#BEAD8E"/>
</svg>
