<svg width="126" height="77" viewBox="0 0 126 77" fill="none" xmlns="http://www.w3.org/2000/svg">
<path d="M7.2 40.58H12.96C13.56 40.58 13.98 40.46 14.22 40.22C14.5 39.98 14.64 39.58 14.64 39.02V9.56H7.2V7.4H10.5C12.66 7.4 14.4 6.82 15.72 5.66C17.08 4.5 17.92 3.1 18.24 1.46H20.16V39.02C20.16 39.58 20.28 39.98 20.52 40.22C20.8 40.46 21.24 40.58 21.84 40.58H27.6V42.5H7.2V40.58ZM50.4047 43.46C47.5647 43.46 45.0447 42.44 42.8447 40.4C40.6447 38.36 38.9247 35.7 37.6847 32.42C36.4847 29.1 35.8847 25.62 35.8847 21.98C35.8847 18.34 36.4847 14.88 37.6847 11.6C38.9247 8.28 40.6447 5.6 42.8447 3.56C45.0447 1.52 47.5647 0.499997 50.4047 0.499997C53.2047 0.499997 55.7047 1.52 57.9047 3.56C60.1447 5.6 61.8647 8.28 63.0647 11.6C64.3047 14.88 64.9247 18.34 64.9247 21.98C64.9247 25.62 64.3047 29.1 63.0647 32.42C61.8647 35.7 60.1447 38.36 57.9047 40.4C55.7047 42.44 53.2047 43.46 50.4047 43.46ZM50.4047 41.54C53.7247 41.54 55.9047 39.66 56.9447 35.9C58.0247 32.14 58.5647 27.5 58.5647 21.98C58.5647 16.46 58.0247 11.82 56.9447 8.06C55.9047 4.3 53.7247 2.42 50.4047 2.42C47.0847 2.42 44.8847 4.3 43.8047 8.06C42.7647 11.78 42.2447 16.42 42.2447 21.98C42.2447 27.54 42.7647 32.2 43.8047 35.96C44.8847 39.68 47.0847 41.54 50.4047 41.54ZM83.4094 43.46C80.5694 43.46 78.0494 42.44 75.8494 40.4C73.6494 38.36 71.9294 35.7 70.6894 32.42C69.4894 29.1 68.8894 25.62 68.8894 21.98C68.8894 18.34 69.4894 14.88 70.6894 11.6C71.9294 8.28 73.6494 5.6 75.8494 3.56C78.0494 1.52 80.5694 0.499997 83.4094 0.499997C86.2094 0.499997 88.7094 1.52 90.9094 3.56C93.1494 5.6 94.8694 8.28 96.0694 11.6C97.3094 14.88 97.9294 18.34 97.9294 21.98C97.9294 25.62 97.3094 29.1 96.0694 32.42C94.8694 35.7 93.1494 38.36 90.9094 40.4C88.7094 42.44 86.2094 43.46 83.4094 43.46ZM83.4094 41.54C86.7294 41.54 88.9094 39.66 89.9494 35.9C91.0294 32.14 91.5694 27.5 91.5694 21.98C91.5694 16.46 91.0294 11.82 89.9494 8.06C88.9094 4.3 86.7294 2.42 83.4094 2.42C80.0894 2.42 77.8894 4.3 76.8094 8.06C75.7694 11.78 75.2494 16.42 75.2494 21.98C75.2494 27.54 75.7694 32.2 76.8094 35.96C77.8894 39.68 80.0894 41.54 83.4094 41.54Z" fill="#222222"/>
<path d="M8.1875 69.8828H9.6875C9.60938 70.6016 9.40365 71.2448 9.07031 71.8125C8.73698 72.3802 8.26562 72.8307 7.65625 73.1641C7.04688 73.4922 6.28646 73.6562 5.375 73.6562C4.70833 73.6562 4.10156 73.5312 3.55469 73.2812C3.01302 73.0312 2.54688 72.6771 2.15625 72.2188C1.76562 71.7552 1.46354 71.2005 1.25 70.5547C1.04167 69.9036 0.9375 69.1797 0.9375 68.3828V67.25C0.9375 66.4531 1.04167 65.7318 1.25 65.0859C1.46354 64.4349 1.76823 63.8776 2.16406 63.4141C2.5651 62.9505 3.04688 62.5938 3.60938 62.3438C4.17188 62.0938 4.80469 61.9688 5.50781 61.9688C6.36719 61.9688 7.09375 62.1302 7.6875 62.4531C8.28125 62.776 8.74219 63.224 9.07031 63.7969C9.40365 64.3646 9.60938 65.0234 9.6875 65.7734H8.1875C8.11458 65.2422 7.97917 64.7865 7.78125 64.4062C7.58333 64.0208 7.30208 63.724 6.9375 63.5156C6.57292 63.3073 6.09635 63.2031 5.50781 63.2031C5.0026 63.2031 4.55729 63.2995 4.17188 63.4922C3.79167 63.6849 3.47135 63.9583 3.21094 64.3125C2.95573 64.6667 2.76302 65.0911 2.63281 65.5859C2.5026 66.0807 2.4375 66.6302 2.4375 67.2344V68.3828C2.4375 68.9401 2.49479 69.4635 2.60938 69.9531C2.72917 70.4427 2.90885 70.8724 3.14844 71.2422C3.38802 71.612 3.69271 71.9036 4.0625 72.1172C4.43229 72.3255 4.86979 72.4297 5.375 72.4297C6.01562 72.4297 6.52604 72.3281 6.90625 72.125C7.28646 71.9219 7.57292 71.6302 7.76562 71.25C7.96354 70.8698 8.10417 70.4141 8.1875 69.8828ZM11.1406 69.3672V69.1875C11.1406 68.5781 11.2292 68.013 11.4062 67.4922C11.5833 66.9661 11.8385 66.5104 12.1719 66.125C12.5052 65.7344 12.9089 65.4323 13.3828 65.2188C13.8568 65 14.388 64.8906 14.9766 64.8906C15.5703 64.8906 16.1042 65 16.5781 65.2188C17.0573 65.4323 17.4635 65.7344 17.7969 66.125C18.1354 66.5104 18.3932 66.9661 18.5703 67.4922C18.7474 68.013 18.8359 68.5781 18.8359 69.1875V69.3672C18.8359 69.9766 18.7474 70.5417 18.5703 71.0625C18.3932 71.5833 18.1354 72.0391 17.7969 72.4297C17.4635 72.8151 17.0599 73.1172 16.5859 73.3359C16.1172 73.5495 15.5859 73.6562 14.9922 73.6562C14.3984 73.6562 13.8646 73.5495 13.3906 73.3359C12.9167 73.1172 12.5104 72.8151 12.1719 72.4297C11.8385 72.0391 11.5833 71.5833 11.4062 71.0625C11.2292 70.5417 11.1406 69.9766 11.1406 69.3672ZM12.5859 69.1875V69.3672C12.5859 69.7891 12.6354 70.1875 12.7344 70.5625C12.8333 70.9323 12.9818 71.2604 13.1797 71.5469C13.3828 71.8333 13.6354 72.0599 13.9375 72.2266C14.2396 72.388 14.5911 72.4688 14.9922 72.4688C15.388 72.4688 15.7344 72.388 16.0312 72.2266C16.3333 72.0599 16.5833 71.8333 16.7812 71.5469C16.9792 71.2604 17.1276 70.9323 17.2266 70.5625C17.3307 70.1875 17.3828 69.7891 17.3828 69.3672V69.1875C17.3828 68.7708 17.3307 68.3776 17.2266 68.0078C17.1276 67.6328 16.9766 67.3021 16.7734 67.0156C16.5755 66.724 16.3255 66.4948 16.0234 66.3281C15.7266 66.1615 15.3776 66.0781 14.9766 66.0781C14.5807 66.0781 14.2318 66.1615 13.9297 66.3281C13.6328 66.4948 13.3828 66.724 13.1797 67.0156C12.9818 67.3021 12.8333 67.6328 12.7344 68.0078C12.6354 68.3776 12.5859 68.7708 12.5859 69.1875ZM25.8203 71.5469V65.0469H27.2734V73.5H25.8906L25.8203 71.5469ZM26.0938 69.7656L26.6953 69.75C26.6953 70.3125 26.6354 70.8333 26.5156 71.3125C26.401 71.7865 26.2135 72.1979 25.9531 72.5469C25.6927 72.8958 25.3516 73.1693 24.9297 73.3672C24.5078 73.5599 23.9948 73.6562 23.3906 73.6562C22.9792 73.6562 22.6016 73.5964 22.2578 73.4766C21.9193 73.3568 21.6276 73.1719 21.3828 72.9219C21.138 72.6719 20.9479 72.3464 20.8125 71.9453C20.6823 71.5443 20.6172 71.0625 20.6172 70.5V65.0469H22.0625V70.5156C22.0625 70.8958 22.1042 71.2109 22.1875 71.4609C22.276 71.7057 22.3932 71.901 22.5391 72.0469C22.6901 72.1875 22.8568 72.2865 23.0391 72.3438C23.2266 72.401 23.4193 72.4297 23.6172 72.4297C24.2318 72.4297 24.7188 72.3125 25.0781 72.0781C25.4375 71.8385 25.6953 71.5182 25.8516 71.1172C26.013 70.7109 26.0938 70.2604 26.0938 69.7656ZM30.9219 66.8516V73.5H29.4766V65.0469H30.8438L30.9219 66.8516ZM30.5781 68.9531L29.9766 68.9297C29.9818 68.3516 30.0677 67.8177 30.2344 67.3281C30.401 66.8333 30.6354 66.4036 30.9375 66.0391C31.2396 65.6745 31.599 65.3932 32.0156 65.1953C32.4375 64.9922 32.9036 64.8906 33.4141 64.8906C33.8307 64.8906 34.2057 64.9479 34.5391 65.0625C34.8724 65.1719 35.1562 65.349 35.3906 65.5938C35.6302 65.8385 35.8125 66.1562 35.9375 66.5469C36.0625 66.9323 36.125 67.4036 36.125 67.9609V73.5H34.6719V67.9453C34.6719 67.5026 34.6068 67.1484 34.4766 66.8828C34.3464 66.612 34.1562 66.4167 33.9062 66.2969C33.6562 66.1719 33.349 66.1094 32.9844 66.1094C32.625 66.1094 32.2969 66.1849 32 66.3359C31.7083 66.487 31.4557 66.6953 31.2422 66.9609C31.0339 67.2266 30.8698 67.5312 30.75 67.875C30.6354 68.2135 30.5781 68.5729 30.5781 68.9531ZM41.8594 65.0469V66.1562H37.2891V65.0469H41.8594ZM38.8359 62.9922H40.2812V71.4062C40.2812 71.6927 40.3255 71.9089 40.4141 72.0547C40.5026 72.2005 40.6172 72.2969 40.7578 72.3438C40.8984 72.3906 41.0495 72.4141 41.2109 72.4141C41.3307 72.4141 41.4557 72.4036 41.5859 72.3828C41.7214 72.3568 41.8229 72.3359 41.8906 72.3203L41.8984 73.5C41.7839 73.5365 41.6328 73.5703 41.4453 73.6016C41.263 73.638 41.0417 73.6562 40.7812 73.6562C40.4271 73.6562 40.1016 73.5859 39.8047 73.4453C39.5078 73.3047 39.2708 73.0703 39.0938 72.7422C38.9219 72.4089 38.8359 71.9609 38.8359 71.3984V62.9922ZM45 66.375V73.5H43.5547V65.0469H44.9609L45 66.375ZM47.6406 65L47.6328 66.3438C47.513 66.3177 47.3984 66.3021 47.2891 66.2969C47.1849 66.2865 47.0651 66.2812 46.9297 66.2812C46.5964 66.2812 46.3021 66.3333 46.0469 66.4375C45.7917 66.5417 45.5755 66.6875 45.3984 66.875C45.2214 67.0625 45.0807 67.2865 44.9766 67.5469C44.8776 67.8021 44.8125 68.0833 44.7812 68.3906L44.375 68.625C44.375 68.1146 44.4245 67.6354 44.5234 67.1875C44.6276 66.7396 44.7865 66.3438 45 66C45.2135 65.651 45.4844 65.3802 45.8125 65.1875C46.1458 64.9896 46.5417 64.8906 47 64.8906C47.1042 64.8906 47.224 64.9036 47.3594 64.9297C47.4948 64.9505 47.5885 64.974 47.6406 65ZM51.4922 72.625L53.8438 65.0469H55.3906L52 74.8047C51.9219 75.013 51.8177 75.237 51.6875 75.4766C51.5625 75.7214 51.401 75.9531 51.2031 76.1719C51.0052 76.3906 50.7656 76.5677 50.4844 76.7031C50.2083 76.8438 49.8776 76.9141 49.4922 76.9141C49.3776 76.9141 49.2318 76.8984 49.0547 76.8672C48.8776 76.8359 48.7526 76.8099 48.6797 76.7891L48.6719 75.6172C48.7135 75.6224 48.7786 75.6276 48.8672 75.6328C48.9609 75.6432 49.026 75.6484 49.0625 75.6484C49.3906 75.6484 49.6693 75.6042 49.8984 75.5156C50.1276 75.4323 50.3203 75.2891 50.4766 75.0859C50.638 74.888 50.776 74.6146 50.8906 74.2656L51.4922 72.625ZM49.7656 65.0469L51.9609 71.6094L52.3359 73.1328L51.2969 73.6641L48.1875 65.0469H49.7656ZM67.75 69.8828H69.25C69.1719 70.6016 68.9661 71.2448 68.6328 71.8125C68.2995 72.3802 67.8281 72.8307 67.2188 73.1641C66.6094 73.4922 65.849 73.6562 64.9375 73.6562C64.2708 73.6562 63.6641 73.5312 63.1172 73.2812C62.5755 73.0312 62.1094 72.6771 61.7188 72.2188C61.3281 71.7552 61.026 71.2005 60.8125 70.5547C60.6042 69.9036 60.5 69.1797 60.5 68.3828V67.25C60.5 66.4531 60.6042 65.7318 60.8125 65.0859C61.026 64.4349 61.3307 63.8776 61.7266 63.4141C62.1276 62.9505 62.6094 62.5938 63.1719 62.3438C63.7344 62.0938 64.3672 61.9688 65.0703 61.9688C65.9297 61.9688 66.6562 62.1302 67.25 62.4531C67.8438 62.776 68.3047 63.224 68.6328 63.7969C68.9661 64.3646 69.1719 65.0234 69.25 65.7734H67.75C67.6771 65.2422 67.5417 64.7865 67.3438 64.4062C67.1458 64.0208 66.8646 63.724 66.5 63.5156C66.1354 63.3073 65.6589 63.2031 65.0703 63.2031C64.5651 63.2031 64.1198 63.2995 63.7344 63.4922C63.3542 63.6849 63.0339 63.9583 62.7734 64.3125C62.5182 64.6667 62.3255 65.0911 62.1953 65.5859C62.0651 66.0807 62 66.6302 62 67.2344V68.3828C62 68.9401 62.0573 69.4635 62.1719 69.9531C62.2917 70.4427 62.4714 70.8724 62.7109 71.2422C62.9505 71.612 63.2552 71.9036 63.625 72.1172C63.9948 72.3255 64.4323 72.4297 64.9375 72.4297C65.5781 72.4297 66.0885 72.3281 66.4688 72.125C66.849 71.9219 67.1354 71.6302 67.3281 71.25C67.526 70.8698 67.6667 70.4141 67.75 69.8828ZM70.7031 69.3672V69.1875C70.7031 68.5781 70.7917 68.013 70.9688 67.4922C71.1458 66.9661 71.401 66.5104 71.7344 66.125C72.0677 65.7344 72.4714 65.4323 72.9453 65.2188C73.4193 65 73.9505 64.8906 74.5391 64.8906C75.1328 64.8906 75.6667 65 76.1406 65.2188C76.6198 65.4323 77.026 65.7344 77.3594 66.125C77.6979 66.5104 77.9557 66.9661 78.1328 67.4922C78.3099 68.013 78.3984 68.5781 78.3984 69.1875V69.3672C78.3984 69.9766 78.3099 70.5417 78.1328 71.0625C77.9557 71.5833 77.6979 72.0391 77.3594 72.4297C77.026 72.8151 76.6224 73.1172 76.1484 73.3359C75.6797 73.5495 75.1484 73.6562 74.5547 73.6562C73.9609 73.6562 73.4271 73.5495 72.9531 73.3359C72.4792 73.1172 72.0729 72.8151 71.7344 72.4297C71.401 72.0391 71.1458 71.5833 70.9688 71.0625C70.7917 70.5417 70.7031 69.9766 70.7031 69.3672ZM72.1484 69.1875V69.3672C72.1484 69.7891 72.1979 70.1875 72.2969 70.5625C72.3958 70.9323 72.5443 71.2604 72.7422 71.5469C72.9453 71.8333 73.1979 72.0599 73.5 72.2266C73.8021 72.388 74.1536 72.4688 74.5547 72.4688C74.9505 72.4688 75.2969 72.388 75.5938 72.2266C75.8958 72.0599 76.1458 71.8333 76.3438 71.5469C76.5417 71.2604 76.6901 70.9323 76.7891 70.5625C76.8932 70.1875 76.9453 69.7891 76.9453 69.3672V69.1875C76.9453 68.7708 76.8932 68.3776 76.7891 68.0078C76.6901 67.6328 76.5391 67.3021 76.3359 67.0156C76.138 66.724 75.888 66.4948 75.5859 66.3281C75.2891 66.1615 74.9401 66.0781 74.5391 66.0781C74.1432 66.0781 73.7943 66.1615 73.4922 66.3281C73.1953 66.4948 72.9453 66.724 72.7422 67.0156C72.5443 67.3021 72.3958 67.6328 72.2969 68.0078C72.1979 68.3776 72.1484 68.7708 72.1484 69.1875ZM82.6562 72.1953L84.9688 65.0469H86.4453L83.4062 73.5H82.4375L82.6562 72.1953ZM80.7266 65.0469L83.1094 72.2344L83.2734 73.5H82.3047L79.2422 65.0469H80.7266ZM91.2344 73.6562C90.6458 73.6562 90.112 73.5573 89.6328 73.3594C89.1589 73.1562 88.75 72.8724 88.4062 72.5078C88.0677 72.1432 87.8073 71.7109 87.625 71.2109C87.4427 70.7109 87.3516 70.1641 87.3516 69.5703V69.2422C87.3516 68.5547 87.4531 67.9427 87.6562 67.4062C87.8594 66.8646 88.1354 66.4062 88.4844 66.0312C88.8333 65.6562 89.2292 65.3724 89.6719 65.1797C90.1146 64.987 90.5729 64.8906 91.0469 64.8906C91.651 64.8906 92.1719 64.9948 92.6094 65.2031C93.0521 65.4115 93.4141 65.7031 93.6953 66.0781C93.9766 66.4479 94.1849 66.8854 94.3203 67.3906C94.4557 67.8906 94.5234 68.4375 94.5234 69.0312V69.6797H88.2109V68.5H93.0781V68.3906C93.0573 68.0156 92.9792 67.651 92.8438 67.2969C92.7135 66.9427 92.5052 66.651 92.2188 66.4219C91.9323 66.1927 91.5417 66.0781 91.0469 66.0781C90.7188 66.0781 90.4167 66.1484 90.1406 66.2891C89.8646 66.4245 89.6276 66.6276 89.4297 66.8984C89.2318 67.1693 89.0781 67.5 88.9688 67.8906C88.8594 68.2812 88.8047 68.7318 88.8047 69.2422V69.5703C88.8047 69.9714 88.8594 70.349 88.9688 70.7031C89.0833 71.0521 89.2474 71.3594 89.4609 71.625C89.6797 71.8906 89.9427 72.099 90.25 72.25C90.5625 72.401 90.9167 72.4766 91.3125 72.4766C91.8229 72.4766 92.2552 72.3724 92.6094 72.1641C92.9635 71.9557 93.2734 71.6771 93.5391 71.3281L94.4141 72.0234C94.2318 72.2995 94 72.5625 93.7188 72.8125C93.4375 73.0625 93.0911 73.2656 92.6797 73.4219C92.2734 73.5781 91.7917 73.6562 91.2344 73.6562ZM97.6562 66.375V73.5H96.2109V65.0469H97.6172L97.6562 66.375ZM100.297 65L100.289 66.3438C100.169 66.3177 100.055 66.3021 99.9453 66.2969C99.8411 66.2865 99.7214 66.2812 99.5859 66.2812C99.2526 66.2812 98.9583 66.3333 98.7031 66.4375C98.4479 66.5417 98.2318 66.6875 98.0547 66.875C97.8776 67.0625 97.737 67.2865 97.6328 67.5469C97.5339 67.8021 97.4688 68.0833 97.4375 68.3906L97.0312 68.625C97.0312 68.1146 97.0807 67.6354 97.1797 67.1875C97.2839 66.7396 97.4427 66.3438 97.6562 66C97.8698 65.651 98.1406 65.3802 98.4688 65.1875C98.8021 64.9896 99.1979 64.8906 99.6562 64.8906C99.7604 64.8906 99.8802 64.9036 100.016 64.9297C100.151 64.9505 100.245 64.974 100.297 65ZM106.305 72.0547V67.7031C106.305 67.3698 106.237 67.0807 106.102 66.8359C105.971 66.5859 105.773 66.3932 105.508 66.2578C105.242 66.1224 104.914 66.0547 104.523 66.0547C104.159 66.0547 103.839 66.1172 103.562 66.2422C103.292 66.3672 103.078 66.5312 102.922 66.7344C102.771 66.9375 102.695 67.1562 102.695 67.3906H101.25C101.25 67.0885 101.328 66.7891 101.484 66.4922C101.641 66.1953 101.865 65.9271 102.156 65.6875C102.453 65.4427 102.807 65.25 103.219 65.1094C103.635 64.9635 104.099 64.8906 104.609 64.8906C105.224 64.8906 105.766 64.9948 106.234 65.2031C106.708 65.4115 107.078 65.7266 107.344 66.1484C107.615 66.5651 107.75 67.0885 107.75 67.7188V71.6562C107.75 71.9375 107.773 72.237 107.82 72.5547C107.872 72.8724 107.948 73.1458 108.047 73.375V73.5H106.539C106.466 73.3333 106.409 73.112 106.367 72.8359C106.326 72.5547 106.305 72.2943 106.305 72.0547ZM106.555 68.375L106.57 69.3906H105.109C104.698 69.3906 104.331 69.4245 104.008 69.4922C103.685 69.5547 103.414 69.651 103.195 69.7812C102.977 69.9115 102.81 70.0755 102.695 70.2734C102.581 70.4661 102.523 70.6927 102.523 70.9531C102.523 71.2188 102.583 71.4609 102.703 71.6797C102.823 71.8984 103.003 72.0729 103.242 72.2031C103.487 72.3281 103.786 72.3906 104.141 72.3906C104.583 72.3906 104.974 72.2969 105.312 72.1094C105.651 71.9219 105.919 71.6927 106.117 71.4219C106.32 71.151 106.43 70.888 106.445 70.6328L107.062 71.3281C107.026 71.5469 106.927 71.7891 106.766 72.0547C106.604 72.3203 106.388 72.5755 106.117 72.8203C105.852 73.0599 105.534 73.2604 105.164 73.4219C104.799 73.5781 104.388 73.6562 103.93 73.6562C103.357 73.6562 102.854 73.5443 102.422 73.3203C101.995 73.0964 101.661 72.7969 101.422 72.4219C101.188 72.0417 101.07 71.6172 101.07 71.1484C101.07 70.6953 101.159 70.2969 101.336 69.9531C101.513 69.6042 101.768 69.3151 102.102 69.0859C102.435 68.8516 102.836 68.6745 103.305 68.5547C103.773 68.4349 104.297 68.375 104.875 68.375H106.555ZM115.5 65.0469H116.812V73.3203C116.812 74.0651 116.661 74.7005 116.359 75.2266C116.057 75.7526 115.635 76.151 115.094 76.4219C114.557 76.6979 113.938 76.8359 113.234 76.8359C112.943 76.8359 112.599 76.7891 112.203 76.6953C111.812 76.6068 111.427 76.4531 111.047 76.2344C110.672 76.0208 110.357 75.7318 110.102 75.3672L110.859 74.5078C111.214 74.9349 111.583 75.2318 111.969 75.3984C112.359 75.5651 112.745 75.6484 113.125 75.6484C113.583 75.6484 113.979 75.5625 114.312 75.3906C114.646 75.2188 114.904 74.9635 115.086 74.625C115.273 74.2917 115.367 73.8802 115.367 73.3906V66.9062L115.5 65.0469ZM109.68 69.3672V69.2031C109.68 68.5573 109.755 67.9714 109.906 67.4453C110.062 66.9141 110.284 66.4583 110.57 66.0781C110.862 65.6979 111.214 65.4062 111.625 65.2031C112.036 64.9948 112.5 64.8906 113.016 64.8906C113.547 64.8906 114.01 64.9844 114.406 65.1719C114.807 65.3542 115.146 65.6224 115.422 65.9766C115.703 66.3255 115.924 66.7474 116.086 67.2422C116.247 67.737 116.359 68.2969 116.422 68.9219V69.6406C116.365 70.2604 116.253 70.8177 116.086 71.3125C115.924 71.8073 115.703 72.2292 115.422 72.5781C115.146 72.9271 114.807 73.1953 114.406 73.3828C114.005 73.5651 113.536 73.6562 113 73.6562C112.495 73.6562 112.036 73.5495 111.625 73.3359C111.219 73.1224 110.87 72.8229 110.578 72.4375C110.286 72.0521 110.062 71.599 109.906 71.0781C109.755 70.5521 109.68 69.9818 109.68 69.3672ZM111.125 69.2031V69.3672C111.125 69.7891 111.167 70.1849 111.25 70.5547C111.339 70.9245 111.471 71.25 111.648 71.5312C111.831 71.8125 112.062 72.0339 112.344 72.1953C112.625 72.3516 112.961 72.4297 113.352 72.4297C113.831 72.4297 114.227 72.3281 114.539 72.125C114.852 71.9219 115.099 71.6536 115.281 71.3203C115.469 70.987 115.615 70.625 115.719 70.2344V68.3516C115.661 68.0651 115.573 67.7891 115.453 67.5234C115.339 67.2526 115.188 67.013 115 66.8047C114.818 66.5911 114.591 66.4219 114.32 66.2969C114.049 66.1719 113.732 66.1094 113.367 66.1094C112.971 66.1094 112.63 66.1927 112.344 66.3594C112.062 66.5208 111.831 66.7448 111.648 67.0312C111.471 67.3125 111.339 67.6406 111.25 68.0156C111.167 68.3854 111.125 68.7812 111.125 69.2031ZM122.516 73.6562C121.927 73.6562 121.393 73.5573 120.914 73.3594C120.44 73.1562 120.031 72.8724 119.688 72.5078C119.349 72.1432 119.089 71.7109 118.906 71.2109C118.724 70.7109 118.633 70.1641 118.633 69.5703V69.2422C118.633 68.5547 118.734 67.9427 118.938 67.4062C119.141 66.8646 119.417 66.4062 119.766 66.0312C120.115 65.6562 120.51 65.3724 120.953 65.1797C121.396 64.987 121.854 64.8906 122.328 64.8906C122.932 64.8906 123.453 64.9948 123.891 65.2031C124.333 65.4115 124.695 65.7031 124.977 66.0781C125.258 66.4479 125.466 66.8854 125.602 67.3906C125.737 67.8906 125.805 68.4375 125.805 69.0312V69.6797H119.492V68.5H124.359V68.3906C124.339 68.0156 124.26 67.651 124.125 67.2969C123.995 66.9427 123.786 66.651 123.5 66.4219C123.214 66.1927 122.823 66.0781 122.328 66.0781C122 66.0781 121.698 66.1484 121.422 66.2891C121.146 66.4245 120.909 66.6276 120.711 66.8984C120.513 67.1693 120.359 67.5 120.25 67.8906C120.141 68.2812 120.086 68.7318 120.086 69.2422V69.5703C120.086 69.9714 120.141 70.349 120.25 70.7031C120.365 71.0521 120.529 71.3594 120.742 71.625C120.961 71.8906 121.224 72.099 121.531 72.25C121.844 72.401 122.198 72.4766 122.594 72.4766C123.104 72.4766 123.536 72.3724 123.891 72.1641C124.245 71.9557 124.555 71.6771 124.82 71.3281L125.695 72.0234C125.513 72.2995 125.281 72.5625 125 72.8125C124.719 73.0625 124.372 73.2656 123.961 73.4219C123.555 73.5781 123.073 73.6562 122.516 73.6562Z" fill="#777777"/>
</svg>
