<svg width="148" height="78" viewBox="0 0 148 78" fill="none" xmlns="http://www.w3.org/2000/svg">
<path d="M6.2 41.58H11.96C12.56 41.58 12.98 41.46 13.22 41.22C13.5 40.98 13.64 40.58 13.64 40.02V10.56H6.2V8.4H9.5C11.66 8.4 13.4 7.82 14.72 6.66C16.08 5.5 16.92 4.1 17.24 2.46H19.16V40.02C19.16 40.58 19.28 40.98 19.52 41.22C19.8 41.46 20.24 41.58 20.84 41.58H26.6V43.5H6.2V41.58ZM49.4047 44.46C46.5647 44.46 44.0447 43.44 41.8447 41.4C39.6447 39.36 37.9247 36.7 36.6847 33.42C35.4847 30.1 34.8847 26.62 34.8847 22.98C34.8847 19.34 35.4847 15.88 36.6847 12.6C37.9247 9.28 39.6447 6.6 41.8447 4.56C44.0447 2.52 46.5647 1.5 49.4047 1.5C52.2047 1.5 54.7047 2.52 56.9047 4.56C59.1447 6.6 60.8647 9.28 62.0647 12.6C63.3047 15.88 63.9247 19.34 63.9247 22.98C63.9247 26.62 63.3047 30.1 62.0647 33.42C60.8647 36.7 59.1447 39.36 56.9047 41.4C54.7047 43.44 52.2047 44.46 49.4047 44.46ZM49.4047 42.54C52.7247 42.54 54.9047 40.66 55.9447 36.9C57.0247 33.14 57.5647 28.5 57.5647 22.98C57.5647 17.46 57.0247 12.82 55.9447 9.06C54.9047 5.3 52.7247 3.42 49.4047 3.42C46.0847 3.42 43.8847 5.3 42.8047 9.06C41.7647 12.78 41.2447 17.42 41.2447 22.98C41.2447 28.54 41.7647 33.2 42.8047 36.96C43.8847 40.68 46.0847 42.54 49.4047 42.54ZM77.4294 6.18H77.0694V36.78C77.0694 38.26 77.4094 39.44 78.0894 40.32C78.8094 41.16 79.7294 41.58 80.8494 41.58H83.0094V43.5H68.7294V41.58H70.8894C72.0094 41.58 72.9094 41.16 73.5894 40.32C74.3094 39.44 74.6694 38.26 74.6694 36.78V4.32C74.6694 3.76 74.5294 3.36 74.2494 3.12C74.0094 2.84 73.6094 2.7 73.0494 2.7H68.7294V0.779999H81.4494L91.2294 33.84L100.349 0.779999H112.769V2.7H108.449C107.889 2.7 107.469 2.84 107.189 3.12C106.949 3.36 106.829 3.76 106.829 4.32V39.96C106.829 41.04 107.369 41.58 108.449 41.58H112.769V43.5H95.3694V41.58H99.6894C100.769 41.58 101.309 41.04 101.309 39.96V4.56L90.3294 44.22H88.8894L77.4294 6.18Z" fill="#222222"/>
<path d="M0.320312 63.125H4.08594C4.9401 63.125 5.66146 63.2552 6.25 63.5156C6.84375 63.776 7.29427 64.1615 7.60156 64.6719C7.91406 65.1771 8.07031 65.7995 8.07031 66.5391C8.07031 67.0599 7.96354 67.5365 7.75 67.9688C7.54167 68.3958 7.23958 68.7604 6.84375 69.0625C6.45312 69.3594 5.98438 69.5807 5.4375 69.7266L5.01562 69.8906H1.47656L1.46094 68.6641H4.13281C4.67448 68.6641 5.125 68.5703 5.48438 68.3828C5.84375 68.1901 6.11458 67.9323 6.29688 67.6094C6.47917 67.2865 6.57031 66.9297 6.57031 66.5391C6.57031 66.1016 6.48438 65.7188 6.3125 65.3906C6.14062 65.0625 5.86979 64.8099 5.5 64.6328C5.13542 64.4505 4.66406 64.3594 4.08594 64.3594H1.82812V74.5H0.320312V63.125ZM6.96875 74.5L4.20312 69.3438L5.77344 69.3359L8.57812 74.4062V74.5H6.96875ZM13.4688 74.6562C12.8802 74.6562 12.3464 74.5573 11.8672 74.3594C11.3932 74.1562 10.9844 73.8724 10.6406 73.5078C10.3021 73.1432 10.0417 72.7109 9.85938 72.2109C9.67708 71.7109 9.58594 71.1641 9.58594 70.5703V70.2422C9.58594 69.5547 9.6875 68.9427 9.89062 68.4062C10.0938 67.8646 10.3698 67.4062 10.7188 67.0312C11.0677 66.6562 11.4635 66.3724 11.9062 66.1797C12.349 65.987 12.8073 65.8906 13.2812 65.8906C13.8854 65.8906 14.4062 65.9948 14.8438 66.2031C15.2865 66.4115 15.6484 66.7031 15.9297 67.0781C16.2109 67.4479 16.4193 67.8854 16.5547 68.3906C16.6901 68.8906 16.7578 69.4375 16.7578 70.0312V70.6797H10.4453V69.5H15.3125V69.3906C15.2917 69.0156 15.2135 68.651 15.0781 68.2969C14.9479 67.9427 14.7396 67.651 14.4531 67.4219C14.1667 67.1927 13.776 67.0781 13.2812 67.0781C12.9531 67.0781 12.651 67.1484 12.375 67.2891C12.099 67.4245 11.862 67.6276 11.6641 67.8984C11.4661 68.1693 11.3125 68.5 11.2031 68.8906C11.0938 69.2812 11.0391 69.7318 11.0391 70.2422V70.5703C11.0391 70.9714 11.0938 71.349 11.2031 71.7031C11.3177 72.0521 11.4818 72.3594 11.6953 72.625C11.9141 72.8906 12.1771 73.099 12.4844 73.25C12.7969 73.401 13.151 73.4766 13.5469 73.4766C14.0573 73.4766 14.4896 73.3724 14.8438 73.1641C15.1979 72.9557 15.5078 72.6771 15.7734 72.3281L16.6484 73.0234C16.4661 73.2995 16.2344 73.5625 15.9531 73.8125C15.6719 74.0625 15.3255 74.2656 14.9141 74.4219C14.5078 74.5781 14.026 74.6562 13.4688 74.6562ZM20.9062 73.1953L23.2188 66.0469H24.6953L21.6562 74.5H20.6875L20.9062 73.1953ZM18.9766 66.0469L21.3594 73.2344L21.5234 74.5H20.5547L17.4922 66.0469H18.9766ZM27.6562 66.0469V74.5H26.2031V66.0469H27.6562ZM26.0938 63.8047C26.0938 63.5703 26.1641 63.3724 26.3047 63.2109C26.4505 63.0495 26.6641 62.9688 26.9453 62.9688C27.2214 62.9688 27.4323 63.0495 27.5781 63.2109C27.7292 63.3724 27.8047 63.5703 27.8047 63.8047C27.8047 64.0286 27.7292 64.2214 27.5781 64.3828C27.4323 64.5391 27.2214 64.6172 26.9453 64.6172C26.6641 64.6172 26.4505 64.5391 26.3047 64.3828C26.1641 64.2214 26.0938 64.0286 26.0938 63.8047ZM33.4844 74.6562C32.8958 74.6562 32.362 74.5573 31.8828 74.3594C31.4089 74.1562 31 73.8724 30.6562 73.5078C30.3177 73.1432 30.0573 72.7109 29.875 72.2109C29.6927 71.7109 29.6016 71.1641 29.6016 70.5703V70.2422C29.6016 69.5547 29.7031 68.9427 29.9062 68.4062C30.1094 67.8646 30.3854 67.4062 30.7344 67.0312C31.0833 66.6562 31.4792 66.3724 31.9219 66.1797C32.3646 65.987 32.8229 65.8906 33.2969 65.8906C33.901 65.8906 34.4219 65.9948 34.8594 66.2031C35.3021 66.4115 35.6641 66.7031 35.9453 67.0781C36.2266 67.4479 36.4349 67.8854 36.5703 68.3906C36.7057 68.8906 36.7734 69.4375 36.7734 70.0312V70.6797H30.4609V69.5H35.3281V69.3906C35.3073 69.0156 35.2292 68.651 35.0938 68.2969C34.9635 67.9427 34.7552 67.651 34.4688 67.4219C34.1823 67.1927 33.7917 67.0781 33.2969 67.0781C32.9688 67.0781 32.6667 67.1484 32.3906 67.2891C32.1146 67.4245 31.8776 67.6276 31.6797 67.8984C31.4818 68.1693 31.3281 68.5 31.2188 68.8906C31.1094 69.2812 31.0547 69.7318 31.0547 70.2422V70.5703C31.0547 70.9714 31.1094 71.349 31.2188 71.7031C31.3333 72.0521 31.4974 72.3594 31.7109 72.625C31.9297 72.8906 32.1927 73.099 32.5 73.25C32.8125 73.401 33.1667 73.4766 33.5625 73.4766C34.0729 73.4766 34.5052 73.3724 34.8594 73.1641C35.2135 72.9557 35.5234 72.6771 35.7891 72.3281L36.6641 73.0234C36.4818 73.2995 36.25 73.5625 35.9688 73.8125C35.6875 74.0625 35.3411 74.2656 34.9297 74.4219C34.5234 74.5781 34.0417 74.6562 33.4844 74.6562ZM40.6016 73L42.7734 66.0469H43.7266L43.5391 67.4297L41.3281 74.5H40.3984L40.6016 73ZM39.1406 66.0469L40.9922 73.0781L41.125 74.5H40.1484L37.6953 66.0469H39.1406ZM45.8047 73.0234L47.5703 66.0469H49.0078L46.5547 74.5H45.5859L45.8047 73.0234ZM43.9375 66.0469L46.0625 72.8828L46.3047 74.5H45.3828L43.1094 67.4141L42.9219 66.0469H43.9375ZM55.4141 72.2578C55.4141 72.0495 55.3672 71.8568 55.2734 71.6797C55.1849 71.4974 55 71.3333 54.7188 71.1875C54.4427 71.0365 54.026 70.9062 53.4688 70.7969C53 70.6979 52.5755 70.5807 52.1953 70.4453C51.8203 70.3099 51.5 70.1458 51.2344 69.9531C50.974 69.7604 50.7734 69.5339 50.6328 69.2734C50.4922 69.013 50.4219 68.7083 50.4219 68.3594C50.4219 68.026 50.4948 67.7109 50.6406 67.4141C50.7917 67.1172 51.0026 66.8542 51.2734 66.625C51.5495 66.3958 51.8802 66.2161 52.2656 66.0859C52.651 65.9557 53.0807 65.8906 53.5547 65.8906C54.2318 65.8906 54.8099 66.0104 55.2891 66.25C55.7682 66.4896 56.1354 66.8099 56.3906 67.2109C56.6458 67.6068 56.7734 68.0469 56.7734 68.5312H55.3281C55.3281 68.2969 55.2578 68.0703 55.1172 67.8516C54.9818 67.6276 54.7812 67.4427 54.5156 67.2969C54.2552 67.151 53.9349 67.0781 53.5547 67.0781C53.1536 67.0781 52.8281 67.1406 52.5781 67.2656C52.3333 67.3854 52.1536 67.5391 52.0391 67.7266C51.9297 67.9141 51.875 68.112 51.875 68.3203C51.875 68.4766 51.901 68.6172 51.9531 68.7422C52.0104 68.862 52.1094 68.974 52.25 69.0781C52.3906 69.1771 52.5885 69.2708 52.8438 69.3594C53.099 69.4479 53.4245 69.5365 53.8203 69.625C54.513 69.7812 55.0833 69.9688 55.5312 70.1875C55.9792 70.4062 56.3125 70.6745 56.5312 70.9922C56.75 71.3099 56.8594 71.6953 56.8594 72.1484C56.8594 72.5182 56.7812 72.8568 56.625 73.1641C56.474 73.4714 56.2526 73.737 55.9609 73.9609C55.6745 74.1797 55.3307 74.3516 54.9297 74.4766C54.5339 74.5964 54.0885 74.6562 53.5938 74.6562C52.849 74.6562 52.2188 74.5234 51.7031 74.2578C51.1875 73.9922 50.7969 73.6484 50.5312 73.2266C50.2656 72.8047 50.1328 72.3594 50.1328 71.8906H51.5859C51.6068 72.2865 51.7214 72.6016 51.9297 72.8359C52.138 73.0651 52.3932 73.2292 52.6953 73.3281C52.9974 73.4219 53.2969 73.4688 53.5938 73.4688C53.9896 73.4688 54.3203 73.4167 54.5859 73.3125C54.8568 73.2083 55.0625 73.0651 55.2031 72.8828C55.3438 72.7005 55.4141 72.4922 55.4141 72.2578ZM64.8281 68.1875L66.5312 66.9766C66.8594 66.7526 67.112 66.5286 67.2891 66.3047C67.4714 66.0755 67.5625 65.763 67.5625 65.3672C67.5625 65.0599 67.4427 64.7812 67.2031 64.5312C66.9635 64.276 66.625 64.1484 66.1875 64.1484C65.8854 64.1484 65.6302 64.2188 65.4219 64.3594C65.2135 64.5 65.0573 64.6875 64.9531 64.9219C64.849 65.151 64.7969 65.4036 64.7969 65.6797C64.7969 65.9141 64.8542 66.1562 64.9688 66.4062C65.0833 66.6562 65.2422 66.9167 65.4453 67.1875C65.6484 67.4583 65.8802 67.7448 66.1406 68.0469L71.5234 74.5H69.7891L65.375 69.2188C64.9844 68.7604 64.6354 68.3411 64.3281 67.9609C64.0208 67.5755 63.7786 67.2031 63.6016 66.8438C63.4297 66.4844 63.3438 66.112 63.3438 65.7266C63.3438 65.1328 63.4609 64.6328 63.6953 64.2266C63.9349 63.8151 64.2682 63.5026 64.6953 63.2891C65.1224 63.0755 65.6224 62.9688 66.1953 62.9688C66.7526 62.9688 67.2318 63.0807 67.6328 63.3047C68.0391 63.5234 68.3516 63.8151 68.5703 64.1797C68.7891 64.5391 68.8984 64.9349 68.8984 65.3672C68.8984 65.7318 68.8333 66.0599 68.7031 66.3516C68.5729 66.638 68.3906 66.901 68.1562 67.1406C67.9271 67.3802 67.6589 67.6146 67.3516 67.8438L65.0938 69.5234C64.7188 69.7995 64.4453 70.0625 64.2734 70.3125C64.1016 70.5625 63.9896 70.7839 63.9375 70.9766C63.8906 71.1693 63.8672 71.3229 63.8672 71.4375C63.8672 71.8073 63.9479 72.1458 64.1094 72.4531C64.2708 72.7604 64.5156 73.0078 64.8438 73.1953C65.1771 73.3776 65.5938 73.4688 66.0938 73.4688C66.5312 73.4688 66.9557 73.3698 67.3672 73.1719C67.7839 72.9688 68.1562 72.6823 68.4844 72.3125C68.8125 71.9375 69.0729 71.4922 69.2656 70.9766C69.4635 70.4557 69.5625 69.8802 69.5625 69.25H70.8594C70.8594 69.7656 70.8099 70.2526 70.7109 70.7109C70.612 71.1693 70.4583 71.5964 70.25 71.9922C70.0469 72.3828 69.7865 72.7396 69.4688 73.0625C69.4219 73.1094 69.3854 73.1641 69.3594 73.2266C69.3333 73.2891 69.2969 73.3438 69.25 73.3906C68.8594 73.8125 68.3776 74.1302 67.8047 74.3438C67.237 74.5521 66.6667 74.6562 66.0938 74.6562C65.3385 74.6562 64.6849 74.5182 64.1328 74.2422C63.5859 73.9661 63.1641 73.5859 62.8672 73.1016C62.5703 72.6172 62.4219 72.0625 62.4219 71.4375C62.4219 70.9583 62.5234 70.5365 62.7266 70.1719C62.9349 69.8073 63.2188 69.4661 63.5781 69.1484C63.9427 68.8307 64.3594 68.5104 64.8281 68.1875ZM81.0781 64.1328L77.3125 74.5H75.7734L80.1094 63.125H81.1016L81.0781 64.1328ZM84.2344 74.5L80.4609 64.1328L80.4375 63.125H81.4297L85.7812 74.5H84.2344ZM84.0391 70.2891V71.5234H77.6484V70.2891H84.0391ZM88.5312 67.6719V77.75H87.0781V66.0469H88.4062L88.5312 67.6719ZM94.2266 70.2031V70.3672C94.2266 70.9818 94.1536 71.5521 94.0078 72.0781C93.862 72.599 93.6484 73.0521 93.3672 73.4375C93.0911 73.8229 92.75 74.1224 92.3438 74.3359C91.9375 74.5495 91.4714 74.6562 90.9453 74.6562C90.4089 74.6562 89.9349 74.5677 89.5234 74.3906C89.112 74.2135 88.763 73.9557 88.4766 73.6172C88.1901 73.2786 87.9609 72.8724 87.7891 72.3984C87.6224 71.9245 87.5078 71.3906 87.4453 70.7969V69.9219C87.5078 69.2969 87.625 68.737 87.7969 68.2422C87.9688 67.7474 88.1953 67.3255 88.4766 66.9766C88.763 66.6224 89.1094 66.3542 89.5156 66.1719C89.9219 65.9844 90.3906 65.8906 90.9219 65.8906C91.4531 65.8906 91.9245 65.9948 92.3359 66.2031C92.7474 66.4062 93.0938 66.6979 93.375 67.0781C93.6562 67.4583 93.8672 67.9141 94.0078 68.4453C94.1536 68.9714 94.2266 69.5573 94.2266 70.2031ZM92.7734 70.3672V70.2031C92.7734 69.7812 92.7292 69.3854 92.6406 69.0156C92.5521 68.6406 92.4141 68.3125 92.2266 68.0312C92.0443 67.7448 91.8099 67.5208 91.5234 67.3594C91.237 67.1927 90.8958 67.1094 90.5 67.1094C90.1354 67.1094 89.8177 67.1719 89.5469 67.2969C89.2812 67.4219 89.0547 67.5911 88.8672 67.8047C88.6797 68.013 88.526 68.2526 88.4062 68.5234C88.2917 68.7891 88.2057 69.0651 88.1484 69.3516V71.375C88.2526 71.7396 88.3984 72.0833 88.5859 72.4062C88.7734 72.724 89.0234 72.9818 89.3359 73.1797C89.6484 73.3724 90.0417 73.4688 90.5156 73.4688C90.9062 73.4688 91.2422 73.388 91.5234 73.2266C91.8099 73.0599 92.0443 72.8333 92.2266 72.5469C92.4141 72.2604 92.5521 71.9323 92.6406 71.5625C92.7292 71.1875 92.7734 70.7891 92.7734 70.3672ZM97.5156 67.6719V77.75H96.0625V66.0469H97.3906L97.5156 67.6719ZM103.211 70.2031V70.3672C103.211 70.9818 103.138 71.5521 102.992 72.0781C102.846 72.599 102.633 73.0521 102.352 73.4375C102.076 73.8229 101.734 74.1224 101.328 74.3359C100.922 74.5495 100.456 74.6562 99.9297 74.6562C99.3932 74.6562 98.9193 74.5677 98.5078 74.3906C98.0964 74.2135 97.7474 73.9557 97.4609 73.6172C97.1745 73.2786 96.9453 72.8724 96.7734 72.3984C96.6068 71.9245 96.4922 71.3906 96.4297 70.7969V69.9219C96.4922 69.2969 96.6094 68.737 96.7812 68.2422C96.9531 67.7474 97.1797 67.3255 97.4609 66.9766C97.7474 66.6224 98.0938 66.3542 98.5 66.1719C98.9062 65.9844 99.375 65.8906 99.9062 65.8906C100.438 65.8906 100.909 65.9948 101.32 66.2031C101.732 66.4062 102.078 66.6979 102.359 67.0781C102.641 67.4583 102.852 67.9141 102.992 68.4453C103.138 68.9714 103.211 69.5573 103.211 70.2031ZM101.758 70.3672V70.2031C101.758 69.7812 101.714 69.3854 101.625 69.0156C101.536 68.6406 101.398 68.3125 101.211 68.0312C101.029 67.7448 100.794 67.5208 100.508 67.3594C100.221 67.1927 99.8802 67.1094 99.4844 67.1094C99.1198 67.1094 98.8021 67.1719 98.5312 67.2969C98.2656 67.4219 98.0391 67.5911 97.8516 67.8047C97.6641 68.013 97.5104 68.2526 97.3906 68.5234C97.276 68.7891 97.1901 69.0651 97.1328 69.3516V71.375C97.237 71.7396 97.3828 72.0833 97.5703 72.4062C97.7578 72.724 98.0078 72.9818 98.3203 73.1797C98.6328 73.3724 99.026 73.4688 99.5 73.4688C99.8906 73.4688 100.227 73.388 100.508 73.2266C100.794 73.0599 101.029 72.8333 101.211 72.5469C101.398 72.2604 101.536 71.9323 101.625 71.5625C101.714 71.1875 101.758 70.7891 101.758 70.3672ZM106.5 67.375V74.5H105.055V66.0469H106.461L106.5 67.375ZM109.141 66L109.133 67.3438C109.013 67.3177 108.898 67.3021 108.789 67.2969C108.685 67.2865 108.565 67.2812 108.43 67.2812C108.096 67.2812 107.802 67.3333 107.547 67.4375C107.292 67.5417 107.076 67.6875 106.898 67.875C106.721 68.0625 106.581 68.2865 106.477 68.5469C106.378 68.8021 106.312 69.0833 106.281 69.3906L105.875 69.625C105.875 69.1146 105.924 68.6354 106.023 68.1875C106.128 67.7396 106.286 67.3438 106.5 67C106.714 66.651 106.984 66.3802 107.312 66.1875C107.646 65.9896 108.042 65.8906 108.5 65.8906C108.604 65.8906 108.724 65.9036 108.859 65.9297C108.995 65.9505 109.089 65.974 109.141 66ZM112.047 66.0469V74.5H110.594V66.0469H112.047ZM110.484 63.8047C110.484 63.5703 110.555 63.3724 110.695 63.2109C110.841 63.0495 111.055 62.9688 111.336 62.9688C111.612 62.9688 111.823 63.0495 111.969 63.2109C112.12 63.3724 112.195 63.5703 112.195 63.8047C112.195 64.0286 112.12 64.2214 111.969 64.3828C111.823 64.5391 111.612 64.6172 111.336 64.6172C111.055 64.6172 110.841 64.5391 110.695 64.3828C110.555 64.2214 110.484 64.0286 110.484 63.8047ZM117.75 73.4688C118.094 73.4688 118.411 73.3984 118.703 73.2578C118.995 73.1172 119.234 72.9245 119.422 72.6797C119.609 72.4297 119.716 72.1458 119.742 71.8281H121.117C121.091 72.3281 120.922 72.7943 120.609 73.2266C120.302 73.6536 119.898 74 119.398 74.2656C118.898 74.526 118.349 74.6562 117.75 74.6562C117.115 74.6562 116.56 74.5443 116.086 74.3203C115.617 74.0964 115.227 73.7891 114.914 73.3984C114.607 73.0078 114.375 72.5599 114.219 72.0547C114.068 71.5443 113.992 71.0052 113.992 70.4375V70.1094C113.992 69.5417 114.068 69.0052 114.219 68.5C114.375 67.9896 114.607 67.5391 114.914 67.1484C115.227 66.7578 115.617 66.4505 116.086 66.2266C116.56 66.0026 117.115 65.8906 117.75 65.8906C118.411 65.8906 118.99 66.026 119.484 66.2969C119.979 66.5625 120.367 66.9271 120.648 67.3906C120.935 67.849 121.091 68.3698 121.117 68.9531H119.742C119.716 68.6042 119.617 68.2891 119.445 68.0078C119.279 67.7266 119.049 67.5026 118.758 67.3359C118.471 67.1641 118.135 67.0781 117.75 67.0781C117.307 67.0781 116.935 67.1667 116.633 67.3438C116.336 67.5156 116.099 67.75 115.922 68.0469C115.75 68.3385 115.625 68.6641 115.547 69.0234C115.474 69.3776 115.438 69.7396 115.438 70.1094V70.4375C115.438 70.8073 115.474 71.1719 115.547 71.5312C115.62 71.8906 115.742 72.2161 115.914 72.5078C116.091 72.7995 116.328 73.0339 116.625 73.2109C116.927 73.3828 117.302 73.4688 117.75 73.4688ZM124.312 66.0469V74.5H122.859V66.0469H124.312ZM122.75 63.8047C122.75 63.5703 122.82 63.3724 122.961 63.2109C123.107 63.0495 123.32 62.9688 123.602 62.9688C123.878 62.9688 124.089 63.0495 124.234 63.2109C124.385 63.3724 124.461 63.5703 124.461 63.8047C124.461 64.0286 124.385 64.2214 124.234 64.3828C124.089 64.5391 123.878 64.6172 123.602 64.6172C123.32 64.6172 123.107 64.5391 122.961 64.3828C122.82 64.2214 122.75 64.0286 122.75 63.8047ZM131.617 73.0547V68.7031C131.617 68.3698 131.549 68.0807 131.414 67.8359C131.284 67.5859 131.086 67.3932 130.82 67.2578C130.555 67.1224 130.227 67.0547 129.836 67.0547C129.471 67.0547 129.151 67.1172 128.875 67.2422C128.604 67.3672 128.391 67.5312 128.234 67.7344C128.083 67.9375 128.008 68.1562 128.008 68.3906H126.562C126.562 68.0885 126.641 67.7891 126.797 67.4922C126.953 67.1953 127.177 66.9271 127.469 66.6875C127.766 66.4427 128.12 66.25 128.531 66.1094C128.948 65.9635 129.411 65.8906 129.922 65.8906C130.536 65.8906 131.078 65.9948 131.547 66.2031C132.021 66.4115 132.391 66.7266 132.656 67.1484C132.927 67.5651 133.062 68.0885 133.062 68.7188V72.6562C133.062 72.9375 133.086 73.237 133.133 73.5547C133.185 73.8724 133.26 74.1458 133.359 74.375V74.5H131.852C131.779 74.3333 131.721 74.112 131.68 73.8359C131.638 73.5547 131.617 73.2943 131.617 73.0547ZM131.867 69.375L131.883 70.3906H130.422C130.01 70.3906 129.643 70.4245 129.32 70.4922C128.997 70.5547 128.727 70.651 128.508 70.7812C128.289 70.9115 128.122 71.0755 128.008 71.2734C127.893 71.4661 127.836 71.6927 127.836 71.9531C127.836 72.2188 127.896 72.4609 128.016 72.6797C128.135 72.8984 128.315 73.0729 128.555 73.2031C128.799 73.3281 129.099 73.3906 129.453 73.3906C129.896 73.3906 130.286 73.2969 130.625 73.1094C130.964 72.9219 131.232 72.6927 131.43 72.4219C131.633 72.151 131.742 71.888 131.758 71.6328L132.375 72.3281C132.339 72.5469 132.24 72.7891 132.078 73.0547C131.917 73.3203 131.701 73.5755 131.43 73.8203C131.164 74.0599 130.846 74.2604 130.477 74.4219C130.112 74.5781 129.701 74.6562 129.242 74.6562C128.669 74.6562 128.167 74.5443 127.734 74.3203C127.307 74.0964 126.974 73.7969 126.734 73.4219C126.5 73.0417 126.383 72.6172 126.383 72.1484C126.383 71.6953 126.471 71.2969 126.648 70.9531C126.826 70.6042 127.081 70.3151 127.414 70.0859C127.747 69.8516 128.148 69.6745 128.617 69.5547C129.086 69.4349 129.609 69.375 130.188 69.375H131.867ZM138.875 66.0469V67.1562H134.305V66.0469H138.875ZM135.852 63.9922H137.297V72.4062C137.297 72.6927 137.341 72.9089 137.43 73.0547C137.518 73.2005 137.633 73.2969 137.773 73.3438C137.914 73.3906 138.065 73.4141 138.227 73.4141C138.346 73.4141 138.471 73.4036 138.602 73.3828C138.737 73.3568 138.839 73.3359 138.906 73.3203L138.914 74.5C138.799 74.5365 138.648 74.5703 138.461 74.6016C138.279 74.638 138.057 74.6562 137.797 74.6562C137.443 74.6562 137.117 74.5859 136.82 74.4453C136.523 74.3047 136.286 74.0703 136.109 73.7422C135.938 73.4089 135.852 72.9609 135.852 72.3984V63.9922ZM144.078 74.6562C143.49 74.6562 142.956 74.5573 142.477 74.3594C142.003 74.1562 141.594 73.8724 141.25 73.5078C140.911 73.1432 140.651 72.7109 140.469 72.2109C140.286 71.7109 140.195 71.1641 140.195 70.5703V70.2422C140.195 69.5547 140.297 68.9427 140.5 68.4062C140.703 67.8646 140.979 67.4062 141.328 67.0312C141.677 66.6562 142.073 66.3724 142.516 66.1797C142.958 65.987 143.417 65.8906 143.891 65.8906C144.495 65.8906 145.016 65.9948 145.453 66.2031C145.896 66.4115 146.258 66.7031 146.539 67.0781C146.82 67.4479 147.029 67.8854 147.164 68.3906C147.299 68.8906 147.367 69.4375 147.367 70.0312V70.6797H141.055V69.5H145.922V69.3906C145.901 69.0156 145.823 68.651 145.688 68.2969C145.557 67.9427 145.349 67.651 145.062 67.4219C144.776 67.1927 144.385 67.0781 143.891 67.0781C143.562 67.0781 143.26 67.1484 142.984 67.2891C142.708 67.4245 142.471 67.6276 142.273 67.8984C142.076 68.1693 141.922 68.5 141.812 68.8906C141.703 69.2812 141.648 69.7318 141.648 70.2422V70.5703C141.648 70.9714 141.703 71.349 141.812 71.7031C141.927 72.0521 142.091 72.3594 142.305 72.625C142.523 72.8906 142.786 73.099 143.094 73.25C143.406 73.401 143.76 73.4766 144.156 73.4766C144.667 73.4766 145.099 73.3724 145.453 73.1641C145.807 72.9557 146.117 72.6771 146.383 72.3281L147.258 73.0234C147.076 73.2995 146.844 73.5625 146.562 73.8125C146.281 74.0625 145.935 74.2656 145.523 74.4219C145.117 74.5781 144.635 74.6562 144.078 74.6562Z" fill="#777777"/>
</svg>
