<svg width="130" height="77" viewBox="0 0 130 77" fill="none" xmlns="http://www.w3.org/2000/svg">
<path d="M15.86 43.46C13.5 43.46 11.3 43 9.26 42.08C7.26 41.16 5.64 39.84 4.4 38.12C3.2 36.4 2.6 34.38 2.6 32.06C2.6 29.14 3.42 26.86 5.06 25.22C6.7 23.58 8.44 22.5 10.28 21.98V21.74L9.62 21.44C7.5 20.56 5.88 19.26 4.76 17.54C3.64 15.82 3.08 13.82 3.08 11.54C3.08 9.46 3.72 7.58 5 5.9C6.28 4.18 7.94 2.86 9.98 1.94C12.02 0.979997 14.14 0.499997 16.34 0.499997C19.06 0.499997 21.36 0.999998 23.24 2C25.16 2.96 26.6 4.24 27.56 5.84C28.52 7.4 29 9.06 29 10.82C29 12.98 28.3 14.86 26.9 16.46C25.54 18.02 23.94 19.22 22.1 20.06V20.3L23.48 20.84C28.2 22.76 30.56 25.78 30.56 29.9C30.56 32.38 29.98 34.66 28.82 36.74C27.7 38.78 26.02 40.42 23.78 41.66C21.58 42.86 18.94 43.46 15.86 43.46ZM20.36 19.64C22.12 18.68 23.36 17.5 24.08 16.1C24.8 14.7 25.16 13.06 25.16 11.18C25.16 9.54 24.76 8.06 23.96 6.74C23.16 5.38 22.08 4.32 20.72 3.56C19.4 2.8 17.94 2.42 16.34 2.42C13.86 2.42 11.76 3.12 10.04 4.52C8.36 5.92 7.52 7.78 7.52 10.1C7.52 11.78 7.92 13.12 8.72 14.12C9.56 15.12 10.86 15.98 12.62 16.7L20.36 19.64ZM16.52 41.54C18.72 41.54 20.52 41.08 21.92 40.16C23.32 39.24 24.32 38.14 24.92 36.86C25.56 35.54 25.88 34.3 25.88 33.14C25.88 30.9 25.38 29.24 24.38 28.16C23.42 27.08 22 26.16 20.12 25.4L12.02 22.46C10.38 23.14 9.1 24.22 8.18 25.7C7.26 27.18 6.8 29.34 6.8 32.18C6.8 35.38 7.76 37.74 9.68 39.26C11.64 40.78 13.92 41.54 16.52 41.54ZM49.4047 43.46C46.5647 43.46 44.0447 42.44 41.8447 40.4C39.6447 38.36 37.9247 35.7 36.6847 32.42C35.4847 29.1 34.8847 25.62 34.8847 21.98C34.8847 18.34 35.4847 14.88 36.6847 11.6C37.9247 8.28 39.6447 5.6 41.8447 3.56C44.0447 1.52 46.5647 0.499997 49.4047 0.499997C52.2047 0.499997 54.7047 1.52 56.9047 3.56C59.1447 5.6 60.8647 8.28 62.0647 11.6C63.3047 14.88 63.9247 18.34 63.9247 21.98C63.9247 25.62 63.3047 29.1 62.0647 32.42C60.8647 35.7 59.1447 38.36 56.9047 40.4C54.7047 42.44 52.2047 43.46 49.4047 43.46ZM49.4047 41.54C52.7247 41.54 54.9047 39.66 55.9447 35.9C57.0247 32.14 57.5647 27.5 57.5647 21.98C57.5647 16.46 57.0247 11.82 55.9447 8.06C54.9047 4.3 52.7247 2.42 49.4047 2.42C46.0847 2.42 43.8847 4.3 42.8047 8.06C41.7647 11.78 41.2447 16.42 41.2447 21.98C41.2447 27.54 41.7647 32.2 42.8047 35.96C43.8847 39.68 46.0847 41.54 49.4047 41.54ZM82.4094 43.46C79.5694 43.46 77.0494 42.44 74.8494 40.4C72.6494 38.36 70.9294 35.7 69.6894 32.42C68.4894 29.1 67.8894 25.62 67.8894 21.98C67.8894 18.34 68.4894 14.88 69.6894 11.6C70.9294 8.28 72.6494 5.6 74.8494 3.56C77.0494 1.52 79.5694 0.499997 82.4094 0.499997C85.2094 0.499997 87.7094 1.52 89.9094 3.56C92.1494 5.6 93.8694 8.28 95.0694 11.6C96.3094 14.88 96.9294 18.34 96.9294 21.98C96.9294 25.62 96.3094 29.1 95.0694 32.42C93.8694 35.7 92.1494 38.36 89.9094 40.4C87.7094 42.44 85.2094 43.46 82.4094 43.46ZM82.4094 41.54C85.7294 41.54 87.9094 39.66 88.9494 35.9C90.0294 32.14 90.5694 27.5 90.5694 21.98C90.5694 16.46 90.0294 11.82 88.9494 8.06C87.9094 4.3 85.7294 2.42 82.4094 2.42C79.0894 2.42 76.8894 4.3 75.8094 8.06C74.7694 11.78 74.2494 16.42 74.2494 21.98C74.2494 27.54 74.7694 32.2 75.8094 35.96C76.8894 39.68 79.0894 41.54 82.4094 41.54ZM115.414 43.46C112.574 43.46 110.054 42.44 107.854 40.4C105.654 38.36 103.934 35.7 102.694 32.42C101.494 29.1 100.894 25.62 100.894 21.98C100.894 18.34 101.494 14.88 102.694 11.6C103.934 8.28 105.654 5.6 107.854 3.56C110.054 1.52 112.574 0.499997 115.414 0.499997C118.214 0.499997 120.714 1.52 122.914 3.56C125.154 5.6 126.874 8.28 128.074 11.6C129.314 14.88 129.934 18.34 129.934 21.98C129.934 25.62 129.314 29.1 128.074 32.42C126.874 35.7 125.154 38.36 122.914 40.4C120.714 42.44 118.214 43.46 115.414 43.46ZM115.414 41.54C118.734 41.54 120.914 39.66 121.954 35.9C123.034 32.14 123.574 27.5 123.574 21.98C123.574 16.46 123.034 11.82 121.954 8.06C120.914 4.3 118.734 2.42 115.414 2.42C112.094 2.42 109.894 4.3 108.814 8.06C107.774 11.78 107.254 16.42 107.254 21.98C107.254 27.54 107.774 32.2 108.814 35.96C109.894 39.68 112.094 41.54 115.414 41.54Z" fill="#222222"/>
<path d="M7.75 67.0156V68.2422H1.59375V67.0156H7.75ZM1.82812 62.125V73.5H0.320312V62.125H1.82812ZM9.0625 62.125V73.5H7.5625V62.125H9.0625ZM16.5078 72.0547V67.7031C16.5078 67.3698 16.4401 67.0807 16.3047 66.8359C16.1745 66.5859 15.9766 66.3932 15.7109 66.2578C15.4453 66.1224 15.1172 66.0547 14.7266 66.0547C14.362 66.0547 14.0417 66.1172 13.7656 66.2422C13.4948 66.3672 13.2812 66.5312 13.125 66.7344C12.974 66.9375 12.8984 67.1562 12.8984 67.3906H11.4531C11.4531 67.0885 11.5312 66.7891 11.6875 66.4922C11.8438 66.1953 12.0677 65.9271 12.3594 65.6875C12.6562 65.4427 13.0104 65.25 13.4219 65.1094C13.8385 64.9635 14.3021 64.8906 14.8125 64.8906C15.4271 64.8906 15.9688 64.9948 16.4375 65.2031C16.9115 65.4115 17.2812 65.7266 17.5469 66.1484C17.8177 66.5651 17.9531 67.0885 17.9531 67.7188V71.6562C17.9531 71.9375 17.9766 72.237 18.0234 72.5547C18.0755 72.8724 18.151 73.1458 18.25 73.375V73.5H16.7422C16.6693 73.3333 16.612 73.112 16.5703 72.8359C16.5286 72.5547 16.5078 72.2943 16.5078 72.0547ZM16.7578 68.375L16.7734 69.3906H15.3125C14.901 69.3906 14.5339 69.4245 14.2109 69.4922C13.888 69.5547 13.6172 69.651 13.3984 69.7812C13.1797 69.9115 13.013 70.0755 12.8984 70.2734C12.7839 70.4661 12.7266 70.6927 12.7266 70.9531C12.7266 71.2188 12.7865 71.4609 12.9062 71.6797C13.026 71.8984 13.2057 72.0729 13.4453 72.2031C13.6901 72.3281 13.9896 72.3906 14.3438 72.3906C14.7865 72.3906 15.1771 72.2969 15.5156 72.1094C15.8542 71.9219 16.1224 71.6927 16.3203 71.4219C16.5234 71.151 16.6328 70.888 16.6484 70.6328L17.2656 71.3281C17.2292 71.5469 17.1302 71.7891 16.9688 72.0547C16.8073 72.3203 16.5911 72.5755 16.3203 72.8203C16.0547 73.0599 15.737 73.2604 15.3672 73.4219C15.0026 73.5781 14.5911 73.6562 14.1328 73.6562C13.5599 73.6562 13.0573 73.5443 12.625 73.3203C12.1979 73.0964 11.8646 72.7969 11.625 72.4219C11.3906 72.0417 11.2734 71.6172 11.2734 71.1484C11.2734 70.6953 11.362 70.2969 11.5391 69.9531C11.7161 69.6042 11.9714 69.3151 12.3047 69.0859C12.638 68.8516 13.0391 68.6745 13.5078 68.5547C13.9766 68.4349 14.5 68.375 15.0781 68.375H16.7578ZM21.6719 66.6719V76.75H20.2188V65.0469H21.5469L21.6719 66.6719ZM27.3672 69.2031V69.3672C27.3672 69.9818 27.2943 70.5521 27.1484 71.0781C27.0026 71.599 26.7891 72.0521 26.5078 72.4375C26.2318 72.8229 25.8906 73.1224 25.4844 73.3359C25.0781 73.5495 24.612 73.6562 24.0859 73.6562C23.5495 73.6562 23.0755 73.5677 22.6641 73.3906C22.2526 73.2135 21.9036 72.9557 21.6172 72.6172C21.3307 72.2786 21.1016 71.8724 20.9297 71.3984C20.763 70.9245 20.6484 70.3906 20.5859 69.7969V68.9219C20.6484 68.2969 20.7656 67.737 20.9375 67.2422C21.1094 66.7474 21.3359 66.3255 21.6172 65.9766C21.9036 65.6224 22.25 65.3542 22.6562 65.1719C23.0625 64.9844 23.5312 64.8906 24.0625 64.8906C24.5938 64.8906 25.0651 64.9948 25.4766 65.2031C25.888 65.4062 26.2344 65.6979 26.5156 66.0781C26.7969 66.4583 27.0078 66.9141 27.1484 67.4453C27.2943 67.9714 27.3672 68.5573 27.3672 69.2031ZM25.9141 69.3672V69.2031C25.9141 68.7812 25.8698 68.3854 25.7812 68.0156C25.6927 67.6406 25.5547 67.3125 25.3672 67.0312C25.1849 66.7448 24.9505 66.5208 24.6641 66.3594C24.3776 66.1927 24.0365 66.1094 23.6406 66.1094C23.276 66.1094 22.9583 66.1719 22.6875 66.2969C22.4219 66.4219 22.1953 66.5911 22.0078 66.8047C21.8203 67.013 21.6667 67.2526 21.5469 67.5234C21.4323 67.7891 21.3464 68.0651 21.2891 68.3516V70.375C21.3932 70.7396 21.5391 71.0833 21.7266 71.4062C21.9141 71.724 22.1641 71.9818 22.4766 72.1797C22.7891 72.3724 23.1823 72.4688 23.6562 72.4688C24.0469 72.4688 24.3828 72.388 24.6641 72.2266C24.9505 72.0599 25.1849 71.8333 25.3672 71.5469C25.5547 71.2604 25.6927 70.9323 25.7812 70.5625C25.8698 70.1875 25.9141 69.7891 25.9141 69.3672ZM30.6562 66.6719V76.75H29.2031V65.0469H30.5312L30.6562 66.6719ZM36.3516 69.2031V69.3672C36.3516 69.9818 36.2786 70.5521 36.1328 71.0781C35.987 71.599 35.7734 72.0521 35.4922 72.4375C35.2161 72.8229 34.875 73.1224 34.4688 73.3359C34.0625 73.5495 33.5964 73.6562 33.0703 73.6562C32.5339 73.6562 32.0599 73.5677 31.6484 73.3906C31.237 73.2135 30.888 72.9557 30.6016 72.6172C30.3151 72.2786 30.0859 71.8724 29.9141 71.3984C29.7474 70.9245 29.6328 70.3906 29.5703 69.7969V68.9219C29.6328 68.2969 29.75 67.737 29.9219 67.2422C30.0938 66.7474 30.3203 66.3255 30.6016 65.9766C30.888 65.6224 31.2344 65.3542 31.6406 65.1719C32.0469 64.9844 32.5156 64.8906 33.0469 64.8906C33.5781 64.8906 34.0495 64.9948 34.4609 65.2031C34.8724 65.4062 35.2188 65.6979 35.5 66.0781C35.7812 66.4583 35.9922 66.9141 36.1328 67.4453C36.2786 67.9714 36.3516 68.5573 36.3516 69.2031ZM34.8984 69.3672V69.2031C34.8984 68.7812 34.8542 68.3854 34.7656 68.0156C34.6771 67.6406 34.5391 67.3125 34.3516 67.0312C34.1693 66.7448 33.9349 66.5208 33.6484 66.3594C33.362 66.1927 33.0208 66.1094 32.625 66.1094C32.2604 66.1094 31.9427 66.1719 31.6719 66.2969C31.4062 66.4219 31.1797 66.5911 30.9922 66.8047C30.8047 67.013 30.651 67.2526 30.5312 67.5234C30.4167 67.7891 30.3307 68.0651 30.2734 68.3516V70.375C30.3776 70.7396 30.5234 71.0833 30.7109 71.4062C30.8984 71.724 31.1484 71.9818 31.4609 72.1797C31.7734 72.3724 32.1667 72.4688 32.6406 72.4688C33.0312 72.4688 33.3672 72.388 33.6484 72.2266C33.9349 72.0599 34.1693 71.8333 34.3516 71.5469C34.5391 71.2604 34.6771 70.9323 34.7656 70.5625C34.8542 70.1875 34.8984 69.7891 34.8984 69.3672ZM40.4766 72.625L42.8281 65.0469H44.375L40.9844 74.8047C40.9062 75.013 40.8021 75.237 40.6719 75.4766C40.5469 75.7214 40.3854 75.9531 40.1875 76.1719C39.9896 76.3906 39.75 76.5677 39.4688 76.7031C39.1927 76.8438 38.862 76.9141 38.4766 76.9141C38.362 76.9141 38.2161 76.8984 38.0391 76.8672C37.862 76.8359 37.737 76.8099 37.6641 76.7891L37.6562 75.6172C37.6979 75.6224 37.763 75.6276 37.8516 75.6328C37.9453 75.6432 38.0104 75.6484 38.0469 75.6484C38.375 75.6484 38.6536 75.6042 38.8828 75.5156C39.112 75.4323 39.3047 75.2891 39.4609 75.0859C39.6224 74.888 39.7604 74.6146 39.875 74.2656L40.4766 72.625ZM38.75 65.0469L40.9453 71.6094L41.3203 73.1328L40.2812 73.6641L37.1719 65.0469H38.75ZM56.375 62.125H57.875V69.8203C57.875 70.6745 57.6849 71.3854 57.3047 71.9531C56.9245 72.5208 56.4193 72.9479 55.7891 73.2344C55.1641 73.5156 54.4844 73.6562 53.75 73.6562C52.9792 73.6562 52.2812 73.5156 51.6562 73.2344C51.0365 72.9479 50.5443 72.5208 50.1797 71.9531C49.8203 71.3854 49.6406 70.6745 49.6406 69.8203V62.125H51.1328V69.8203C51.1328 70.4141 51.2422 70.9036 51.4609 71.2891C51.6797 71.6745 51.9844 71.9609 52.375 72.1484C52.7708 72.3359 53.2292 72.4297 53.75 72.4297C54.276 72.4297 54.7344 72.3359 55.125 72.1484C55.5208 71.9609 55.8281 71.6745 56.0469 71.2891C56.2656 70.9036 56.375 70.4141 56.375 69.8203V62.125ZM64.9453 71.2578C64.9453 71.0495 64.8984 70.8568 64.8047 70.6797C64.7161 70.4974 64.5312 70.3333 64.25 70.1875C63.974 70.0365 63.5573 69.9062 63 69.7969C62.5312 69.6979 62.1068 69.5807 61.7266 69.4453C61.3516 69.3099 61.0312 69.1458 60.7656 68.9531C60.5052 68.7604 60.3047 68.5339 60.1641 68.2734C60.0234 68.013 59.9531 67.7083 59.9531 67.3594C59.9531 67.026 60.026 66.7109 60.1719 66.4141C60.3229 66.1172 60.5339 65.8542 60.8047 65.625C61.0807 65.3958 61.4115 65.2161 61.7969 65.0859C62.1823 64.9557 62.612 64.8906 63.0859 64.8906C63.763 64.8906 64.3411 65.0104 64.8203 65.25C65.2995 65.4896 65.6667 65.8099 65.9219 66.2109C66.1771 66.6068 66.3047 67.0469 66.3047 67.5312H64.8594C64.8594 67.2969 64.7891 67.0703 64.6484 66.8516C64.513 66.6276 64.3125 66.4427 64.0469 66.2969C63.7865 66.151 63.4661 66.0781 63.0859 66.0781C62.6849 66.0781 62.3594 66.1406 62.1094 66.2656C61.8646 66.3854 61.6849 66.5391 61.5703 66.7266C61.4609 66.9141 61.4062 67.112 61.4062 67.3203C61.4062 67.4766 61.4323 67.6172 61.4844 67.7422C61.5417 67.862 61.6406 67.974 61.7812 68.0781C61.9219 68.1771 62.1198 68.2708 62.375 68.3594C62.6302 68.4479 62.9557 68.5365 63.3516 68.625C64.0443 68.7812 64.6146 68.9688 65.0625 69.1875C65.5104 69.4062 65.8438 69.6745 66.0625 69.9922C66.2812 70.3099 66.3906 70.6953 66.3906 71.1484C66.3906 71.5182 66.3125 71.8568 66.1562 72.1641C66.0052 72.4714 65.7839 72.737 65.4922 72.9609C65.2057 73.1797 64.862 73.3516 64.4609 73.4766C64.0651 73.5964 63.6198 73.6562 63.125 73.6562C62.3802 73.6562 61.75 73.5234 61.2344 73.2578C60.7188 72.9922 60.3281 72.6484 60.0625 72.2266C59.7969 71.8047 59.6641 71.3594 59.6641 70.8906H61.1172C61.138 71.2865 61.2526 71.6016 61.4609 71.8359C61.6693 72.0651 61.9245 72.2292 62.2266 72.3281C62.5286 72.4219 62.8281 72.4688 63.125 72.4688C63.5208 72.4688 63.8516 72.4167 64.1172 72.3125C64.388 72.2083 64.5938 72.0651 64.7344 71.8828C64.875 71.7005 64.9453 71.4922 64.9453 71.2578ZM71.7969 73.6562C71.2083 73.6562 70.6745 73.5573 70.1953 73.3594C69.7214 73.1562 69.3125 72.8724 68.9688 72.5078C68.6302 72.1432 68.3698 71.7109 68.1875 71.2109C68.0052 70.7109 67.9141 70.1641 67.9141 69.5703V69.2422C67.9141 68.5547 68.0156 67.9427 68.2188 67.4062C68.4219 66.8646 68.6979 66.4062 69.0469 66.0312C69.3958 65.6562 69.7917 65.3724 70.2344 65.1797C70.6771 64.987 71.1354 64.8906 71.6094 64.8906C72.2135 64.8906 72.7344 64.9948 73.1719 65.2031C73.6146 65.4115 73.9766 65.7031 74.2578 66.0781C74.5391 66.4479 74.7474 66.8854 74.8828 67.3906C75.0182 67.8906 75.0859 68.4375 75.0859 69.0312V69.6797H68.7734V68.5H73.6406V68.3906C73.6198 68.0156 73.5417 67.651 73.4062 67.2969C73.276 66.9427 73.0677 66.651 72.7812 66.4219C72.4948 66.1927 72.1042 66.0781 71.6094 66.0781C71.2812 66.0781 70.9792 66.1484 70.7031 66.2891C70.4271 66.4245 70.1901 66.6276 69.9922 66.8984C69.7943 67.1693 69.6406 67.5 69.5312 67.8906C69.4219 68.2812 69.3672 68.7318 69.3672 69.2422V69.5703C69.3672 69.9714 69.4219 70.349 69.5312 70.7031C69.6458 71.0521 69.8099 71.3594 70.0234 71.625C70.2422 71.8906 70.5052 72.099 70.8125 72.25C71.125 72.401 71.4792 72.4766 71.875 72.4766C72.3854 72.4766 72.8177 72.3724 73.1719 72.1641C73.526 71.9557 73.8359 71.6771 74.1016 71.3281L74.9766 72.0234C74.7943 72.2995 74.5625 72.5625 74.2812 72.8125C74 73.0625 73.6536 73.2656 73.2422 73.4219C72.8359 73.5781 72.3542 73.6562 71.7969 73.6562ZM78.2188 66.375V73.5H76.7734V65.0469H78.1797L78.2188 66.375ZM80.8594 65L80.8516 66.3438C80.7318 66.3177 80.6172 66.3021 80.5078 66.2969C80.4036 66.2865 80.2839 66.2812 80.1484 66.2812C79.8151 66.2812 79.5208 66.3333 79.2656 66.4375C79.0104 66.5417 78.7943 66.6875 78.6172 66.875C78.4401 67.0625 78.2995 67.2865 78.1953 67.5469C78.0964 67.8021 78.0312 68.0833 78 68.3906L77.5938 68.625C77.5938 68.1146 77.6432 67.6354 77.7422 67.1875C77.8464 66.7396 78.0052 66.3438 78.2188 66C78.4323 65.651 78.7031 65.3802 79.0312 65.1875C79.3646 64.9896 79.7604 64.8906 80.2188 64.8906C80.3229 64.8906 80.4427 64.9036 80.5781 64.9297C80.7135 64.9505 80.8073 64.974 80.8594 65ZM87.1172 71.2578C87.1172 71.0495 87.0703 70.8568 86.9766 70.6797C86.888 70.4974 86.7031 70.3333 86.4219 70.1875C86.1458 70.0365 85.7292 69.9062 85.1719 69.7969C84.7031 69.6979 84.2786 69.5807 83.8984 69.4453C83.5234 69.3099 83.2031 69.1458 82.9375 68.9531C82.6771 68.7604 82.4766 68.5339 82.3359 68.2734C82.1953 68.013 82.125 67.7083 82.125 67.3594C82.125 67.026 82.1979 66.7109 82.3438 66.4141C82.4948 66.1172 82.7057 65.8542 82.9766 65.625C83.2526 65.3958 83.5833 65.2161 83.9688 65.0859C84.3542 64.9557 84.7839 64.8906 85.2578 64.8906C85.9349 64.8906 86.513 65.0104 86.9922 65.25C87.4714 65.4896 87.8385 65.8099 88.0938 66.2109C88.349 66.6068 88.4766 67.0469 88.4766 67.5312H87.0312C87.0312 67.2969 86.9609 67.0703 86.8203 66.8516C86.6849 66.6276 86.4844 66.4427 86.2188 66.2969C85.9583 66.151 85.638 66.0781 85.2578 66.0781C84.8568 66.0781 84.5312 66.1406 84.2812 66.2656C84.0365 66.3854 83.8568 66.5391 83.7422 66.7266C83.6328 66.9141 83.5781 67.112 83.5781 67.3203C83.5781 67.4766 83.6042 67.6172 83.6562 67.7422C83.7135 67.862 83.8125 67.974 83.9531 68.0781C84.0938 68.1771 84.2917 68.2708 84.5469 68.3594C84.8021 68.4479 85.1276 68.5365 85.5234 68.625C86.2161 68.7812 86.7865 68.9688 87.2344 69.1875C87.6823 69.4062 88.0156 69.6745 88.2344 69.9922C88.4531 70.3099 88.5625 70.6953 88.5625 71.1484C88.5625 71.5182 88.4844 71.8568 88.3281 72.1641C88.1771 72.4714 87.9557 72.737 87.6641 72.9609C87.3776 73.1797 87.0339 73.3516 86.6328 73.4766C86.237 73.5964 85.7917 73.6562 85.2969 73.6562C84.5521 73.6562 83.9219 73.5234 83.4062 73.2578C82.8906 72.9922 82.5 72.6484 82.2344 72.2266C81.9688 71.8047 81.8359 71.3594 81.8359 70.8906H83.2891C83.3099 71.2865 83.4245 71.6016 83.6328 71.8359C83.8411 72.0651 84.0964 72.2292 84.3984 72.3281C84.7005 72.4219 85 72.4688 85.2969 72.4688C85.6927 72.4688 86.0234 72.4167 86.2891 72.3125C86.5599 72.2083 86.7656 72.0651 86.9062 71.8828C87.0469 71.7005 87.1172 71.4922 87.1172 71.2578Z" fill="#777777"/>
</svg>
