<svg width="158" height="158" viewBox="0 0 158 158" fill="none" xmlns="http://www.w3.org/2000/svg">
<rect width="158" height="158" fill="white"/>
<path d="M38.6554 117.333C37.7994 117.333 37.0674 117.185 36.4594 116.889C35.8514 116.585 35.3874 116.117 35.0674 115.485C34.7554 114.853 34.5994 114.049 34.5994 113.073C34.5994 111.633 34.9514 110.565 35.6554 109.869C36.3674 109.165 37.3674 108.813 38.6554 108.813C39.3594 108.813 39.9914 108.933 40.5514 109.173C41.1114 109.413 41.5514 109.773 41.8714 110.253C42.1994 110.733 42.3634 111.337 42.3634 112.065H40.5634C40.5634 111.681 40.4834 111.357 40.3234 111.093C40.1714 110.829 39.9514 110.629 39.6634 110.493C39.3834 110.349 39.0554 110.277 38.6794 110.277C38.1674 110.277 37.7434 110.377 37.4074 110.577C37.0794 110.777 36.8354 111.073 36.6754 111.465C36.5234 111.849 36.4474 112.321 36.4474 112.881V113.253C36.4474 113.829 36.5274 114.313 36.6874 114.705C36.8474 115.089 37.0874 115.381 37.4074 115.581C37.7354 115.773 38.1554 115.869 38.6674 115.869C39.0674 115.869 39.4154 115.801 39.7114 115.665C40.0074 115.529 40.2354 115.329 40.3954 115.065C40.5554 114.801 40.6354 114.477 40.6354 114.093H42.3634C42.3634 114.821 42.2034 115.425 41.8834 115.905C41.5714 116.385 41.1354 116.745 40.5754 116.985C40.0154 117.217 39.3754 117.333 38.6554 117.333ZM46.1722 117.189V108.957H47.9602V117.189H46.1722ZM54.2095 117.189V110.457H51.5695V108.957H58.6615V110.457H56.0095V117.189H54.2095ZM64.4227 117.189V113.877L61.2307 108.957H63.3067L65.3467 112.269H65.4067L67.4347 108.957H69.3907L66.2227 113.877V117.189H64.4227ZM80.7271 117.333C79.4311 117.333 78.4311 116.989 77.7271 116.301C77.0311 115.605 76.6831 114.529 76.6831 113.073C76.6831 112.105 76.8511 111.309 77.1871 110.685C77.5231 110.053 78.0111 109.585 78.6511 109.281C79.2911 108.969 80.0591 108.813 80.9551 108.813C81.4911 108.813 81.9951 108.873 82.4671 108.993C82.9391 109.113 83.3551 109.297 83.7151 109.545C84.0831 109.793 84.3671 110.105 84.5671 110.481C84.7751 110.849 84.8791 111.289 84.8791 111.801H83.0671C83.0671 111.553 83.0111 111.333 82.8991 111.141C82.7951 110.949 82.6471 110.789 82.4551 110.661C82.2631 110.533 82.0431 110.437 81.7951 110.373C81.5471 110.309 81.2871 110.277 81.0151 110.277C80.5991 110.277 80.2351 110.333 79.9231 110.445C79.6111 110.549 79.3511 110.713 79.1431 110.937C78.9431 111.153 78.7911 111.425 78.6871 111.753C78.5831 112.081 78.5311 112.461 78.5311 112.893V113.253C78.5311 113.853 78.6191 114.345 78.7951 114.729C78.9711 115.113 79.2351 115.401 79.5871 115.593C79.9391 115.777 80.3751 115.869 80.8951 115.869C81.3271 115.869 81.7071 115.805 82.0351 115.677C82.3711 115.541 82.6311 115.349 82.8151 115.101C83.0071 114.853 83.1031 114.549 83.1031 114.189V114.105H80.6431V112.737H84.8791V117.189H83.7031L83.5471 116.301C83.3071 116.533 83.0471 116.725 82.7671 116.877C82.4951 117.029 82.1911 117.141 81.8551 117.213C81.5191 117.293 81.1431 117.333 80.7271 117.333ZM92.5682 117.333C91.8162 117.333 91.1682 117.213 90.6242 116.973C90.0882 116.733 89.6762 116.373 89.3882 115.893C89.1002 115.405 88.9562 114.801 88.9562 114.081V108.957H90.7562V114.033C90.7562 114.625 90.9122 115.081 91.2242 115.401C91.5362 115.713 91.9842 115.869 92.5682 115.869C93.1522 115.869 93.6002 115.713 93.9122 115.401C94.2322 115.081 94.3922 114.625 94.3922 114.033V108.957H96.1922V114.081C96.1922 114.801 96.0482 115.405 95.7602 115.893C95.4722 116.373 95.0562 116.733 94.5122 116.973C93.9762 117.213 93.3282 117.333 92.5682 117.333ZM100.381 117.189V108.957H102.169V117.189H100.381ZM106.39 117.189V108.957H109.75C110.606 108.957 111.334 109.105 111.934 109.401C112.534 109.697 112.994 110.149 113.314 110.757C113.642 111.357 113.806 112.129 113.806 113.073C113.806 114.009 113.642 114.781 113.314 115.389C112.994 115.997 112.534 116.449 111.934 116.745C111.334 117.041 110.606 117.189 109.75 117.189H106.39ZM108.178 115.713H109.738C110.098 115.713 110.418 115.661 110.698 115.557C110.978 115.453 111.21 115.301 111.394 115.101C111.578 114.893 111.718 114.637 111.814 114.333C111.91 114.021 111.958 113.661 111.958 113.253V112.893C111.958 112.485 111.91 112.129 111.814 111.825C111.718 111.513 111.578 111.257 111.394 111.057C111.21 110.849 110.978 110.693 110.698 110.589C110.418 110.477 110.098 110.421 109.738 110.421H108.178V115.713ZM117.661 117.189V108.957H124.237V110.421H119.461V112.257H123.685V113.709H119.461V115.713H124.309V117.189H117.661Z" fill="#222222"/>
<g clip-path="url(#clip0_67_674)">
<path d="M78.7313 51.5215C77.2819 51.5215 75.8868 51.951 74.697 52.7637C74.3453 53.0039 74.2564 53.4816 74.4984 53.8307C74.7405 54.1798 75.2218 54.268 75.5735 54.0279C76.5043 53.3921 77.5962 53.0561 78.7313 53.0561C81.8073 53.0561 84.3097 55.5396 84.3097 58.5924C84.3097 61.6451 81.8073 64.1288 78.7313 64.1288C75.6554 64.1288 73.153 61.6451 73.153 58.5924C73.153 57.6918 73.3637 56.8333 73.7792 56.0409C73.9762 55.6649 73.829 55.2016 73.4502 55.0061C73.0713 54.8107 72.6048 54.9566 72.4076 55.3326C71.8838 56.3318 71.6069 57.459 71.6069 58.5924C71.607 62.4914 74.8029 65.6633 78.7313 65.6633C82.6597 65.6633 85.8557 62.4914 85.8557 58.5924C85.8557 54.6935 82.6597 51.5215 78.7313 51.5215Z" fill="#BEAD8E"/>
<path d="M105.137 93.0985L97.5072 74.9039C97.3873 74.6179 97.1058 74.4315 96.7936 74.4315H89.1904C90.6692 72.4459 91.9002 70.4682 92.8615 68.5263C94.5652 65.0848 95.4289 61.7427 95.4289 58.5925C95.4288 49.4546 87.9384 42.0205 78.7314 42.0205C69.5243 42.0205 62.0339 49.4546 62.0339 58.5924C62.0339 61.7426 62.8976 65.0848 64.6013 68.5262C65.5625 70.4681 66.7935 72.4459 68.2724 74.4314H60.6692C60.357 74.4314 60.0754 74.6179 59.9556 74.9038L54.7565 87.302C54.5924 87.6932 54.7789 88.1423 55.1731 88.305C55.2702 88.3452 55.3707 88.3642 55.4698 88.3642C55.7727 88.3642 56.0602 88.1864 56.1837 87.8916L56.9255 86.1225H62.1882L59.461 92.6259H54.1985L54.9891 90.7407C55.1531 90.3494 54.9666 89.9003 54.5724 89.7376C54.178 89.5745 53.7257 89.7599 53.5617 90.151L52.3258 93.0985C52.2265 93.3352 52.2529 93.6057 52.3964 93.819C52.5397 94.0323 52.781 94.1605 53.0394 94.1605H104.423C104.682 94.1605 104.923 94.0323 105.066 93.819C105.21 93.6057 105.236 93.3352 105.137 93.0985ZM63.58 58.5924C63.58 50.3007 70.3769 43.555 78.7314 43.555C87.0858 43.555 93.8827 50.3008 93.8827 58.5924C93.8827 62.0694 92.6654 67.6255 87.0343 74.706C87.0287 74.7126 87.0236 74.7196 87.0182 74.7264C86.7306 75.0877 86.4319 75.4527 86.1208 75.8219C83.0264 79.4943 79.8951 82.1759 78.7313 83.1287C77.5708 82.1792 74.4543 79.511 71.3621 75.8456C71.0433 75.4677 70.7375 75.0941 70.4432 74.7244C70.4384 74.7185 70.434 74.7124 70.429 74.7066C64.7982 67.6266 63.58 62.0707 63.58 58.5924ZM61.1848 75.966H66.4475L64.5279 80.5433H59.2653L61.1848 75.966ZM65.7053 92.626L70.5373 81.1035L84.2882 92.626H65.7053ZM86.6848 92.626L70.7281 79.255C70.5397 79.097 70.2866 79.0379 70.0474 79.0955C69.808 79.153 69.6103 79.3206 69.5158 79.5463L64.0308 92.6259H61.1358L64.061 85.65C64.1603 85.4132 64.1338 85.1428 63.9904 84.9295C63.8471 84.7161 63.6057 84.5879 63.3472 84.5879H57.5693L58.6219 82.0777H65.0436C65.3558 82.0777 65.6374 81.8912 65.7572 81.6053L68.1221 75.9659H69.4638C69.6967 76.2541 69.9334 76.5424 70.1764 76.8306C74.1653 81.5588 78.093 84.5944 78.2583 84.7214C78.3977 84.8285 78.5645 84.8818 78.7314 84.8818C78.8982 84.8818 79.0652 84.8284 79.2044 84.7214C79.2953 84.6517 80.5232 83.7022 82.272 82.0778H91.0262C91.4532 82.0778 91.7993 81.7343 91.7993 81.3105C91.7993 80.8868 91.4532 80.5433 91.0262 80.5433H83.8653C84.9371 79.4737 86.1086 78.2266 87.2864 76.8307C87.5294 76.5425 87.7663 76.2543 87.9991 75.966H96.278L98.1974 80.5433H94.1184C93.6914 80.5433 93.3453 80.8868 93.3453 81.3105C93.3453 81.7343 93.6913 82.0778 94.1184 82.0778H98.8408L99.8934 84.588H83.9659C83.6432 84.588 83.3546 84.7868 83.2416 85.0868C83.1288 85.3868 83.2154 85.7248 83.4591 85.9347L91.2263 92.626H86.6848ZM93.5849 92.626L86.0358 86.1226H100.537L103.264 92.626H93.5849Z" fill="#BEAD8E"/>
</g>
<defs>
<clipPath id="clip0_67_674">
<rect width="52.93" height="52.14" fill="white" transform="translate(52.2664 42.0205)"/>
</clipPath>
</defs>
</svg>
