<svg width="158" height="158" viewBox="0 0 158 158" fill="none" xmlns="http://www.w3.org/2000/svg">
<rect width="158" height="158" fill="white"/>
<g clip-path="url(#clip0_67_685)">
<path d="M60.005 72.5312C59.8603 72.3874 59.6608 72.3047 59.4571 72.3047C59.2524 72.3047 59.0529 72.3874 58.9082 72.5312C58.7645 72.6759 58.6818 72.8754 58.6818 73.08C58.6818 73.2837 58.7645 73.4842 58.9082 73.6279C59.0529 73.7727 59.2524 73.8554 59.4571 73.8554C59.6608 73.8554 59.8603 73.7727 60.005 73.6279C60.1497 73.4842 60.2324 73.2837 60.2324 73.08C60.2324 72.8753 60.1497 72.6758 60.005 72.5312Z" fill="#BEAD8E"/>
<path d="M104.638 70.3286H102.54V68.8418C102.54 68.1293 101.96 67.5496 101.248 67.5496H100.687V63.6118H103.711C104.092 63.6118 104.435 63.4465 104.654 63.1583C104.872 62.8701 104.938 62.4947 104.834 62.1285L103.127 56.076C102.956 55.4704 102.352 55.0137 101.723 55.0137H98.1003C97.471 55.0137 96.8677 55.4703 96.6968 56.076L94.9893 62.1286C94.886 62.4948 94.9519 62.8702 95.17 63.1584C95.3881 63.4466 95.7316 63.6119 96.1121 63.6119H99.1364V67.5497H98.5759C97.8633 67.5497 97.2837 68.1294 97.2837 68.8419V70.3287H95.4865V68.2863C95.4865 67.5737 94.9068 66.994 94.1942 66.994H73.2623C72.8341 66.994 72.4869 67.3412 72.4869 67.7694C72.4869 68.1976 72.8341 68.5447 73.2623 68.5447H93.9359V74.2809H92.8499V73.1487C92.8499 71.8661 91.8065 70.8227 90.5239 70.8227H82.4841C81.2015 70.8227 80.1581 71.8661 80.1581 73.1487V74.2809H79.094V73.1487C79.094 71.8661 78.0506 70.8227 76.7679 70.8227H68.7282C67.4455 70.8227 66.4021 71.8661 66.4021 73.1487V74.2809H64.9941V68.5447H69.7473C70.1755 68.5447 70.5226 68.1976 70.5226 67.7694C70.5226 67.3412 70.1755 66.994 69.7473 66.994H64.7357C64.0231 66.994 63.4434 67.5737 63.4434 68.2863V70.3287H61.6462V68.8421C61.6462 68.1295 61.0666 67.5498 60.354 67.5498H59.7935V63.6118H62.8178C63.1983 63.6118 63.5417 63.4465 63.7599 63.1583C63.978 62.8701 64.044 62.4947 63.9406 62.1285L62.2331 56.076C62.0623 55.4704 61.4589 55.0137 60.8296 55.0137H57.2067C56.5774 55.0137 55.9741 55.4703 55.8032 56.076L54.0958 62.1285C53.9925 62.4947 54.0584 62.8701 54.2765 63.1583C54.4947 63.4465 54.8381 63.6118 55.2186 63.6118H58.2429V67.5497H57.6825C56.97 67.5497 56.3903 68.1294 56.3903 68.8419V70.3286H54.2922C53.5796 70.3286 53 70.9083 53 71.6209V75.1797V80.9617C53 81.6743 53.5796 82.2539 54.2922 82.2539H59.546V87.2607C59.546 87.9732 60.1256 88.5529 60.8382 88.5529H64.3898C65.1024 88.5529 65.682 87.9732 65.682 87.2607V84.7653H84.9441C85.3723 84.7653 85.7194 84.4182 85.7194 83.99C85.7194 83.5618 85.3723 83.2146 84.9441 83.2146H65.4236C64.711 83.2146 64.1313 83.7943 64.1313 84.5069V87.0022H61.0966V80.1544H97.8335V87.0022H94.7988V84.5069C94.7988 83.7943 94.2191 83.2146 93.5065 83.2146H88.6657C88.2375 83.2146 87.8904 83.5618 87.8904 83.99C87.8904 84.4182 88.2375 84.7653 88.6657 84.7653H93.2481V87.2607C93.2481 87.9732 93.8277 88.5529 94.5403 88.5529H98.0919C98.8044 88.5529 99.3842 87.9732 99.3842 87.2607V82.2539H104.638C105.35 82.2539 105.93 81.6743 105.93 80.9617V71.6209C105.93 70.9084 105.35 70.3286 104.638 70.3286ZM96.6196 62.0611L98.1703 56.5643H101.653L103.204 62.0611H96.6196ZM98.8345 69.1004H100.989V70.2669H98.8345V69.1004ZM81.7088 73.1487C81.7088 72.7211 82.0567 72.3734 82.4842 72.3734H90.524C90.9515 72.3734 91.2993 72.7211 91.2993 73.1487V74.2809H81.7088V73.1487ZM68.7282 72.3734H76.7679C77.1954 72.3734 77.5433 72.7211 77.5433 73.1487V74.2809H67.9528V73.1487C67.9528 72.7211 68.3007 72.3734 68.7282 72.3734ZM55.726 62.0611L57.2767 56.5644H60.7595L62.3103 62.0611H55.726ZM57.9409 69.1004H60.0955V70.2669H57.9409V69.1004ZM60.4629 76.6068V78.6596C59.9329 78.8208 59.5458 79.3138 59.5458 79.8958V80.7032H54.5507V75.955H60.5566C60.496 76.162 60.4629 76.3805 60.4629 76.6068ZM54.5507 74.4044V71.8793H63.4434V74.2808H62.7889C62.5279 74.2808 62.2771 74.3246 62.0427 74.4044H54.5507ZM96.9164 78.6037H62.0136V76.6069C62.0136 76.1795 62.3615 75.8316 62.7889 75.8316H96.1411C96.5685 75.8316 96.9164 76.1795 96.9164 76.6069V78.6037ZM104.379 80.7032H99.3842V79.8958C99.3842 79.3138 98.9972 78.8208 98.4671 78.6596V76.6068C98.4671 76.3805 98.434 76.162 98.3734 75.955H104.379V80.7032ZM104.379 74.4044H96.8873C96.6529 74.3246 96.4021 74.2808 96.1411 74.2808H95.4867V71.8793H104.379V74.4044Z" fill="#BEAD8E"/>
<path d="M100.022 72.5321C99.8772 72.3874 99.6777 72.3047 99.473 72.3047C99.2693 72.3047 99.0698 72.3874 98.9251 72.5321C98.7803 72.6758 98.6976 72.8753 98.6976 73.08C98.6976 73.2837 98.7803 73.4832 98.9251 73.6279C99.0688 73.7727 99.2693 73.8554 99.473 73.8554C99.6777 73.8554 99.8772 73.7727 100.022 73.6279C100.166 73.4832 100.248 73.2837 100.248 73.08C100.248 72.8764 100.166 72.6758 100.022 72.5321Z" fill="#BEAD8E"/>
<path d="M90.9513 52.4933C91.3795 52.4933 91.7266 52.1462 91.7266 51.718V49.6702C91.7266 48.9576 91.147 48.3779 90.4344 48.3779H68.4957C67.7831 48.3779 67.2035 48.9576 67.2035 49.6702V61.1667C67.2035 61.8793 67.7831 62.459 68.4957 62.459H90.4344C91.147 62.459 91.7266 61.8793 91.7266 61.1667V55.2329C91.7266 54.8047 91.3795 54.4575 90.9513 54.4575C90.5231 54.4575 90.1759 54.8047 90.1759 55.2329V57.4272L86.5104 51.0785C86.3719 50.8387 86.1159 50.6908 85.839 50.6908C85.5619 50.6908 85.3061 50.8387 85.1675 51.0785L81.8683 56.7931L79.5673 52.8076C79.5662 52.8056 79.5647 52.804 79.5636 52.802C79.4979 52.6903 79.4038 52.5932 79.2835 52.5238C78.9126 52.3096 78.4385 52.4368 78.2244 52.8076L73.5474 60.9084H68.7542V49.9286H90.1759V51.718C90.1759 52.1462 90.5231 52.4933 90.9513 52.4933ZM85.839 53.0168L90.1759 60.5286V60.9084H81.283L85.839 53.0168ZM78.8959 54.746L80.973 58.3438L79.4924 60.9084H75.338L78.8959 54.746Z" fill="#BEAD8E"/>
<path d="M72.9191 50.8145C71.4701 50.8143 70.2911 51.9933 70.2911 53.4424C70.2911 54.8915 71.4701 56.0703 72.9191 56.0703C74.3682 56.0703 75.547 54.8915 75.547 53.4424C75.547 51.9933 74.3682 50.8145 72.9191 50.8145ZM72.9191 54.5197C72.3251 54.5197 71.8418 54.0364 71.8418 53.4424C71.8418 52.8483 72.3251 52.3651 72.9191 52.3651C73.513 52.365 73.9963 52.8483 73.9963 53.4424C73.9963 54.0365 73.513 54.5197 72.9191 54.5197Z" fill="#BEAD8E"/>
</g>
<path d="M22.9179 118.189V109.957H24.7059V116.665H28.8579V118.189H22.9179ZM35.5498 118.333C34.7978 118.333 34.1498 118.213 33.6058 117.973C33.0698 117.733 32.6578 117.373 32.3698 116.893C32.0818 116.405 31.9378 115.801 31.9378 115.081V109.957H33.7378V115.033C33.7378 115.625 33.8938 116.081 34.2058 116.401C34.5178 116.713 34.9658 116.869 35.5498 116.869C36.1338 116.869 36.5818 116.713 36.8938 116.401C37.2138 116.081 37.3738 115.625 37.3738 115.033V109.957H39.1738V115.081C39.1738 115.801 39.0298 116.405 38.7418 116.893C38.4538 117.373 38.0378 117.733 37.4938 117.973C36.9578 118.213 36.3098 118.333 35.5498 118.333ZM42.5584 118.189L45.5224 113.857L42.8464 109.957H45.0304L46.7344 112.561H46.7944L48.4864 109.957H50.5384L47.8504 113.857L50.8144 118.189H48.6304L46.6504 115.141H46.5904L44.6224 118.189H42.5584ZM57.799 118.333C57.047 118.333 56.399 118.213 55.855 117.973C55.319 117.733 54.907 117.373 54.619 116.893C54.331 116.405 54.187 115.801 54.187 115.081V109.957H55.987V115.033C55.987 115.625 56.143 116.081 56.455 116.401C56.767 116.713 57.215 116.869 57.799 116.869C58.383 116.869 58.831 116.713 59.143 116.401C59.463 116.081 59.623 115.625 59.623 115.033V109.957H61.423V115.081C61.423 115.801 61.279 116.405 60.991 116.893C60.703 117.373 60.287 117.733 59.743 117.973C59.207 118.213 58.559 118.333 57.799 118.333ZM65.6116 118.189V109.957H70.1236C70.7316 109.957 71.2356 110.065 71.6356 110.281C72.0436 110.497 72.3476 110.801 72.5476 111.193C72.7476 111.577 72.8476 112.021 72.8476 112.525C72.8476 113.061 72.7276 113.537 72.4876 113.953C72.2476 114.361 71.8996 114.673 71.4436 114.889L73.1236 118.189H71.1436L69.6916 115.189H67.3996V118.189H65.6116ZM67.3996 113.773H69.8836C70.2436 113.773 70.5236 113.665 70.7236 113.449C70.9236 113.225 71.0236 112.925 71.0236 112.549C71.0236 112.309 70.9796 112.105 70.8916 111.937C70.8036 111.761 70.6756 111.629 70.5076 111.541C70.3396 111.453 70.1316 111.409 69.8836 111.409H67.3996V113.773ZM78.9309 118.189V114.877L75.7389 109.957H77.8149L79.8549 113.269H79.9149L81.9429 109.957H83.8989L80.7309 114.877V118.189H78.9309ZM91.4913 118.189V109.957H96.0033C96.6113 109.957 97.1153 110.065 97.5153 110.281C97.9233 110.497 98.2273 110.801 98.4273 111.193C98.6273 111.577 98.7273 112.021 98.7273 112.525C98.7273 113.061 98.6073 113.537 98.3673 113.953C98.1273 114.361 97.7793 114.673 97.3233 114.889L99.0033 118.189H97.0233L95.5713 115.189H93.2793V118.189H91.4913ZM93.2793 113.773H95.7633C96.1233 113.773 96.4033 113.665 96.6033 113.449C96.8033 113.225 96.9033 112.925 96.9033 112.549C96.9033 112.309 96.8593 112.105 96.7713 111.937C96.6833 111.761 96.5553 111.629 96.3873 111.541C96.2193 111.453 96.0113 111.409 95.7633 111.409H93.2793V113.773ZM106.45 118.333C105.578 118.333 104.826 118.177 104.194 117.865C103.562 117.553 103.078 117.081 102.742 116.449C102.406 115.817 102.238 115.025 102.238 114.073C102.238 113.105 102.406 112.309 102.742 111.685C103.078 111.053 103.562 110.585 104.194 110.281C104.826 109.969 105.578 109.813 106.45 109.813C107.338 109.813 108.094 109.969 108.718 110.281C109.35 110.585 109.834 111.053 110.17 111.685C110.506 112.309 110.674 113.105 110.674 114.073C110.674 115.025 110.506 115.817 110.17 116.449C109.834 117.081 109.35 117.553 108.718 117.865C108.094 118.177 107.338 118.333 106.45 118.333ZM106.45 116.869C106.842 116.869 107.186 116.813 107.482 116.701C107.778 116.589 108.026 116.421 108.226 116.197C108.426 115.973 108.578 115.701 108.682 115.381C108.786 115.053 108.838 114.681 108.838 114.265V113.893C108.838 113.469 108.786 113.093 108.682 112.765C108.578 112.437 108.426 112.165 108.226 111.949C108.026 111.725 107.778 111.557 107.482 111.445C107.186 111.333 106.842 111.277 106.45 111.277C106.066 111.277 105.726 111.333 105.43 111.445C105.134 111.557 104.886 111.725 104.686 111.949C104.486 112.165 104.334 112.437 104.23 112.765C104.134 113.093 104.086 113.469 104.086 113.893V114.265C104.086 114.681 104.134 115.053 104.23 115.381C104.334 115.701 104.486 115.973 104.686 116.197C104.886 116.421 105.134 116.589 105.43 116.701C105.726 116.813 106.066 116.869 106.45 116.869ZM118.366 118.333C117.494 118.333 116.742 118.177 116.11 117.865C115.478 117.553 114.994 117.081 114.658 116.449C114.322 115.817 114.154 115.025 114.154 114.073C114.154 113.105 114.322 112.309 114.658 111.685C114.994 111.053 115.478 110.585 116.11 110.281C116.742 109.969 117.494 109.813 118.366 109.813C119.254 109.813 120.01 109.969 120.634 110.281C121.266 110.585 121.75 111.053 122.086 111.685C122.422 112.309 122.59 113.105 122.59 114.073C122.59 115.025 122.422 115.817 122.086 116.449C121.75 117.081 121.266 117.553 120.634 117.865C120.01 118.177 119.254 118.333 118.366 118.333ZM118.366 116.869C118.758 116.869 119.102 116.813 119.398 116.701C119.694 116.589 119.942 116.421 120.142 116.197C120.342 115.973 120.494 115.701 120.598 115.381C120.702 115.053 120.754 114.681 120.754 114.265V113.893C120.754 113.469 120.702 113.093 120.598 112.765C120.494 112.437 120.342 112.165 120.142 111.949C119.942 111.725 119.694 111.557 119.398 111.445C119.102 111.333 118.758 111.277 118.366 111.277C117.982 111.277 117.642 111.333 117.346 111.445C117.05 111.557 116.802 111.725 116.602 111.949C116.402 112.165 116.25 112.437 116.146 112.765C116.05 113.093 116.002 113.469 116.002 113.893V114.265C116.002 114.681 116.05 115.053 116.146 115.381C116.25 115.701 116.402 115.973 116.602 116.197C116.802 116.421 117.05 116.589 117.346 116.701C117.642 116.813 117.982 116.869 118.366 116.869ZM126.441 118.189V109.957H129.165L130.341 114.169C130.389 114.321 130.437 114.501 130.485 114.709C130.533 114.917 130.581 115.125 130.629 115.333C130.685 115.533 130.729 115.713 130.761 115.873H130.857C130.873 115.737 130.901 115.577 130.941 115.393C130.981 115.201 131.025 114.997 131.073 114.781C131.121 114.565 131.173 114.357 131.229 114.157L132.405 109.957H135.081V118.189H133.317V114.289C133.317 113.929 133.317 113.569 133.317 113.209C133.325 112.841 133.333 112.521 133.341 112.249C133.357 111.977 133.365 111.801 133.365 111.721H133.269C133.253 111.809 133.213 111.973 133.149 112.213C133.093 112.445 133.029 112.693 132.957 112.957C132.893 113.221 132.833 113.449 132.777 113.641L131.493 118.189H129.933L128.637 113.653C128.589 113.485 128.533 113.289 128.469 113.065C128.413 112.833 128.357 112.597 128.301 112.357C128.253 112.109 128.205 111.897 128.157 111.721H128.061C128.069 111.937 128.077 112.197 128.085 112.501C128.093 112.797 128.101 113.105 128.109 113.425C128.117 113.737 128.121 114.025 128.121 114.289V118.189H126.441Z" fill="#222222"/>
<defs>
<clipPath id="clip0_67_685">
<rect width="52.93" height="52.93" fill="white" transform="translate(53 42)"/>
</clipPath>
</defs>
</svg>
