<?xml version="1.0" encoding="utf-8"?>
<svg viewBox="261.913 122.942 56.58 56.046" width="56.58" height="56.046" xmlns="http://www.w3.org/2000/svg">
  <g>
    <ellipse style="stroke: rgb(0, 0, 0); fill: rgb(255, 255, 255); stroke-miterlimit: 1; stroke-width: 0px;" cx="290.203" cy="150.965" rx="28.29" ry="28.023"/>
    <circle cx="290.069" cy="151.366" r="21" fill="#BDAC8D" stroke="white" stroke-width="4"/>
    <path d="M 296.85 149.008 C 296.85 149.264 296.752 149.52 296.557 149.715 L 288.557 157.715 C 288.363 157.911 288.106 158.008 287.85 158.008 C 287.594 158.008 287.338 157.91 287.143 157.715 L 283.143 153.715 C 282.948 153.52 282.85 153.264 282.85 153.008 C 282.85 152.437 283.317 152.008 283.85 152.008 C 284.106 152.008 284.362 152.106 284.557 152.301 L 287.85 155.595 L 295.144 148.302 C 295.338 148.106 295.594 148.008 295.85 148.008 C 296.384 148.008 296.85 148.436 296.85 149.008 Z" fill="white"/>
  </g>
</svg>