<svg width="14" height="17" viewBox="0 0 14 17" fill="none" xmlns="http://www.w3.org/2000/svg">
<path d="M12.1562 7.25543V5.70605C12.1562 2.8629 9.84316 0.549805 7 0.549805C4.15684 0.549805 1.84375 2.8629 1.84375 5.70605V7.25543C1.29816 7.44893 0.90625 7.96996 0.90625 8.58105V10.4561C0.90625 13.8161 3.63991 16.5498 7 16.5498C10.3601 16.5498 13.0938 13.8161 13.0938 10.4561V8.58105C13.0938 7.96996 12.7018 7.44893 12.1562 7.25543ZM7 1.4873C9.32622 1.4873 11.2188 3.37984 11.2188 5.70605V7.1748H10.2812V5.70605C10.2812 3.89677 8.80928 2.4248 7 2.4248C5.19072 2.4248 3.71875 3.89677 3.71875 5.70605V7.1748H2.78125V5.70605C2.78125 3.37984 4.67378 1.4873 7 1.4873ZM4.65625 7.1748V5.70605C4.65625 4.41371 5.70766 3.3623 7 3.3623C8.29234 3.3623 9.34375 4.41371 9.34375 5.70605V7.1748H4.65625ZM12.1562 10.4561C12.1562 13.2992 9.84316 15.6123 7 15.6123C4.15684 15.6123 1.84375 13.2992 1.84375 10.4561V8.58105C1.84375 8.32259 2.05403 8.1123 2.3125 8.1123H11.6875C11.946 8.1123 12.1562 8.32259 12.1562 8.58105V10.4561Z" fill="#BEAD8E"/>
<path d="M7 9.0498C6.22459 9.0498 5.59375 9.68065 5.59375 10.4561C5.59375 11.0671 5.98566 11.5882 6.53125 11.7817V14.2061C6.53125 14.4649 6.74112 14.6748 7 14.6748C7.25888 14.6748 7.46875 14.4649 7.46875 14.2061V11.7817C8.01434 11.5882 8.40625 11.0671 8.40625 10.4561C8.40625 9.68065 7.77541 9.0498 7 9.0498ZM7 10.9248C6.74153 10.9248 6.53125 10.7145 6.53125 10.4561C6.53125 10.1976 6.74153 9.9873 7 9.9873C7.25847 9.9873 7.46875 10.1976 7.46875 10.4561C7.46875 10.7145 7.25847 10.9248 7 10.9248Z" fill="#BEAD8E"/>
</svg>
