<svg width="132" height="72" viewBox="0 0 132 72" fill="none" xmlns="http://www.w3.org/2000/svg">
<path d="M42.8027 20.9219V28.3047C42.8027 31.5078 42.4609 34.2715 41.7773 36.5957C41.0938 38.9004 40.1074 40.7949 38.8184 42.2793C37.5488 43.7441 36.0352 44.8281 34.2773 45.5312C32.5195 46.2344 30.5664 46.5859 28.418 46.5859C26.6992 46.5859 25.0977 46.3711 23.6133 45.9414C22.1289 45.4922 20.791 44.7988 19.5996 43.8613C18.4277 42.9238 17.4121 41.7422 16.5527 40.3164C15.7129 38.8711 15.0684 37.1523 14.6191 35.1602C14.1699 33.168 13.9453 30.8828 13.9453 28.3047V20.9219C13.9453 17.7188 14.2871 14.9746 14.9707 12.6895C15.6738 10.3848 16.6602 8.5 17.9297 7.03516C19.2188 5.57031 20.7422 4.49609 22.5 3.8125C24.2578 3.10938 26.2109 2.75781 28.3594 2.75781C30.0781 2.75781 31.6699 2.98242 33.1348 3.43164C34.6191 3.86133 35.957 4.53516 37.1484 5.45312C38.3398 6.37109 39.3555 7.55273 40.1953 8.99805C41.0352 10.4238 41.6797 12.1328 42.1289 14.125C42.5781 16.0977 42.8027 18.3633 42.8027 20.9219ZM34.3359 29.418V19.7793C34.3359 18.2363 34.248 16.8887 34.0723 15.7363C33.916 14.584 33.6719 13.6074 33.3398 12.8066C33.0078 11.9863 32.5977 11.3223 32.1094 10.8145C31.6211 10.3066 31.0645 9.93555 30.4395 9.70117C29.8145 9.4668 29.1211 9.34961 28.3594 9.34961C27.4023 9.34961 26.5527 9.53516 25.8105 9.90625C25.0879 10.2773 24.4727 10.873 23.9648 11.6934C23.457 12.4941 23.0664 13.5684 22.793 14.916C22.5391 16.2441 22.4121 17.8652 22.4121 19.7793V29.418C22.4121 30.9609 22.4902 32.3184 22.6465 33.4902C22.8223 34.6621 23.0762 35.668 23.4082 36.5078C23.7598 37.3281 24.1699 38.002 24.6387 38.5293C25.127 39.0371 25.6836 39.4082 26.3086 39.6426C26.9531 39.877 27.6562 39.9941 28.418 39.9941C29.3555 39.9941 30.1855 39.8086 30.9082 39.4375C31.6504 39.0469 32.2754 38.4414 32.7832 37.6211C33.3105 36.7812 33.7012 35.6875 33.9551 34.3398C34.209 32.9922 34.3359 31.3516 34.3359 29.418ZM77.7246 39.4082V46H48.5449V40.375L62.3438 25.5801C63.7305 24.0371 64.8242 22.6797 65.625 21.5078C66.4258 20.3164 67.002 19.252 67.3535 18.3145C67.7246 17.3574 67.9102 16.4492 67.9102 15.5898C67.9102 14.3008 67.6953 13.1973 67.2656 12.2793C66.8359 11.3418 66.2012 10.6191 65.3613 10.1113C64.541 9.60352 63.5254 9.34961 62.3145 9.34961C61.0254 9.34961 59.9121 9.66211 58.9746 10.2871C58.0566 10.9121 57.3535 11.7812 56.8652 12.8945C56.3965 14.0078 56.1621 15.2676 56.1621 16.6738H47.6953C47.6953 14.1348 48.3008 11.8105 49.5117 9.70117C50.7227 7.57227 52.4316 5.88281 54.6387 4.63281C56.8457 3.36328 59.4629 2.72852 62.4902 2.72852C65.4785 2.72852 67.998 3.2168 70.0488 4.19336C72.1191 5.15039 73.6816 6.53711 74.7363 8.35352C75.8105 10.1504 76.3477 12.2988 76.3477 14.7988C76.3477 16.2051 76.123 17.582 75.6738 18.9297C75.2246 20.2578 74.5801 21.5859 73.7402 22.9141C72.9199 24.2227 71.9238 25.5508 70.752 26.8984C69.5801 28.2461 68.2812 29.6426 66.8555 31.0879L59.4434 39.4082H77.7246ZM91.7871 0.970703V46H83.3496V0.970703H91.7871ZM111.768 14.3008L97.998 30.0039L90.6152 37.4746L87.5391 31.3809L93.3984 23.9395L101.631 14.3008H111.768ZM103.008 46L93.6328 31.3516L99.4629 26.2539L112.734 46H103.008ZM120.354 39.6641V41.625H112.557V39.6641H120.354ZM117.525 36.5781V44.8594H115.393V36.5781H117.525Z" fill="white"/>
<path d="M7.42969 64.2266H9.76562C9.71875 64.9922 9.50781 65.6719 9.13281 66.2656C8.76302 66.8594 8.24479 67.3229 7.57812 67.6562C6.91667 67.9896 6.11979 68.1562 5.1875 68.1562C4.45833 68.1562 3.80469 68.0312 3.22656 67.7812C2.64844 67.526 2.15365 67.1615 1.74219 66.6875C1.33594 66.2135 1.02604 65.6406 0.8125 64.9688C0.598958 64.2969 0.492188 63.5443 0.492188 62.7109V61.9219C0.492188 61.0885 0.601562 60.3359 0.820312 59.6641C1.04427 58.987 1.36198 58.4115 1.77344 57.9375C2.1901 57.4635 2.6875 57.099 3.26562 56.8438C3.84375 56.5885 4.48958 56.4609 5.20312 56.4609C6.15104 56.4609 6.95052 56.6328 7.60156 56.9766C8.25781 57.3203 8.76562 57.7943 9.125 58.3984C9.48958 59.0026 9.70833 59.6901 9.78125 60.4609H7.4375C7.41146 60.0026 7.32031 59.6146 7.16406 59.2969C7.00781 58.974 6.77083 58.7318 6.45312 58.5703C6.14062 58.4036 5.72396 58.3203 5.20312 58.3203C4.8125 58.3203 4.47135 58.3932 4.17969 58.5391C3.88802 58.6849 3.64323 58.9062 3.44531 59.2031C3.2474 59.5 3.09896 59.875 3 60.3281C2.90625 60.776 2.85938 61.3021 2.85938 61.9062V62.7109C2.85938 63.2995 2.90365 63.8177 2.99219 64.2656C3.08073 64.7083 3.21615 65.0833 3.39844 65.3906C3.58594 65.6927 3.82552 65.9219 4.11719 66.0781C4.41406 66.2292 4.77083 66.3047 5.1875 66.3047C5.67708 66.3047 6.08073 66.2266 6.39844 66.0703C6.71615 65.9141 6.95833 65.6823 7.125 65.375C7.29688 65.0677 7.39844 64.6849 7.42969 64.2266ZM15.7266 66.0938V62.3281C15.7266 62.0573 15.6823 61.8255 15.5938 61.6328C15.5052 61.4349 15.3672 61.2812 15.1797 61.1719C14.9974 61.0625 14.7604 61.0078 14.4688 61.0078C14.2188 61.0078 14.0026 61.0521 13.8203 61.1406C13.638 61.224 13.4974 61.3464 13.3984 61.5078C13.2995 61.6641 13.25 61.849 13.25 62.0625H11C11 61.7031 11.0833 61.362 11.25 61.0391C11.4167 60.7161 11.6589 60.4323 11.9766 60.1875C12.2943 59.9375 12.6719 59.7422 13.1094 59.6016C13.5521 59.4609 14.0469 59.3906 14.5938 59.3906C15.25 59.3906 15.8333 59.5 16.3438 59.7188C16.8542 59.9375 17.2552 60.2656 17.5469 60.7031C17.8438 61.1406 17.9922 61.6875 17.9922 62.3438V65.9609C17.9922 66.4245 18.0208 66.8047 18.0781 67.1016C18.1354 67.3932 18.2188 67.6484 18.3281 67.8672V68H16.0547C15.9453 67.7708 15.862 67.4844 15.8047 67.1406C15.7526 66.7917 15.7266 66.4427 15.7266 66.0938ZM16.0234 62.8516L16.0391 64.125H14.7812C14.4844 64.125 14.2266 64.1589 14.0078 64.2266C13.7891 64.2943 13.6094 64.3906 13.4688 64.5156C13.3281 64.6354 13.224 64.776 13.1562 64.9375C13.0938 65.099 13.0625 65.276 13.0625 65.4688C13.0625 65.6615 13.1068 65.8359 13.1953 65.9922C13.2839 66.1432 13.4115 66.263 13.5781 66.3516C13.7448 66.4349 13.9401 66.4766 14.1641 66.4766C14.5026 66.4766 14.7969 66.4089 15.0469 66.2734C15.2969 66.138 15.4896 65.9714 15.625 65.7734C15.7656 65.5755 15.8385 65.388 15.8438 65.2109L16.4375 66.1641C16.3542 66.3776 16.2396 66.599 16.0938 66.8281C15.9531 67.0573 15.7734 67.2734 15.5547 67.4766C15.3359 67.6745 15.0729 67.8385 14.7656 67.9688C14.4583 68.0938 14.0938 68.1562 13.6719 68.1562C13.1354 68.1562 12.6484 68.0495 12.2109 67.8359C11.7786 67.6172 11.4349 67.3177 11.1797 66.9375C10.9297 66.5521 10.8047 66.1146 10.8047 65.625C10.8047 65.1823 10.888 64.7891 11.0547 64.4453C11.2214 64.1016 11.4661 63.8125 11.7891 63.5781C12.1172 63.3385 12.526 63.1589 13.0156 63.0391C13.5052 62.9141 14.0729 62.8516 14.7188 62.8516H16.0234ZM23.8672 59.5469V61.1406H18.9453V59.5469H23.8672ZM20.1641 57.4609H22.4141V65.4531C22.4141 65.6979 22.4453 65.8854 22.5078 66.0156C22.5755 66.1458 22.6745 66.237 22.8047 66.2891C22.9349 66.3359 23.099 66.3594 23.2969 66.3594C23.4375 66.3594 23.5625 66.3542 23.6719 66.3438C23.7865 66.3281 23.8828 66.3125 23.9609 66.2969L23.9688 67.9531C23.776 68.0156 23.5677 68.0651 23.3438 68.1016C23.1198 68.138 22.8724 68.1562 22.6016 68.1562C22.1068 68.1562 21.6745 68.0755 21.3047 67.9141C20.9401 67.7474 20.6589 67.4818 20.4609 67.1172C20.263 66.7526 20.1641 66.2734 20.1641 65.6797V57.4609ZM29.0391 68.1562C28.3828 68.1562 27.7943 68.0521 27.2734 67.8438C26.7526 67.6302 26.3099 67.3359 25.9453 66.9609C25.5859 66.5859 25.3099 66.151 25.1172 65.6562C24.9245 65.1562 24.8281 64.625 24.8281 64.0625V63.75C24.8281 63.1094 24.9193 62.5234 25.1016 61.9922C25.2839 61.4609 25.5443 61 25.8828 60.6094C26.2266 60.2188 26.6432 59.9193 27.1328 59.7109C27.6224 59.4974 28.1745 59.3906 28.7891 59.3906C29.388 59.3906 29.9193 59.4896 30.3828 59.6875C30.8464 59.8854 31.2344 60.1667 31.5469 60.5312C31.8646 60.8958 32.1042 61.3333 32.2656 61.8438C32.4271 62.349 32.5078 62.9115 32.5078 63.5312V64.4688H25.7891V62.9688H30.2969V62.7969C30.2969 62.4844 30.2396 62.2057 30.125 61.9609C30.0156 61.7109 29.849 61.513 29.625 61.3672C29.401 61.2214 29.1146 61.1484 28.7656 61.1484C28.4688 61.1484 28.2135 61.2135 28 61.3438C27.7865 61.474 27.612 61.6562 27.4766 61.8906C27.3464 62.125 27.2474 62.401 27.1797 62.7188C27.1172 63.0312 27.0859 63.375 27.0859 63.75V64.0625C27.0859 64.401 27.1328 64.7135 27.2266 65C27.3255 65.2865 27.4635 65.5339 27.6406 65.7422C27.8229 65.9505 28.0417 66.112 28.2969 66.2266C28.5573 66.3411 28.8516 66.3984 29.1797 66.3984C29.5859 66.3984 29.9635 66.3203 30.3125 66.1641C30.6667 66.0026 30.9714 65.7604 31.2266 65.4375L32.3203 66.625C32.1432 66.8802 31.901 67.125 31.5938 67.3594C31.2917 67.5938 30.9271 67.7865 30.5 67.9375C30.0729 68.0833 29.5859 68.1562 29.0391 68.1562ZM39.1406 59.5469H41.1797V67.7188C41.1797 68.4896 41.0078 69.1432 40.6641 69.6797C40.3255 70.2214 39.8516 70.6302 39.2422 70.9062C38.6328 71.1875 37.9245 71.3281 37.1172 71.3281C36.763 71.3281 36.388 71.2812 35.9922 71.1875C35.6016 71.0938 35.2266 70.9479 34.8672 70.75C34.513 70.5521 34.2161 70.3021 33.9766 70L34.9688 68.6719C35.2292 68.974 35.5312 69.2083 35.875 69.375C36.2188 69.5469 36.599 69.6328 37.0156 69.6328C37.4219 69.6328 37.7656 69.5573 38.0469 69.4062C38.3281 69.2604 38.5443 69.0443 38.6953 68.7578C38.8464 68.4766 38.9219 68.1354 38.9219 67.7344V61.5L39.1406 59.5469ZM33.4531 63.875V63.7109C33.4531 63.0651 33.5312 62.4792 33.6875 61.9531C33.849 61.4219 34.0755 60.9661 34.3672 60.5859C34.6641 60.2057 35.0234 59.9115 35.4453 59.7031C35.8672 59.4948 36.3438 59.3906 36.875 59.3906C37.4375 59.3906 37.9089 59.4948 38.2891 59.7031C38.6693 59.9115 38.9818 60.2083 39.2266 60.5938C39.4714 60.974 39.6615 61.4245 39.7969 61.9453C39.9375 62.4609 40.0469 63.026 40.125 63.6406V64C40.0469 64.5885 39.9297 65.1354 39.7734 65.6406C39.6172 66.1458 39.4115 66.5885 39.1562 66.9688C38.901 67.3438 38.5833 67.6354 38.2031 67.8438C37.8281 68.0521 37.3802 68.1562 36.8594 68.1562C36.3385 68.1562 35.8672 68.0495 35.4453 67.8359C35.0286 67.6224 34.6719 67.3229 34.375 66.9375C34.0781 66.5521 33.849 66.099 33.6875 65.5781C33.5312 65.0573 33.4531 64.4896 33.4531 63.875ZM35.7031 63.7109V63.875C35.7031 64.224 35.737 64.5495 35.8047 64.8516C35.8724 65.1536 35.9766 65.4219 36.1172 65.6562C36.263 65.8854 36.4427 66.0651 36.6562 66.1953C36.875 66.3203 37.1328 66.3828 37.4297 66.3828C37.8411 66.3828 38.1771 66.2969 38.4375 66.125C38.6979 65.9479 38.8932 65.7057 39.0234 65.3984C39.1536 65.0911 39.2292 64.737 39.25 64.3359V63.3125C39.2396 62.9844 39.1953 62.6901 39.1172 62.4297C39.0391 62.1641 38.9297 61.9375 38.7891 61.75C38.6484 61.5625 38.4661 61.4167 38.2422 61.3125C38.0182 61.2083 37.7526 61.1562 37.4453 61.1562C37.1484 61.1562 36.8906 61.224 36.6719 61.3594C36.4583 61.4896 36.2786 61.6693 36.1328 61.8984C35.9922 62.1276 35.8854 62.3984 35.8125 62.7109C35.7396 63.0182 35.7031 63.3516 35.7031 63.7109ZM42.5703 63.8594V63.6953C42.5703 63.0755 42.6589 62.5052 42.8359 61.9844C43.013 61.4583 43.2708 61.0026 43.6094 60.6172C43.9479 60.2318 44.3646 59.9323 44.8594 59.7188C45.3542 59.5 45.9219 59.3906 46.5625 59.3906C47.2031 59.3906 47.7734 59.5 48.2734 59.7188C48.7734 59.9323 49.1927 60.2318 49.5312 60.6172C49.875 61.0026 50.1354 61.4583 50.3125 61.9844C50.4896 62.5052 50.5781 63.0755 50.5781 63.6953V63.8594C50.5781 64.474 50.4896 65.0443 50.3125 65.5703C50.1354 66.0911 49.875 66.5469 49.5312 66.9375C49.1927 67.3229 48.776 67.6224 48.2812 67.8359C47.7865 68.0495 47.2188 68.1562 46.5781 68.1562C45.9375 68.1562 45.3672 68.0495 44.8672 67.8359C44.3724 67.6224 43.9531 67.3229 43.6094 66.9375C43.2708 66.5469 43.013 66.0911 42.8359 65.5703C42.6589 65.0443 42.5703 64.474 42.5703 63.8594ZM44.8203 63.6953V63.8594C44.8203 64.2135 44.8516 64.5443 44.9141 64.8516C44.9766 65.1589 45.0755 65.4297 45.2109 65.6641C45.3516 65.8932 45.5339 66.0729 45.7578 66.2031C45.9818 66.3333 46.2552 66.3984 46.5781 66.3984C46.8906 66.3984 47.1589 66.3333 47.3828 66.2031C47.6068 66.0729 47.7865 65.8932 47.9219 65.6641C48.0573 65.4297 48.1562 65.1589 48.2188 64.8516C48.2865 64.5443 48.3203 64.2135 48.3203 63.8594V63.6953C48.3203 63.3516 48.2865 63.0286 48.2188 62.7266C48.1562 62.4193 48.0547 62.1484 47.9141 61.9141C47.7786 61.6745 47.599 61.487 47.375 61.3516C47.151 61.2161 46.8802 61.1484 46.5625 61.1484C46.2448 61.1484 45.974 61.2161 45.75 61.3516C45.5312 61.487 45.3516 61.6745 45.2109 61.9141C45.0755 62.1484 44.9766 62.4193 44.9141 62.7266C44.8516 63.0286 44.8203 63.3516 44.8203 63.6953ZM54.2109 61.3906V68H51.9609V59.5469H54.0781L54.2109 61.3906ZM56.7578 59.4922L56.7188 61.5781C56.6094 61.5625 56.4766 61.5495 56.3203 61.5391C56.1693 61.5234 56.0312 61.5156 55.9062 61.5156C55.5885 61.5156 55.3125 61.5573 55.0781 61.6406C54.849 61.7188 54.6562 61.8359 54.5 61.9922C54.349 62.1484 54.2344 62.3385 54.1562 62.5625C54.0833 62.7865 54.0417 63.0417 54.0312 63.3281L53.5781 63.1875C53.5781 62.6406 53.6328 62.138 53.7422 61.6797C53.8516 61.2161 54.0104 60.8125 54.2188 60.4688C54.4323 60.125 54.6927 59.8594 55 59.6719C55.3073 59.4844 55.6589 59.3906 56.0547 59.3906C56.1797 59.3906 56.3073 59.401 56.4375 59.4219C56.5677 59.4375 56.6745 59.4609 56.7578 59.4922ZM60.1953 59.5469V68H57.9375V59.5469H60.1953ZM57.7969 57.3438C57.7969 57.0156 57.9115 56.7448 58.1406 56.5312C58.3698 56.3177 58.6771 56.2109 59.0625 56.2109C59.4427 56.2109 59.7474 56.3177 59.9766 56.5312C60.2109 56.7448 60.3281 57.0156 60.3281 57.3438C60.3281 57.6719 60.2109 57.9427 59.9766 58.1562C59.7474 58.3698 59.4427 58.4766 59.0625 58.4766C58.6771 58.4766 58.3698 58.3698 58.1406 58.1562C57.9115 57.9427 57.7969 57.6719 57.7969 57.3438ZM65.9453 68.1562C65.2891 68.1562 64.7005 68.0521 64.1797 67.8438C63.6589 67.6302 63.2161 67.3359 62.8516 66.9609C62.4922 66.5859 62.2161 66.151 62.0234 65.6562C61.8307 65.1562 61.7344 64.625 61.7344 64.0625V63.75C61.7344 63.1094 61.8255 62.5234 62.0078 61.9922C62.1901 61.4609 62.4505 61 62.7891 60.6094C63.1328 60.2188 63.5495 59.9193 64.0391 59.7109C64.5286 59.4974 65.0807 59.3906 65.6953 59.3906C66.2943 59.3906 66.8255 59.4896 67.2891 59.6875C67.7526 59.8854 68.1406 60.1667 68.4531 60.5312C68.7708 60.8958 69.0104 61.3333 69.1719 61.8438C69.3333 62.349 69.4141 62.9115 69.4141 63.5312V64.4688H62.6953V62.9688H67.2031V62.7969C67.2031 62.4844 67.1458 62.2057 67.0312 61.9609C66.9219 61.7109 66.7552 61.513 66.5312 61.3672C66.3073 61.2214 66.0208 61.1484 65.6719 61.1484C65.375 61.1484 65.1198 61.2135 64.9062 61.3438C64.6927 61.474 64.5182 61.6562 64.3828 61.8906C64.2526 62.125 64.1536 62.401 64.0859 62.7188C64.0234 63.0312 63.9922 63.375 63.9922 63.75V64.0625C63.9922 64.401 64.0391 64.7135 64.1328 65C64.2318 65.2865 64.3698 65.5339 64.5469 65.7422C64.7292 65.9505 64.9479 66.112 65.2031 66.2266C65.4635 66.3411 65.7578 66.3984 66.0859 66.3984C66.4922 66.3984 66.8698 66.3203 67.2188 66.1641C67.5729 66.0026 67.8776 65.7604 68.1328 65.4375L69.2266 66.625C69.0495 66.8802 68.8073 67.125 68.5 67.3594C68.1979 67.5938 67.8333 67.7865 67.4062 67.9375C66.9792 68.0833 66.4922 68.1562 65.9453 68.1562ZM75.2656 65.6641C75.2656 65.5026 75.2188 65.3568 75.125 65.2266C75.0312 65.0964 74.8568 64.9766 74.6016 64.8672C74.3516 64.7526 73.9896 64.6484 73.5156 64.5547C73.0885 64.4609 72.6901 64.3438 72.3203 64.2031C71.9557 64.0573 71.638 63.8828 71.3672 63.6797C71.1016 63.4766 70.8932 63.237 70.7422 62.9609C70.5911 62.6797 70.5156 62.3594 70.5156 62C70.5156 61.6458 70.5911 61.3125 70.7422 61C70.8984 60.6875 71.1198 60.4115 71.4062 60.1719C71.6979 59.9271 72.0521 59.737 72.4688 59.6016C72.8906 59.4609 73.3646 59.3906 73.8906 59.3906C74.625 59.3906 75.2552 59.5078 75.7812 59.7422C76.3125 59.9766 76.7188 60.2995 77 60.7109C77.2865 61.1172 77.4297 61.5807 77.4297 62.1016H75.1797C75.1797 61.8828 75.1328 61.6875 75.0391 61.5156C74.9505 61.3385 74.8099 61.2005 74.6172 61.1016C74.4297 60.9974 74.1849 60.9453 73.8828 60.9453C73.6328 60.9453 73.4167 60.9896 73.2344 61.0781C73.0521 61.1615 72.9115 61.276 72.8125 61.4219C72.7188 61.5625 72.6719 61.7188 72.6719 61.8906C72.6719 62.0208 72.6979 62.138 72.75 62.2422C72.8073 62.3411 72.8984 62.4323 73.0234 62.5156C73.1484 62.599 73.3099 62.6771 73.5078 62.75C73.7109 62.8177 73.9609 62.8802 74.2578 62.9375C74.8672 63.0625 75.4115 63.2266 75.8906 63.4297C76.3698 63.6276 76.75 63.8984 77.0312 64.2422C77.3125 64.5807 77.4531 65.026 77.4531 65.5781C77.4531 65.9531 77.3698 66.2969 77.2031 66.6094C77.0365 66.9219 76.7969 67.1953 76.4844 67.4297C76.1719 67.6589 75.7969 67.8385 75.3594 67.9688C74.9271 68.0938 74.4401 68.1562 73.8984 68.1562C73.112 68.1562 72.4453 68.0156 71.8984 67.7344C71.3568 67.4531 70.9453 67.0964 70.6641 66.6641C70.388 66.2266 70.25 65.7786 70.25 65.3203H72.3828C72.3932 65.6276 72.4714 65.875 72.6172 66.0625C72.7682 66.25 72.9583 66.3854 73.1875 66.4688C73.4219 66.5521 73.6745 66.5938 73.9453 66.5938C74.237 66.5938 74.4792 66.5547 74.6719 66.4766C74.8646 66.3932 75.0104 66.2839 75.1094 66.1484C75.2135 66.0078 75.2656 65.8464 75.2656 65.6641ZM88.9609 65.0234C88.9609 64.8203 88.9297 64.638 88.8672 64.4766C88.8099 64.3099 88.7005 64.1589 88.5391 64.0234C88.3776 63.8828 88.151 63.7448 87.8594 63.6094C87.5677 63.474 87.1901 63.3333 86.7266 63.1875C86.2109 63.0208 85.7214 62.8333 85.2578 62.625C84.7995 62.4167 84.3932 62.1745 84.0391 61.8984C83.6901 61.6172 83.4141 61.2917 83.2109 60.9219C83.013 60.5521 82.9141 60.1224 82.9141 59.6328C82.9141 59.1589 83.0182 58.7292 83.2266 58.3438C83.4349 57.9531 83.7266 57.6198 84.1016 57.3438C84.4766 57.0625 84.9193 56.8464 85.4297 56.6953C85.9453 56.5443 86.5104 56.4688 87.125 56.4688C87.9635 56.4688 88.6953 56.6198 89.3203 56.9219C89.9453 57.224 90.4297 57.638 90.7734 58.1641C91.1224 58.6901 91.2969 59.2917 91.2969 59.9688H88.9688C88.9688 59.6354 88.8984 59.3438 88.7578 59.0938C88.6224 58.8385 88.4141 58.638 88.1328 58.4922C87.8568 58.3464 87.5078 58.2734 87.0859 58.2734C86.6797 58.2734 86.3411 58.3359 86.0703 58.4609C85.7995 58.5807 85.5964 58.7448 85.4609 58.9531C85.3255 59.1562 85.2578 59.3854 85.2578 59.6406C85.2578 59.8333 85.3047 60.0078 85.3984 60.1641C85.4974 60.3203 85.6432 60.4661 85.8359 60.6016C86.0286 60.737 86.2656 60.8646 86.5469 60.9844C86.8281 61.1042 87.1536 61.2214 87.5234 61.3359C88.1432 61.5234 88.6875 61.7344 89.1562 61.9688C89.6302 62.2031 90.026 62.4661 90.3438 62.7578C90.6615 63.0495 90.901 63.3802 91.0625 63.75C91.224 64.1198 91.3047 64.5391 91.3047 65.0078C91.3047 65.5026 91.2083 65.9453 91.0156 66.3359C90.8229 66.7266 90.5443 67.0573 90.1797 67.3281C89.8151 67.599 89.3802 67.8047 88.875 67.9453C88.3698 68.0859 87.8047 68.1562 87.1797 68.1562C86.6172 68.1562 86.0625 68.0833 85.5156 67.9375C84.9688 67.7865 84.4714 67.5599 84.0234 67.2578C83.5807 66.9557 83.2266 66.5703 82.9609 66.1016C82.6953 65.6328 82.5625 65.0781 82.5625 64.4375H84.9141C84.9141 64.7917 84.9688 65.0911 85.0781 65.3359C85.1875 65.5807 85.3411 65.7786 85.5391 65.9297C85.7422 66.0807 85.9818 66.1901 86.2578 66.2578C86.5391 66.3255 86.8464 66.3594 87.1797 66.3594C87.5859 66.3594 87.9193 66.3021 88.1797 66.1875C88.4453 66.0729 88.6406 65.9141 88.7656 65.7109C88.8958 65.5078 88.9609 65.2786 88.9609 65.0234ZM96.6484 68.1562C95.9922 68.1562 95.4036 68.0521 94.8828 67.8438C94.362 67.6302 93.9193 67.3359 93.5547 66.9609C93.1953 66.5859 92.9193 66.151 92.7266 65.6562C92.5339 65.1562 92.4375 64.625 92.4375 64.0625V63.75C92.4375 63.1094 92.5286 62.5234 92.7109 61.9922C92.8932 61.4609 93.1536 61 93.4922 60.6094C93.8359 60.2188 94.2526 59.9193 94.7422 59.7109C95.2318 59.4974 95.7839 59.3906 96.3984 59.3906C96.9974 59.3906 97.5286 59.4896 97.9922 59.6875C98.4557 59.8854 98.8438 60.1667 99.1562 60.5312C99.474 60.8958 99.7135 61.3333 99.875 61.8438C100.036 62.349 100.117 62.9115 100.117 63.5312V64.4688H93.3984V62.9688H97.9062V62.7969C97.9062 62.4844 97.849 62.2057 97.7344 61.9609C97.625 61.7109 97.4583 61.513 97.2344 61.3672C97.0104 61.2214 96.724 61.1484 96.375 61.1484C96.0781 61.1484 95.8229 61.2135 95.6094 61.3438C95.3958 61.474 95.2214 61.6562 95.0859 61.8906C94.9557 62.125 94.8568 62.401 94.7891 62.7188C94.7266 63.0312 94.6953 63.375 94.6953 63.75V64.0625C94.6953 64.401 94.7422 64.7135 94.8359 65C94.9349 65.2865 95.0729 65.5339 95.25 65.7422C95.4323 65.9505 95.651 66.112 95.9062 66.2266C96.1667 66.3411 96.4609 66.3984 96.7891 66.3984C97.1953 66.3984 97.5729 66.3203 97.9219 66.1641C98.276 66.0026 98.5807 65.7604 98.8359 65.4375L99.9297 66.625C99.7526 66.8802 99.5104 67.125 99.2031 67.3594C98.901 67.5938 98.5365 67.7865 98.1094 67.9375C97.6823 68.0833 97.1953 68.1562 96.6484 68.1562ZM103.648 61.3906V68H101.398V59.5469H103.516L103.648 61.3906ZM106.195 59.4922L106.156 61.5781C106.047 61.5625 105.914 61.5495 105.758 61.5391C105.607 61.5234 105.469 61.5156 105.344 61.5156C105.026 61.5156 104.75 61.5573 104.516 61.6406C104.286 61.7188 104.094 61.8359 103.938 61.9922C103.786 62.1484 103.672 62.3385 103.594 62.5625C103.521 62.7865 103.479 63.0417 103.469 63.3281L103.016 63.1875C103.016 62.6406 103.07 62.138 103.18 61.6797C103.289 61.2161 103.448 60.8125 103.656 60.4688C103.87 60.125 104.13 59.8594 104.438 59.6719C104.745 59.4844 105.096 59.3906 105.492 59.3906C105.617 59.3906 105.745 59.401 105.875 59.4219C106.005 59.4375 106.112 59.4609 106.195 59.4922ZM110.273 66.3594L112.148 59.5469H114.5L111.648 68H110.227L110.273 66.3594ZM108.984 59.5469L110.867 66.3672L110.906 68H109.477L106.625 59.5469H108.984ZM119.289 68.1562C118.633 68.1562 118.044 68.0521 117.523 67.8438C117.003 67.6302 116.56 67.3359 116.195 66.9609C115.836 66.5859 115.56 66.151 115.367 65.6562C115.174 65.1562 115.078 64.625 115.078 64.0625V63.75C115.078 63.1094 115.169 62.5234 115.352 61.9922C115.534 61.4609 115.794 61 116.133 60.6094C116.477 60.2188 116.893 59.9193 117.383 59.7109C117.872 59.4974 118.424 59.3906 119.039 59.3906C119.638 59.3906 120.169 59.4896 120.633 59.6875C121.096 59.8854 121.484 60.1667 121.797 60.5312C122.115 60.8958 122.354 61.3333 122.516 61.8438C122.677 62.349 122.758 62.9115 122.758 63.5312V64.4688H116.039V62.9688H120.547V62.7969C120.547 62.4844 120.49 62.2057 120.375 61.9609C120.266 61.7109 120.099 61.513 119.875 61.3672C119.651 61.2214 119.365 61.1484 119.016 61.1484C118.719 61.1484 118.464 61.2135 118.25 61.3438C118.036 61.474 117.862 61.6562 117.727 61.8906C117.596 62.125 117.497 62.401 117.43 62.7188C117.367 63.0312 117.336 63.375 117.336 63.75V64.0625C117.336 64.401 117.383 64.7135 117.477 65C117.576 65.2865 117.714 65.5339 117.891 65.7422C118.073 65.9505 118.292 66.112 118.547 66.2266C118.807 66.3411 119.102 66.3984 119.43 66.3984C119.836 66.3984 120.214 66.3203 120.562 66.1641C120.917 66.0026 121.221 65.7604 121.477 65.4375L122.57 66.625C122.393 66.8802 122.151 67.125 121.844 67.3594C121.542 67.5938 121.177 67.7865 120.75 67.9375C120.323 68.0833 119.836 68.1562 119.289 68.1562ZM129.031 66.1562V56H131.297V68H129.258L129.031 66.1562ZM123.688 63.875V63.7109C123.688 63.0651 123.76 62.4792 123.906 61.9531C124.052 61.4219 124.266 60.9661 124.547 60.5859C124.828 60.2057 125.174 59.9115 125.586 59.7031C125.997 59.4948 126.466 59.3906 126.992 59.3906C127.487 59.3906 127.919 59.4948 128.289 59.7031C128.664 59.9115 128.982 60.2083 129.242 60.5938C129.508 60.974 129.721 61.4245 129.883 61.9453C130.044 62.4609 130.161 63.026 130.234 63.6406V64C130.161 64.5885 130.044 65.1354 129.883 65.6406C129.721 66.1458 129.508 66.5885 129.242 66.9688C128.982 67.3438 128.664 67.6354 128.289 67.8438C127.914 68.0521 127.477 68.1562 126.977 68.1562C126.451 68.1562 125.982 68.0495 125.57 67.8359C125.164 67.6224 124.82 67.3229 124.539 66.9375C124.263 66.5521 124.052 66.099 123.906 65.5781C123.76 65.0573 123.688 64.4896 123.688 63.875ZM125.938 63.7109V63.875C125.938 64.224 125.964 64.5495 126.016 64.8516C126.073 65.1536 126.164 65.4219 126.289 65.6562C126.419 65.8854 126.586 66.0651 126.789 66.1953C126.997 66.3203 127.25 66.3828 127.547 66.3828C127.932 66.3828 128.25 66.2969 128.5 66.125C128.75 65.9479 128.94 65.7057 129.07 65.3984C129.206 65.0911 129.284 64.737 129.305 64.3359V63.3125C129.289 62.9844 129.242 62.6901 129.164 62.4297C129.091 62.1641 128.982 61.9375 128.836 61.75C128.695 61.5625 128.518 61.4167 128.305 61.3125C128.096 61.2083 127.849 61.1562 127.562 61.1562C127.271 61.1562 127.021 61.224 126.812 61.3594C126.604 61.4896 126.435 61.6693 126.305 61.8984C126.18 62.1276 126.086 62.3984 126.023 62.7109C125.966 63.0182 125.938 63.3516 125.938 63.7109Z" fill="#999999"/>
</svg>
