<svg width="160" height="67" viewBox="0 0 160 67" fill="none" xmlns="http://www.w3.org/2000/svg">
<path d="M19.1777 1.25586V44H10.7402V10.9824L0.603516 14.2051V7.55469L18.2695 1.25586H19.1777ZM61.7754 18.9219V26.3047C61.7754 29.5078 61.4336 32.2715 60.75 34.5957C60.0664 36.9004 59.0801 38.7949 57.791 40.2793C56.5215 41.7441 55.0078 42.8281 53.25 43.5312C51.4922 44.2344 49.5391 44.5859 47.3906 44.5859C45.6719 44.5859 44.0703 44.3711 42.5859 43.9414C41.1016 43.4922 39.7637 42.7988 38.5723 41.8613C37.4004 40.9238 36.3848 39.7422 35.5254 38.3164C34.6855 36.8711 34.041 35.1523 33.5918 33.1602C33.1426 31.168 32.918 28.8828 32.918 26.3047V18.9219C32.918 15.7188 33.2598 12.9746 33.9434 10.6895C34.6465 8.38477 35.6328 6.5 36.9023 5.03516C38.1914 3.57031 39.7148 2.49609 41.4727 1.8125C43.2305 1.10938 45.1836 0.757812 47.332 0.757812C49.0508 0.757812 50.6426 0.982422 52.1074 1.43164C53.5918 1.86133 54.9297 2.53516 56.1211 3.45312C57.3125 4.37109 58.3281 5.55273 59.168 6.99805C60.0078 8.42383 60.6523 10.1328 61.1016 12.125C61.5508 14.0977 61.7754 16.3633 61.7754 18.9219ZM53.3086 27.418V17.7793C53.3086 16.2363 53.2207 14.8887 53.0449 13.7363C52.8887 12.584 52.6445 11.6074 52.3125 10.8066C51.9805 9.98633 51.5703 9.32227 51.082 8.81445C50.5938 8.30664 50.0371 7.93555 49.4121 7.70117C48.7871 7.4668 48.0938 7.34961 47.332 7.34961C46.375 7.34961 45.5254 7.53516 44.7832 7.90625C44.0605 8.27734 43.4453 8.87305 42.9375 9.69336C42.4297 10.4941 42.0391 11.5684 41.7656 12.916C41.5117 14.2441 41.3848 15.8652 41.3848 17.7793V27.418C41.3848 28.9609 41.4629 30.3184 41.6191 31.4902C41.7949 32.6621 42.0488 33.668 42.3809 34.5078C42.7324 35.3281 43.1426 36.002 43.6113 36.5293C44.0996 37.0371 44.6562 37.4082 45.2812 37.6426C45.9258 37.877 46.6289 37.9941 47.3906 37.9941C48.3281 37.9941 49.1582 37.8086 49.8809 37.4375C50.623 37.0469 51.248 36.4414 51.7559 35.6211C52.2832 34.7812 52.6738 33.6875 52.9277 32.3398C53.1816 30.9922 53.3086 29.3516 53.3086 27.418ZM96.2285 18.9219V26.3047C96.2285 29.5078 95.8867 32.2715 95.2031 34.5957C94.5195 36.9004 93.5332 38.7949 92.2441 40.2793C90.9746 41.7441 89.4609 42.8281 87.7031 43.5312C85.9453 44.2344 83.9922 44.5859 81.8438 44.5859C80.125 44.5859 78.5234 44.3711 77.0391 43.9414C75.5547 43.4922 74.2168 42.7988 73.0254 41.8613C71.8535 40.9238 70.8379 39.7422 69.9785 38.3164C69.1387 36.8711 68.4941 35.1523 68.0449 33.1602C67.5957 31.168 67.3711 28.8828 67.3711 26.3047V18.9219C67.3711 15.7188 67.7129 12.9746 68.3965 10.6895C69.0996 8.38477 70.0859 6.5 71.3555 5.03516C72.6445 3.57031 74.168 2.49609 75.9258 1.8125C77.6836 1.10938 79.6367 0.757812 81.7852 0.757812C83.5039 0.757812 85.0957 0.982422 86.5605 1.43164C88.0449 1.86133 89.3828 2.53516 90.5742 3.45312C91.7656 4.37109 92.7812 5.55273 93.6211 6.99805C94.4609 8.42383 95.1055 10.1328 95.5547 12.125C96.0039 14.0977 96.2285 16.3633 96.2285 18.9219ZM87.7617 27.418V17.7793C87.7617 16.2363 87.6738 14.8887 87.498 13.7363C87.3418 12.584 87.0977 11.6074 86.7656 10.8066C86.4336 9.98633 86.0234 9.32227 85.5352 8.81445C85.0469 8.30664 84.4902 7.93555 83.8652 7.70117C83.2402 7.4668 82.5469 7.34961 81.7852 7.34961C80.8281 7.34961 79.9785 7.53516 79.2363 7.90625C78.5137 8.27734 77.8984 8.87305 77.3906 9.69336C76.8828 10.4941 76.4922 11.5684 76.2188 12.916C75.9648 14.2441 75.8379 15.8652 75.8379 17.7793V27.418C75.8379 28.9609 75.916 30.3184 76.0723 31.4902C76.248 32.6621 76.502 33.668 76.834 34.5078C77.1855 35.3281 77.5957 36.002 78.0645 36.5293C78.5527 37.0371 79.1094 37.4082 79.7344 37.6426C80.3789 37.877 81.082 37.9941 81.8438 37.9941C82.7812 37.9941 83.6113 37.8086 84.334 37.4375C85.0762 37.0469 85.7012 36.4414 86.209 35.6211C86.7363 34.7812 87.127 33.6875 87.3809 32.3398C87.6348 30.9922 87.7617 29.3516 87.7617 27.418ZM106.863 1.34375H114.305L125.262 32.6621L136.219 1.34375H143.66L128.25 44H122.273L106.863 1.34375ZM102.85 1.34375H110.262L111.609 31.8711V44H102.85V1.34375ZM140.262 1.34375H147.703V44H138.914V31.8711L140.262 1.34375ZM159.834 37.6641V39.625H152.037V37.6641H159.834ZM157.006 34.5781V42.8594H154.873V34.5781H157.006Z" fill="white"/>
<path d="M15.7188 54.625V66H13.3828V54.625H15.7188ZM22.7656 64.1562V54H25.0312V66H22.9922L22.7656 64.1562ZM17.4219 61.875V61.7109C17.4219 61.0651 17.4948 60.4792 17.6406 59.9531C17.7865 59.4219 18 58.9661 18.2812 58.5859C18.5625 58.2057 18.9089 57.9115 19.3203 57.7031C19.7318 57.4948 20.2005 57.3906 20.7266 57.3906C21.2214 57.3906 21.6536 57.4948 22.0234 57.7031C22.3984 57.9115 22.7161 58.2083 22.9766 58.5938C23.2422 58.974 23.4557 59.4245 23.6172 59.9453C23.7786 60.4609 23.8958 61.026 23.9688 61.6406V62C23.8958 62.5885 23.7786 63.1354 23.6172 63.6406C23.4557 64.1458 23.2422 64.5885 22.9766 64.9688C22.7161 65.3438 22.3984 65.6354 22.0234 65.8438C21.6484 66.0521 21.2109 66.1562 20.7109 66.1562C20.1849 66.1562 19.7161 66.0495 19.3047 65.8359C18.8984 65.6224 18.5547 65.3229 18.2734 64.9375C17.9974 64.5521 17.7865 64.099 17.6406 63.5781C17.4948 63.0573 17.4219 62.4896 17.4219 61.875ZM19.6719 61.7109V61.875C19.6719 62.224 19.6979 62.5495 19.75 62.8516C19.8073 63.1536 19.8984 63.4219 20.0234 63.6562C20.1536 63.8854 20.3203 64.0651 20.5234 64.1953C20.7318 64.3203 20.9844 64.3828 21.2812 64.3828C21.6667 64.3828 21.9844 64.2969 22.2344 64.125C22.4844 63.9479 22.6745 63.7057 22.8047 63.3984C22.9401 63.0911 23.0182 62.737 23.0391 62.3359V61.3125C23.0234 60.9844 22.9766 60.6901 22.8984 60.4297C22.8255 60.1641 22.7161 59.9375 22.5703 59.75C22.4297 59.5625 22.2526 59.4167 22.0391 59.3125C21.8307 59.2083 21.5833 59.1562 21.2969 59.1562C21.0052 59.1562 20.7552 59.224 20.5469 59.3594C20.3385 59.4896 20.1693 59.6693 20.0391 59.8984C19.9141 60.1276 19.8203 60.3984 19.7578 60.7109C19.7005 61.0182 19.6719 61.3516 19.6719 61.7109ZM30.6797 66.1562C30.0234 66.1562 29.4349 66.0521 28.9141 65.8438C28.3932 65.6302 27.9505 65.3359 27.5859 64.9609C27.2266 64.5859 26.9505 64.151 26.7578 63.6562C26.5651 63.1562 26.4688 62.625 26.4688 62.0625V61.75C26.4688 61.1094 26.5599 60.5234 26.7422 59.9922C26.9245 59.4609 27.1849 59 27.5234 58.6094C27.8672 58.2188 28.2839 57.9193 28.7734 57.7109C29.263 57.4974 29.8151 57.3906 30.4297 57.3906C31.0286 57.3906 31.5599 57.4896 32.0234 57.6875C32.487 57.8854 32.875 58.1667 33.1875 58.5312C33.5052 58.8958 33.7448 59.3333 33.9062 59.8438C34.0677 60.349 34.1484 60.9115 34.1484 61.5312V62.4688H27.4297V60.9688H31.9375V60.7969C31.9375 60.4844 31.8802 60.2057 31.7656 59.9609C31.6562 59.7109 31.4896 59.513 31.2656 59.3672C31.0417 59.2214 30.7552 59.1484 30.4062 59.1484C30.1094 59.1484 29.8542 59.2135 29.6406 59.3438C29.4271 59.474 29.2526 59.6562 29.1172 59.8906C28.987 60.125 28.888 60.401 28.8203 60.7188C28.7578 61.0312 28.7266 61.375 28.7266 61.75V62.0625C28.7266 62.401 28.7734 62.7135 28.8672 63C28.9661 63.2865 29.1042 63.5339 29.2812 63.7422C29.4635 63.9505 29.6823 64.112 29.9375 64.2266C30.1979 64.3411 30.4922 64.3984 30.8203 64.3984C31.2266 64.3984 31.6042 64.3203 31.9531 64.1641C32.3073 64.0026 32.612 63.7604 32.8672 63.4375L33.9609 64.625C33.7839 64.8802 33.5417 65.125 33.2344 65.3594C32.9323 65.5938 32.5677 65.7865 32.1406 65.9375C31.7135 66.0833 31.2266 66.1562 30.6797 66.1562ZM39.9922 64.0938V60.3281C39.9922 60.0573 39.9479 59.8255 39.8594 59.6328C39.7708 59.4349 39.6328 59.2812 39.4453 59.1719C39.263 59.0625 39.026 59.0078 38.7344 59.0078C38.4844 59.0078 38.2682 59.0521 38.0859 59.1406C37.9036 59.224 37.763 59.3464 37.6641 59.5078C37.5651 59.6641 37.5156 59.849 37.5156 60.0625H35.2656C35.2656 59.7031 35.349 59.362 35.5156 59.0391C35.6823 58.7161 35.9245 58.4323 36.2422 58.1875C36.5599 57.9375 36.9375 57.7422 37.375 57.6016C37.8177 57.4609 38.3125 57.3906 38.8594 57.3906C39.5156 57.3906 40.099 57.5 40.6094 57.7188C41.1198 57.9375 41.5208 58.2656 41.8125 58.7031C42.1094 59.1406 42.2578 59.6875 42.2578 60.3438V63.9609C42.2578 64.4245 42.2865 64.8047 42.3438 65.1016C42.401 65.3932 42.4844 65.6484 42.5938 65.8672V66H40.3203C40.2109 65.7708 40.1276 65.4844 40.0703 65.1406C40.0182 64.7917 39.9922 64.4427 39.9922 64.0938ZM40.2891 60.8516L40.3047 62.125H39.0469C38.75 62.125 38.4922 62.1589 38.2734 62.2266C38.0547 62.2943 37.875 62.3906 37.7344 62.5156C37.5938 62.6354 37.4896 62.776 37.4219 62.9375C37.3594 63.099 37.3281 63.276 37.3281 63.4688C37.3281 63.6615 37.3724 63.8359 37.4609 63.9922C37.5495 64.1432 37.6771 64.263 37.8438 64.3516C38.0104 64.4349 38.2057 64.4766 38.4297 64.4766C38.7682 64.4766 39.0625 64.4089 39.3125 64.2734C39.5625 64.138 39.7552 63.9714 39.8906 63.7734C40.0312 63.5755 40.1042 63.388 40.1094 63.2109L40.7031 64.1641C40.6198 64.3776 40.5052 64.599 40.3594 64.8281C40.2188 65.0573 40.0391 65.2734 39.8203 65.4766C39.6016 65.6745 39.3385 65.8385 39.0312 65.9688C38.724 66.0938 38.3594 66.1562 37.9375 66.1562C37.401 66.1562 36.9141 66.0495 36.4766 65.8359C36.0443 65.6172 35.7005 65.3177 35.4453 64.9375C35.1953 64.5521 35.0703 64.1146 35.0703 63.625C35.0703 63.1823 35.1536 62.7891 35.3203 62.4453C35.487 62.1016 35.7318 61.8125 36.0547 61.5781C36.3828 61.3385 36.7917 61.1589 37.2812 61.0391C37.7708 60.9141 38.3385 60.8516 38.9844 60.8516H40.2891ZM48.1172 54.625H52.3594C53.2292 54.625 53.9766 54.7552 54.6016 55.0156C55.2318 55.276 55.7161 55.6615 56.0547 56.1719C56.3932 56.6823 56.5625 57.3099 56.5625 58.0547C56.5625 58.6641 56.4583 59.1875 56.25 59.625C56.0469 60.0573 55.7578 60.4193 55.3828 60.7109C55.013 60.9974 54.5781 61.2266 54.0781 61.3984L53.3359 61.7891H49.6484L49.6328 59.9609H52.375C52.7865 59.9609 53.1276 59.888 53.3984 59.7422C53.6693 59.5964 53.8724 59.3932 54.0078 59.1328C54.1484 58.8724 54.2188 58.5703 54.2188 58.2266C54.2188 57.862 54.151 57.5469 54.0156 57.2812C53.8802 57.0156 53.6745 56.8125 53.3984 56.6719C53.1224 56.5312 52.776 56.4609 52.3594 56.4609H50.4609V66H48.1172V54.625ZM54.4766 66L51.8828 60.9297L54.3594 60.9141L56.9844 65.8906V66H54.4766ZM62.7891 64.0938V60.3281C62.7891 60.0573 62.7448 59.8255 62.6562 59.6328C62.5677 59.4349 62.4297 59.2812 62.2422 59.1719C62.0599 59.0625 61.8229 59.0078 61.5312 59.0078C61.2812 59.0078 61.0651 59.0521 60.8828 59.1406C60.7005 59.224 60.5599 59.3464 60.4609 59.5078C60.362 59.6641 60.3125 59.849 60.3125 60.0625H58.0625C58.0625 59.7031 58.1458 59.362 58.3125 59.0391C58.4792 58.7161 58.7214 58.4323 59.0391 58.1875C59.3568 57.9375 59.7344 57.7422 60.1719 57.6016C60.6146 57.4609 61.1094 57.3906 61.6562 57.3906C62.3125 57.3906 62.8958 57.5 63.4062 57.7188C63.9167 57.9375 64.3177 58.2656 64.6094 58.7031C64.9062 59.1406 65.0547 59.6875 65.0547 60.3438V63.9609C65.0547 64.4245 65.0833 64.8047 65.1406 65.1016C65.1979 65.3932 65.2812 65.6484 65.3906 65.8672V66H63.1172C63.0078 65.7708 62.9245 65.4844 62.8672 65.1406C62.8151 64.7917 62.7891 64.4427 62.7891 64.0938ZM63.0859 60.8516L63.1016 62.125H61.8438C61.5469 62.125 61.2891 62.1589 61.0703 62.2266C60.8516 62.2943 60.6719 62.3906 60.5312 62.5156C60.3906 62.6354 60.2865 62.776 60.2188 62.9375C60.1562 63.099 60.125 63.276 60.125 63.4688C60.125 63.6615 60.1693 63.8359 60.2578 63.9922C60.3464 64.1432 60.474 64.263 60.6406 64.3516C60.8073 64.4349 61.0026 64.4766 61.2266 64.4766C61.5651 64.4766 61.8594 64.4089 62.1094 64.2734C62.3594 64.138 62.5521 63.9714 62.6875 63.7734C62.8281 63.5755 62.901 63.388 62.9062 63.2109L63.5 64.1641C63.4167 64.3776 63.3021 64.599 63.1562 64.8281C63.0156 65.0573 62.8359 65.2734 62.6172 65.4766C62.3984 65.6745 62.1354 65.8385 61.8281 65.9688C61.5208 66.0938 61.1562 66.1562 60.7344 66.1562C60.1979 66.1562 59.7109 66.0495 59.2734 65.8359C58.8411 65.6172 58.4974 65.3177 58.2422 64.9375C57.9922 64.5521 57.8672 64.1146 57.8672 63.625C57.8672 63.1823 57.9505 62.7891 58.1172 62.4453C58.2839 62.1016 58.5286 61.8125 58.8516 61.5781C59.1797 61.3385 59.5885 61.1589 60.0781 61.0391C60.5677 60.9141 61.1354 60.8516 61.7812 60.8516H63.0859ZM69.1641 57.5469V66H66.9062V57.5469H69.1641ZM66.7656 55.3438C66.7656 55.0156 66.8802 54.7448 67.1094 54.5312C67.3385 54.3177 67.6458 54.2109 68.0312 54.2109C68.4115 54.2109 68.7161 54.3177 68.9453 54.5312C69.1797 54.7448 69.2969 55.0156 69.2969 55.3438C69.2969 55.6719 69.1797 55.9427 68.9453 56.1562C68.7161 56.3698 68.4115 56.4766 68.0312 56.4766C67.6458 56.4766 67.3385 56.3698 67.1094 56.1562C66.8802 55.9427 66.7656 55.6719 66.7656 55.3438ZM75.5938 63.6641C75.5938 63.5026 75.5469 63.3568 75.4531 63.2266C75.3594 63.0964 75.1849 62.9766 74.9297 62.8672C74.6797 62.7526 74.3177 62.6484 73.8438 62.5547C73.4167 62.4609 73.0182 62.3438 72.6484 62.2031C72.2839 62.0573 71.9661 61.8828 71.6953 61.6797C71.4297 61.4766 71.2214 61.237 71.0703 60.9609C70.9193 60.6797 70.8438 60.3594 70.8438 60C70.8438 59.6458 70.9193 59.3125 71.0703 59C71.2266 58.6875 71.4479 58.4115 71.7344 58.1719C72.026 57.9271 72.3802 57.737 72.7969 57.6016C73.2188 57.4609 73.6927 57.3906 74.2188 57.3906C74.9531 57.3906 75.5833 57.5078 76.1094 57.7422C76.6406 57.9766 77.0469 58.2995 77.3281 58.7109C77.6146 59.1172 77.7578 59.5807 77.7578 60.1016H75.5078C75.5078 59.8828 75.4609 59.6875 75.3672 59.5156C75.2786 59.3385 75.138 59.2005 74.9453 59.1016C74.7578 58.9974 74.513 58.9453 74.2109 58.9453C73.9609 58.9453 73.7448 58.9896 73.5625 59.0781C73.3802 59.1615 73.2396 59.276 73.1406 59.4219C73.0469 59.5625 73 59.7188 73 59.8906C73 60.0208 73.026 60.138 73.0781 60.2422C73.1354 60.3411 73.2266 60.4323 73.3516 60.5156C73.4766 60.599 73.638 60.6771 73.8359 60.75C74.0391 60.8177 74.2891 60.8802 74.5859 60.9375C75.1953 61.0625 75.7396 61.2266 76.2188 61.4297C76.6979 61.6276 77.0781 61.8984 77.3594 62.2422C77.6406 62.5807 77.7812 63.026 77.7812 63.5781C77.7812 63.9531 77.6979 64.2969 77.5312 64.6094C77.3646 64.9219 77.125 65.1953 76.8125 65.4297C76.5 65.6589 76.125 65.8385 75.6875 65.9688C75.2552 66.0938 74.7682 66.1562 74.2266 66.1562C73.4401 66.1562 72.7734 66.0156 72.2266 65.7344C71.6849 65.4531 71.2734 65.0964 70.9922 64.6641C70.7161 64.2266 70.5781 63.7786 70.5781 63.3203H72.7109C72.7214 63.6276 72.7995 63.875 72.9453 64.0625C73.0964 64.25 73.2865 64.3854 73.5156 64.4688C73.75 64.5521 74.0026 64.5938 74.2734 64.5938C74.5651 64.5938 74.8073 64.5547 75 64.4766C75.1927 64.3932 75.3385 64.2839 75.4375 64.1484C75.5417 64.0078 75.5938 63.8464 75.5938 63.6641ZM83.1328 66.1562C82.4766 66.1562 81.888 66.0521 81.3672 65.8438C80.8464 65.6302 80.4036 65.3359 80.0391 64.9609C79.6797 64.5859 79.4036 64.151 79.2109 63.6562C79.0182 63.1562 78.9219 62.625 78.9219 62.0625V61.75C78.9219 61.1094 79.013 60.5234 79.1953 59.9922C79.3776 59.4609 79.638 59 79.9766 58.6094C80.3203 58.2188 80.737 57.9193 81.2266 57.7109C81.7161 57.4974 82.2682 57.3906 82.8828 57.3906C83.4818 57.3906 84.013 57.4896 84.4766 57.6875C84.9401 57.8854 85.3281 58.1667 85.6406 58.5312C85.9583 58.8958 86.1979 59.3333 86.3594 59.8438C86.5208 60.349 86.6016 60.9115 86.6016 61.5312V62.4688H79.8828V60.9688H84.3906V60.7969C84.3906 60.4844 84.3333 60.2057 84.2188 59.9609C84.1094 59.7109 83.9427 59.513 83.7188 59.3672C83.4948 59.2214 83.2083 59.1484 82.8594 59.1484C82.5625 59.1484 82.3073 59.2135 82.0938 59.3438C81.8802 59.474 81.7057 59.6562 81.5703 59.8906C81.4401 60.125 81.3411 60.401 81.2734 60.7188C81.2109 61.0312 81.1797 61.375 81.1797 61.75V62.0625C81.1797 62.401 81.2266 62.7135 81.3203 63C81.4193 63.2865 81.5573 63.5339 81.7344 63.7422C81.9167 63.9505 82.1354 64.112 82.3906 64.2266C82.651 64.3411 82.9453 64.3984 83.2734 64.3984C83.6797 64.3984 84.0573 64.3203 84.4062 64.1641C84.7604 64.0026 85.0651 63.7604 85.3203 63.4375L86.4141 64.625C86.237 64.8802 85.9948 65.125 85.6875 65.3594C85.3854 65.5938 85.0208 65.7865 84.5938 65.9375C84.1667 66.0833 83.6797 66.1562 83.1328 66.1562ZM92.875 64.1562V54H95.1406V66H93.1016L92.875 64.1562ZM87.5312 61.875V61.7109C87.5312 61.0651 87.6042 60.4792 87.75 59.9531C87.8958 59.4219 88.1094 58.9661 88.3906 58.5859C88.6719 58.2057 89.0182 57.9115 89.4297 57.7031C89.8411 57.4948 90.3099 57.3906 90.8359 57.3906C91.3307 57.3906 91.763 57.4948 92.1328 57.7031C92.5078 57.9115 92.8255 58.2083 93.0859 58.5938C93.3516 58.974 93.5651 59.4245 93.7266 59.9453C93.888 60.4609 94.0052 61.026 94.0781 61.6406V62C94.0052 62.5885 93.888 63.1354 93.7266 63.6406C93.5651 64.1458 93.3516 64.5885 93.0859 64.9688C92.8255 65.3438 92.5078 65.6354 92.1328 65.8438C91.7578 66.0521 91.3203 66.1562 90.8203 66.1562C90.2943 66.1562 89.8255 66.0495 89.4141 65.8359C89.0078 65.6224 88.6641 65.3229 88.3828 64.9375C88.1068 64.5521 87.8958 64.099 87.75 63.5781C87.6042 63.0573 87.5312 62.4896 87.5312 61.875ZM89.7812 61.7109V61.875C89.7812 62.224 89.8073 62.5495 89.8594 62.8516C89.9167 63.1536 90.0078 63.4219 90.1328 63.6562C90.263 63.8854 90.4297 64.0651 90.6328 64.1953C90.8411 64.3203 91.0938 64.3828 91.3906 64.3828C91.776 64.3828 92.0938 64.2969 92.3438 64.125C92.5938 63.9479 92.7839 63.7057 92.9141 63.3984C93.0495 63.0911 93.1276 62.737 93.1484 62.3359V61.3125C93.1328 60.9844 93.0859 60.6901 93.0078 60.4297C92.9349 60.1641 92.8255 59.9375 92.6797 59.75C92.5391 59.5625 92.362 59.4167 92.1484 59.3125C91.9401 59.2083 91.6927 59.1562 91.4062 59.1562C91.1146 59.1562 90.8646 59.224 90.6562 59.3594C90.4479 59.4896 90.2786 59.6693 90.1484 59.8984C90.0234 60.1276 89.9297 60.3984 89.8672 60.7109C89.8099 61.0182 89.7812 61.3516 89.7812 61.7109ZM103.367 54.625V66H101.023V54.625H103.367ZM107.898 59.4844V61.3125H102.727V59.4844H107.898ZM108.445 54.625V56.4609H102.727V54.625H108.445ZM114.492 63.9766V57.5469H116.742V66H114.625L114.492 63.9766ZM114.742 62.2422L115.406 62.2266C115.406 62.7891 115.341 63.3125 115.211 63.7969C115.081 64.276 114.885 64.6927 114.625 65.0469C114.365 65.3958 114.036 65.6693 113.641 65.8672C113.245 66.0599 112.779 66.1562 112.242 66.1562C111.831 66.1562 111.451 66.099 111.102 65.9844C110.758 65.8646 110.461 65.6797 110.211 65.4297C109.966 65.1745 109.773 64.849 109.633 64.4531C109.497 64.0521 109.43 63.5703 109.43 63.0078V57.5469H111.68V63.0234C111.68 63.2734 111.708 63.4844 111.766 63.6562C111.828 63.8281 111.914 63.9688 112.023 64.0781C112.133 64.1875 112.26 64.2656 112.406 64.3125C112.557 64.3594 112.724 64.3828 112.906 64.3828C113.37 64.3828 113.734 64.2891 114 64.1016C114.271 63.9141 114.461 63.6589 114.57 63.3359C114.685 63.0078 114.742 62.6432 114.742 62.2422ZM120.664 59.3516V66H118.414V57.5469H120.523L120.664 59.3516ZM120.336 61.4766H119.727C119.727 60.8516 119.807 60.2891 119.969 59.7891C120.13 59.2839 120.357 58.8542 120.648 58.5C120.94 58.1406 121.286 57.8672 121.688 57.6797C122.094 57.487 122.547 57.3906 123.047 57.3906C123.443 57.3906 123.805 57.4479 124.133 57.5625C124.461 57.6771 124.742 57.8594 124.977 58.1094C125.216 58.3594 125.398 58.6901 125.523 59.1016C125.654 59.513 125.719 60.0156 125.719 60.6094V66H123.453V60.6016C123.453 60.2266 123.401 59.9349 123.297 59.7266C123.193 59.5182 123.039 59.3724 122.836 59.2891C122.638 59.2005 122.393 59.1562 122.102 59.1562C121.799 59.1562 121.536 59.2161 121.312 59.3359C121.094 59.4557 120.911 59.6224 120.766 59.8359C120.625 60.0443 120.518 60.2891 120.445 60.5703C120.372 60.8516 120.336 61.1536 120.336 61.4766ZM132.422 64.1562V54H134.688V66H132.648L132.422 64.1562ZM127.078 61.875V61.7109C127.078 61.0651 127.151 60.4792 127.297 59.9531C127.443 59.4219 127.656 58.9661 127.938 58.5859C128.219 58.2057 128.565 57.9115 128.977 57.7031C129.388 57.4948 129.857 57.3906 130.383 57.3906C130.878 57.3906 131.31 57.4948 131.68 57.7031C132.055 57.9115 132.372 58.2083 132.633 58.5938C132.898 58.974 133.112 59.4245 133.273 59.9453C133.435 60.4609 133.552 61.026 133.625 61.6406V62C133.552 62.5885 133.435 63.1354 133.273 63.6406C133.112 64.1458 132.898 64.5885 132.633 64.9688C132.372 65.3438 132.055 65.6354 131.68 65.8438C131.305 66.0521 130.867 66.1562 130.367 66.1562C129.841 66.1562 129.372 66.0495 128.961 65.8359C128.555 65.6224 128.211 65.3229 127.93 64.9375C127.654 64.5521 127.443 64.099 127.297 63.5781C127.151 63.0573 127.078 62.4896 127.078 61.875ZM129.328 61.7109V61.875C129.328 62.224 129.354 62.5495 129.406 62.8516C129.464 63.1536 129.555 63.4219 129.68 63.6562C129.81 63.8854 129.977 64.0651 130.18 64.1953C130.388 64.3203 130.641 64.3828 130.938 64.3828C131.323 64.3828 131.641 64.2969 131.891 64.125C132.141 63.9479 132.331 63.7057 132.461 63.3984C132.596 63.0911 132.674 62.737 132.695 62.3359V61.3125C132.68 60.9844 132.633 60.6901 132.555 60.4297C132.482 60.1641 132.372 59.9375 132.227 59.75C132.086 59.5625 131.909 59.4167 131.695 59.3125C131.487 59.2083 131.24 59.1562 130.953 59.1562C130.661 59.1562 130.411 59.224 130.203 59.3594C129.995 59.4896 129.826 59.6693 129.695 59.8984C129.57 60.1276 129.477 60.3984 129.414 60.7109C129.357 61.0182 129.328 61.3516 129.328 61.7109ZM141.016 63.6641C141.016 63.5026 140.969 63.3568 140.875 63.2266C140.781 63.0964 140.607 62.9766 140.352 62.8672C140.102 62.7526 139.74 62.6484 139.266 62.5547C138.839 62.4609 138.44 62.3438 138.07 62.2031C137.706 62.0573 137.388 61.8828 137.117 61.6797C136.852 61.4766 136.643 61.237 136.492 60.9609C136.341 60.6797 136.266 60.3594 136.266 60C136.266 59.6458 136.341 59.3125 136.492 59C136.648 58.6875 136.87 58.4115 137.156 58.1719C137.448 57.9271 137.802 57.737 138.219 57.6016C138.641 57.4609 139.115 57.3906 139.641 57.3906C140.375 57.3906 141.005 57.5078 141.531 57.7422C142.062 57.9766 142.469 58.2995 142.75 58.7109C143.036 59.1172 143.18 59.5807 143.18 60.1016H140.93C140.93 59.8828 140.883 59.6875 140.789 59.5156C140.701 59.3385 140.56 59.2005 140.367 59.1016C140.18 58.9974 139.935 58.9453 139.633 58.9453C139.383 58.9453 139.167 58.9896 138.984 59.0781C138.802 59.1615 138.661 59.276 138.562 59.4219C138.469 59.5625 138.422 59.7188 138.422 59.8906C138.422 60.0208 138.448 60.138 138.5 60.2422C138.557 60.3411 138.648 60.4323 138.773 60.5156C138.898 60.599 139.06 60.6771 139.258 60.75C139.461 60.8177 139.711 60.8802 140.008 60.9375C140.617 61.0625 141.161 61.2266 141.641 61.4297C142.12 61.6276 142.5 61.8984 142.781 62.2422C143.062 62.5807 143.203 63.026 143.203 63.5781C143.203 63.9531 143.12 64.2969 142.953 64.6094C142.786 64.9219 142.547 65.1953 142.234 65.4297C141.922 65.6589 141.547 65.8385 141.109 65.9688C140.677 66.0938 140.19 66.1562 139.648 66.1562C138.862 66.1562 138.195 66.0156 137.648 65.7344C137.107 65.4531 136.695 65.0964 136.414 64.6641C136.138 64.2266 136 63.7786 136 63.3203H138.133C138.143 63.6276 138.221 63.875 138.367 64.0625C138.518 64.25 138.708 64.3854 138.938 64.4688C139.172 64.5521 139.424 64.5938 139.695 64.5938C139.987 64.5938 140.229 64.5547 140.422 64.4766C140.615 64.3932 140.76 64.2839 140.859 64.1484C140.964 64.0078 141.016 63.8464 141.016 63.6641Z" fill="#999999"/>
</svg>
