<svg width="210" height="67" viewBox="0 0 210 67" fill="none" xmlns="http://www.w3.org/2000/svg">
<path d="M63.4043 1.25586V44H54.9668V10.9824L44.8301 14.2051V7.55469L62.4961 1.25586H63.4043ZM106.002 18.9219V26.3047C106.002 29.5078 105.66 32.2715 104.977 34.5957C104.293 36.9004 103.307 38.7949 102.018 40.2793C100.748 41.7441 99.2344 42.8281 97.4766 43.5312C95.7188 44.2344 93.7656 44.5859 91.6172 44.5859C89.8984 44.5859 88.2969 44.3711 86.8125 43.9414C85.3281 43.4922 83.9902 42.7988 82.7988 41.8613C81.627 40.9238 80.6113 39.7422 79.752 38.3164C78.9121 36.8711 78.2676 35.1523 77.8184 33.1602C77.3691 31.168 77.1445 28.8828 77.1445 26.3047V18.9219C77.1445 15.7188 77.4863 12.9746 78.1699 10.6895C78.873 8.38477 79.8594 6.5 81.1289 5.03516C82.418 3.57031 83.9414 2.49609 85.6992 1.8125C87.457 1.10938 89.4102 0.757812 91.5586 0.757812C93.2773 0.757812 94.8691 0.982422 96.334 1.43164C97.8184 1.86133 99.1562 2.53516 100.348 3.45312C101.539 4.37109 102.555 5.55273 103.395 6.99805C104.234 8.42383 104.879 10.1328 105.328 12.125C105.777 14.0977 106.002 16.3633 106.002 18.9219ZM97.5352 27.418V17.7793C97.5352 16.2363 97.4473 14.8887 97.2715 13.7363C97.1152 12.584 96.8711 11.6074 96.5391 10.8066C96.207 9.98633 95.7969 9.32227 95.3086 8.81445C94.8203 8.30664 94.2637 7.93555 93.6387 7.70117C93.0137 7.4668 92.3203 7.34961 91.5586 7.34961C90.6016 7.34961 89.752 7.53516 89.0098 7.90625C88.2871 8.27734 87.6719 8.87305 87.1641 9.69336C86.6562 10.4941 86.2656 11.5684 85.9922 12.916C85.7383 14.2441 85.6113 15.8652 85.6113 17.7793V27.418C85.6113 28.9609 85.6895 30.3184 85.8457 31.4902C86.0215 32.6621 86.2754 33.668 86.6074 34.5078C86.959 35.3281 87.3691 36.002 87.8379 36.5293C88.3262 37.0371 88.8828 37.4082 89.5078 37.6426C90.1523 37.877 90.8555 37.9941 91.6172 37.9941C92.5547 37.9941 93.3848 37.8086 94.1074 37.4375C94.8496 37.0469 95.4746 36.4414 95.9824 35.6211C96.5098 34.7812 96.9004 33.6875 97.1543 32.3398C97.4082 30.9922 97.5352 29.3516 97.5352 27.418ZM116.637 1.34375H124.078L135.035 32.6621L145.992 1.34375H153.434L138.023 44H132.047L116.637 1.34375ZM112.623 1.34375H120.035L121.383 31.8711V44H112.623V1.34375ZM150.035 1.34375H157.477V44H148.688V31.8711L150.035 1.34375ZM169.607 37.6641V39.625H161.811V37.6641H169.607ZM166.779 34.5781V42.8594H164.646V34.5781H166.779Z" fill="white"/>
<path d="M5.72656 56.5703L2.63281 66H0.140625L4.36719 54.625H5.95312L5.72656 56.5703ZM8.29688 66L5.19531 56.5703L4.94531 54.625H6.54688L10.7969 66H8.29688ZM8.15625 61.7656V63.6016H2.14844V61.7656H8.15625ZM15.2031 64.3984C15.4792 64.3984 15.724 64.3464 15.9375 64.2422C16.151 64.1328 16.3177 63.9818 16.4375 63.7891C16.5625 63.5911 16.6276 63.3594 16.6328 63.0938H18.75C18.7448 63.6875 18.5859 64.2161 18.2734 64.6797C17.9609 65.138 17.5417 65.5 17.0156 65.7656C16.4896 66.026 15.901 66.1562 15.25 66.1562C14.5938 66.1562 14.0208 66.0469 13.5312 65.8281C13.0469 65.6094 12.6432 65.3073 12.3203 64.9219C11.9974 64.5312 11.7552 64.0781 11.5938 63.5625C11.4323 63.0417 11.3516 62.4844 11.3516 61.8906V61.6641C11.3516 61.0651 11.4323 60.5078 11.5938 59.9922C11.7552 59.4714 11.9974 59.0182 12.3203 58.6328C12.6432 58.2422 13.0469 57.9375 13.5312 57.7188C14.0156 57.5 14.5833 57.3906 15.2344 57.3906C15.9271 57.3906 16.5339 57.5234 17.0547 57.7891C17.5807 58.0547 17.9922 58.4349 18.2891 58.9297C18.5911 59.4193 18.7448 60 18.75 60.6719H16.6328C16.6276 60.3906 16.5677 60.1354 16.4531 59.9062C16.3438 59.6771 16.1823 59.4948 15.9688 59.3594C15.7604 59.2188 15.5026 59.1484 15.1953 59.1484C14.8672 59.1484 14.599 59.2188 14.3906 59.3594C14.1823 59.4948 14.0208 59.6823 13.9062 59.9219C13.7917 60.1562 13.7109 60.4245 13.6641 60.7266C13.6224 61.0234 13.6016 61.3359 13.6016 61.6641V61.8906C13.6016 62.2188 13.6224 62.5339 13.6641 62.8359C13.7057 63.138 13.7839 63.4062 13.8984 63.6406C14.0182 63.875 14.1823 64.0599 14.3906 64.1953C14.599 64.3307 14.8698 64.3984 15.2031 64.3984ZM24.1953 57.5469V59.1406H19.2734V57.5469H24.1953ZM20.4922 55.4609H22.7422V63.4531C22.7422 63.6979 22.7734 63.8854 22.8359 64.0156C22.9036 64.1458 23.0026 64.237 23.1328 64.2891C23.263 64.3359 23.4271 64.3594 23.625 64.3594C23.7656 64.3594 23.8906 64.3542 24 64.3438C24.1146 64.3281 24.2109 64.3125 24.2891 64.2969L24.2969 65.9531C24.1042 66.0156 23.8958 66.0651 23.6719 66.1016C23.4479 66.138 23.2005 66.1562 22.9297 66.1562C22.4349 66.1562 22.0026 66.0755 21.6328 65.9141C21.2682 65.7474 20.987 65.4818 20.7891 65.1172C20.5911 64.7526 20.4922 64.2734 20.4922 63.6797V55.4609ZM27.8516 57.5469V66H25.5938V57.5469H27.8516ZM25.4531 55.3438C25.4531 55.0156 25.5677 54.7448 25.7969 54.5312C26.026 54.3177 26.3333 54.2109 26.7188 54.2109C27.099 54.2109 27.4036 54.3177 27.6328 54.5312C27.8672 54.7448 27.9844 55.0156 27.9844 55.3438C27.9844 55.6719 27.8672 55.9427 27.6328 56.1562C27.4036 56.3698 27.099 56.4766 26.7188 56.4766C26.3333 56.4766 26.026 56.3698 25.7969 56.1562C25.5677 55.9427 25.4531 55.6719 25.4531 55.3438ZM32.5859 64.3594L34.4609 57.5469H36.8125L33.9609 66H32.5391L32.5859 64.3594ZM31.2969 57.5469L33.1797 64.3672L33.2188 66H31.7891L28.9375 57.5469H31.2969ZM41.6016 66.1562C40.9453 66.1562 40.3568 66.0521 39.8359 65.8438C39.3151 65.6302 38.8724 65.3359 38.5078 64.9609C38.1484 64.5859 37.8724 64.151 37.6797 63.6562C37.487 63.1562 37.3906 62.625 37.3906 62.0625V61.75C37.3906 61.1094 37.4818 60.5234 37.6641 59.9922C37.8464 59.4609 38.1068 59 38.4453 58.6094C38.7891 58.2188 39.2057 57.9193 39.6953 57.7109C40.1849 57.4974 40.737 57.3906 41.3516 57.3906C41.9505 57.3906 42.4818 57.4896 42.9453 57.6875C43.4089 57.8854 43.7969 58.1667 44.1094 58.5312C44.4271 58.8958 44.6667 59.3333 44.8281 59.8438C44.9896 60.349 45.0703 60.9115 45.0703 61.5312V62.4688H38.3516V60.9688H42.8594V60.7969C42.8594 60.4844 42.8021 60.2057 42.6875 59.9609C42.5781 59.7109 42.4115 59.513 42.1875 59.3672C41.9635 59.2214 41.6771 59.1484 41.3281 59.1484C41.0312 59.1484 40.776 59.2135 40.5625 59.3438C40.349 59.474 40.1745 59.6562 40.0391 59.8906C39.9089 60.125 39.8099 60.401 39.7422 60.7188C39.6797 61.0312 39.6484 61.375 39.6484 61.75V62.0625C39.6484 62.401 39.6953 62.7135 39.7891 63C39.888 63.2865 40.026 63.5339 40.2031 63.7422C40.3854 63.9505 40.6042 64.112 40.8594 64.2266C41.1198 64.3411 41.4141 64.3984 41.7422 64.3984C42.1484 64.3984 42.526 64.3203 42.875 64.1641C43.2292 64.0026 43.5339 63.7604 43.7891 63.4375L44.8828 64.625C44.7057 64.8802 44.4635 65.125 44.1562 65.3594C43.8542 65.5938 43.4896 65.7865 43.0625 65.9375C42.6354 66.0833 42.1484 66.1562 41.6016 66.1562ZM54.9297 61.0078H52.0078L51.9922 59.3984H54.4453C54.8776 59.3984 55.2318 59.3438 55.5078 59.2344C55.7839 59.1198 55.9896 58.9557 56.125 58.7422C56.2656 58.5234 56.3359 58.2578 56.3359 57.9453C56.3359 57.5911 56.2682 57.3047 56.1328 57.0859C56.0026 56.8672 55.7969 56.7083 55.5156 56.6094C55.2396 56.5104 54.8828 56.4609 54.4453 56.4609H52.8203V66H50.4766V54.625H54.4453C55.1068 54.625 55.6979 54.6875 56.2188 54.8125C56.7448 54.9375 57.1901 55.1276 57.5547 55.3828C57.9193 55.638 58.1979 55.9609 58.3906 56.3516C58.5833 56.737 58.6797 57.1953 58.6797 57.7266C58.6797 58.1953 58.5729 58.6276 58.3594 59.0234C58.151 59.4193 57.8203 59.7422 57.3672 59.9922C56.9193 60.2422 56.3333 60.3802 55.6094 60.4062L54.9297 61.0078ZM54.8281 66H51.3672L52.2812 64.1719H54.8281C55.2396 64.1719 55.5755 64.1068 55.8359 63.9766C56.0964 63.8411 56.2891 63.6589 56.4141 63.4297C56.5391 63.2005 56.6016 62.9375 56.6016 62.6406C56.6016 62.3073 56.5443 62.0182 56.4297 61.7734C56.3203 61.5286 56.1432 61.3411 55.8984 61.2109C55.6536 61.0755 55.3307 61.0078 54.9297 61.0078H52.6719L52.6875 59.3984H55.5L56.0391 60.0312C56.7318 60.0208 57.2891 60.1432 57.7109 60.3984C58.138 60.6484 58.4479 60.974 58.6406 61.375C58.8385 61.776 58.9375 62.2057 58.9375 62.6641C58.9375 63.3932 58.7786 64.0078 58.4609 64.5078C58.1432 65.0026 57.6771 65.375 57.0625 65.625C56.4531 65.875 55.7083 66 54.8281 66ZM65.1172 64.0938V60.3281C65.1172 60.0573 65.0729 59.8255 64.9844 59.6328C64.8958 59.4349 64.7578 59.2812 64.5703 59.1719C64.388 59.0625 64.151 59.0078 63.8594 59.0078C63.6094 59.0078 63.3932 59.0521 63.2109 59.1406C63.0286 59.224 62.888 59.3464 62.7891 59.5078C62.6901 59.6641 62.6406 59.849 62.6406 60.0625H60.3906C60.3906 59.7031 60.474 59.362 60.6406 59.0391C60.8073 58.7161 61.0495 58.4323 61.3672 58.1875C61.6849 57.9375 62.0625 57.7422 62.5 57.6016C62.9427 57.4609 63.4375 57.3906 63.9844 57.3906C64.6406 57.3906 65.224 57.5 65.7344 57.7188C66.2448 57.9375 66.6458 58.2656 66.9375 58.7031C67.2344 59.1406 67.3828 59.6875 67.3828 60.3438V63.9609C67.3828 64.4245 67.4115 64.8047 67.4688 65.1016C67.526 65.3932 67.6094 65.6484 67.7188 65.8672V66H65.4453C65.3359 65.7708 65.2526 65.4844 65.1953 65.1406C65.1432 64.7917 65.1172 64.4427 65.1172 64.0938ZM65.4141 60.8516L65.4297 62.125H64.1719C63.875 62.125 63.6172 62.1589 63.3984 62.2266C63.1797 62.2943 63 62.3906 62.8594 62.5156C62.7188 62.6354 62.6146 62.776 62.5469 62.9375C62.4844 63.099 62.4531 63.276 62.4531 63.4688C62.4531 63.6615 62.4974 63.8359 62.5859 63.9922C62.6745 64.1432 62.8021 64.263 62.9688 64.3516C63.1354 64.4349 63.3307 64.4766 63.5547 64.4766C63.8932 64.4766 64.1875 64.4089 64.4375 64.2734C64.6875 64.138 64.8802 63.9714 65.0156 63.7734C65.1562 63.5755 65.2292 63.388 65.2344 63.2109L65.8281 64.1641C65.7448 64.3776 65.6302 64.599 65.4844 64.8281C65.3438 65.0573 65.1641 65.2734 64.9453 65.4766C64.7266 65.6745 64.4635 65.8385 64.1562 65.9688C63.849 66.0938 63.4844 66.1562 63.0625 66.1562C62.526 66.1562 62.0391 66.0495 61.6016 65.8359C61.1693 65.6172 60.8255 65.3177 60.5703 64.9375C60.3203 64.5521 60.1953 64.1146 60.1953 63.625C60.1953 63.1823 60.2786 62.7891 60.4453 62.4453C60.612 62.1016 60.8568 61.8125 61.1797 61.5781C61.5078 61.3385 61.9167 61.1589 62.4062 61.0391C62.8958 60.9141 63.4635 60.8516 64.1094 60.8516H65.4141ZM72.6094 64.3984C72.8854 64.3984 73.1302 64.3464 73.3438 64.2422C73.5573 64.1328 73.724 63.9818 73.8438 63.7891C73.9688 63.5911 74.0339 63.3594 74.0391 63.0938H76.1562C76.151 63.6875 75.9922 64.2161 75.6797 64.6797C75.3672 65.138 74.9479 65.5 74.4219 65.7656C73.8958 66.026 73.3073 66.1562 72.6562 66.1562C72 66.1562 71.4271 66.0469 70.9375 65.8281C70.4531 65.6094 70.0495 65.3073 69.7266 64.9219C69.4036 64.5312 69.1615 64.0781 69 63.5625C68.8385 63.0417 68.7578 62.4844 68.7578 61.8906V61.6641C68.7578 61.0651 68.8385 60.5078 69 59.9922C69.1615 59.4714 69.4036 59.0182 69.7266 58.6328C70.0495 58.2422 70.4531 57.9375 70.9375 57.7188C71.4219 57.5 71.9896 57.3906 72.6406 57.3906C73.3333 57.3906 73.9401 57.5234 74.4609 57.7891C74.987 58.0547 75.3984 58.4349 75.6953 58.9297C75.9974 59.4193 76.151 60 76.1562 60.6719H74.0391C74.0339 60.3906 73.974 60.1354 73.8594 59.9062C73.75 59.6771 73.5885 59.4948 73.375 59.3594C73.1667 59.2188 72.9089 59.1484 72.6016 59.1484C72.2734 59.1484 72.0052 59.2188 71.7969 59.3594C71.5885 59.4948 71.4271 59.6823 71.3125 59.9219C71.1979 60.1562 71.1172 60.4245 71.0703 60.7266C71.0286 61.0234 71.0078 61.3359 71.0078 61.6641V61.8906C71.0078 62.2188 71.0286 62.5339 71.0703 62.8359C71.112 63.138 71.1901 63.4062 71.3047 63.6406C71.4245 63.875 71.5885 64.0599 71.7969 64.1953C72.0052 64.3307 72.276 64.3984 72.6094 64.3984ZM79.7109 53.9922V66H77.4609V53.9922H79.7109ZM85.0391 57.5469L81.3672 61.7344L79.3984 63.7266L78.5781 62.1016L80.1406 60.1172L82.3359 57.5469H85.0391ZM82.7031 66L80.2031 62.0938L81.7578 60.7344L85.2969 66H82.7031ZM89.7422 66.1562C89.0859 66.1562 88.4974 66.0521 87.9766 65.8438C87.4557 65.6302 87.013 65.3359 86.6484 64.9609C86.2891 64.5859 86.013 64.151 85.8203 63.6562C85.6276 63.1562 85.5312 62.625 85.5312 62.0625V61.75C85.5312 61.1094 85.6224 60.5234 85.8047 59.9922C85.987 59.4609 86.2474 59 86.5859 58.6094C86.9297 58.2188 87.3464 57.9193 87.8359 57.7109C88.3255 57.4974 88.8776 57.3906 89.4922 57.3906C90.0911 57.3906 90.6224 57.4896 91.0859 57.6875C91.5495 57.8854 91.9375 58.1667 92.25 58.5312C92.5677 58.8958 92.8073 59.3333 92.9688 59.8438C93.1302 60.349 93.2109 60.9115 93.2109 61.5312V62.4688H86.4922V60.9688H91V60.7969C91 60.4844 90.9427 60.2057 90.8281 59.9609C90.7188 59.7109 90.5521 59.513 90.3281 59.3672C90.1042 59.2214 89.8177 59.1484 89.4688 59.1484C89.1719 59.1484 88.9167 59.2135 88.7031 59.3438C88.4896 59.474 88.3151 59.6562 88.1797 59.8906C88.0495 60.125 87.9505 60.401 87.8828 60.7188C87.8203 61.0312 87.7891 61.375 87.7891 61.75V62.0625C87.7891 62.401 87.8359 62.7135 87.9297 63C88.0286 63.2865 88.1667 63.5339 88.3438 63.7422C88.526 63.9505 88.7448 64.112 89 64.2266C89.2604 64.3411 89.5547 64.3984 89.8828 64.3984C90.2891 64.3984 90.6667 64.3203 91.0156 64.1641C91.3698 64.0026 91.6745 63.7604 91.9297 63.4375L93.0234 64.625C92.8464 64.8802 92.6042 65.125 92.2969 65.3594C91.9948 65.5938 91.6302 65.7865 91.2031 65.9375C90.776 66.0833 90.2891 66.1562 89.7422 66.1562ZM96.7422 59.3906V66H94.4922V57.5469H96.6094L96.7422 59.3906ZM99.2891 57.4922L99.25 59.5781C99.1406 59.5625 99.0078 59.5495 98.8516 59.5391C98.7005 59.5234 98.5625 59.5156 98.4375 59.5156C98.1198 59.5156 97.8438 59.5573 97.6094 59.6406C97.3802 59.7188 97.1875 59.8359 97.0312 59.9922C96.8802 60.1484 96.7656 60.3385 96.6875 60.5625C96.6146 60.7865 96.5729 61.0417 96.5625 61.3281L96.1094 61.1875C96.1094 60.6406 96.1641 60.138 96.2734 59.6797C96.3828 59.2161 96.5417 58.8125 96.75 58.4688C96.9635 58.125 97.224 57.8594 97.5312 57.6719C97.8385 57.4844 98.1901 57.3906 98.5859 57.3906C98.7109 57.3906 98.8385 57.401 98.9688 57.4219C99.099 57.4375 99.2057 57.4609 99.2891 57.4922ZM104.922 63.6641C104.922 63.5026 104.875 63.3568 104.781 63.2266C104.688 63.0964 104.513 62.9766 104.258 62.8672C104.008 62.7526 103.646 62.6484 103.172 62.5547C102.745 62.4609 102.346 62.3438 101.977 62.2031C101.612 62.0573 101.294 61.8828 101.023 61.6797C100.758 61.4766 100.549 61.237 100.398 60.9609C100.247 60.6797 100.172 60.3594 100.172 60C100.172 59.6458 100.247 59.3125 100.398 59C100.555 58.6875 100.776 58.4115 101.062 58.1719C101.354 57.9271 101.708 57.737 102.125 57.6016C102.547 57.4609 103.021 57.3906 103.547 57.3906C104.281 57.3906 104.911 57.5078 105.438 57.7422C105.969 57.9766 106.375 58.2995 106.656 58.7109C106.943 59.1172 107.086 59.5807 107.086 60.1016H104.836C104.836 59.8828 104.789 59.6875 104.695 59.5156C104.607 59.3385 104.466 59.2005 104.273 59.1016C104.086 58.9974 103.841 58.9453 103.539 58.9453C103.289 58.9453 103.073 58.9896 102.891 59.0781C102.708 59.1615 102.568 59.276 102.469 59.4219C102.375 59.5625 102.328 59.7188 102.328 59.8906C102.328 60.0208 102.354 60.138 102.406 60.2422C102.464 60.3411 102.555 60.4323 102.68 60.5156C102.805 60.599 102.966 60.6771 103.164 60.75C103.367 60.8177 103.617 60.8802 103.914 60.9375C104.523 61.0625 105.068 61.2266 105.547 61.4297C106.026 61.6276 106.406 61.8984 106.688 62.2422C106.969 62.5807 107.109 63.026 107.109 63.5781C107.109 63.9531 107.026 64.2969 106.859 64.6094C106.693 64.9219 106.453 65.1953 106.141 65.4297C105.828 65.6589 105.453 65.8385 105.016 65.9688C104.583 66.0938 104.096 66.1562 103.555 66.1562C102.768 66.1562 102.102 66.0156 101.555 65.7344C101.013 65.4531 100.602 65.0964 100.32 64.6641C100.044 64.2266 99.9062 63.7786 99.9062 63.3203H102.039C102.049 63.6276 102.128 63.875 102.273 64.0625C102.424 64.25 102.615 64.3854 102.844 64.4688C103.078 64.5521 103.331 64.5938 103.602 64.5938C103.893 64.5938 104.135 64.5547 104.328 64.4766C104.521 64.3932 104.667 64.2839 104.766 64.1484C104.87 64.0078 104.922 63.8464 104.922 63.6641ZM117.32 56.5703L114.227 66H111.734L115.961 54.625H117.547L117.32 56.5703ZM119.891 66L116.789 56.5703L116.539 54.625H118.141L122.391 66H119.891ZM119.75 61.7656V63.6016H113.742V61.7656H119.75ZM125.555 59.3906V66H123.305V57.5469H125.422L125.555 59.3906ZM128.102 57.4922L128.062 59.5781C127.953 59.5625 127.82 59.5495 127.664 59.5391C127.513 59.5234 127.375 59.5156 127.25 59.5156C126.932 59.5156 126.656 59.5573 126.422 59.6406C126.193 59.7188 126 59.8359 125.844 59.9922C125.693 60.1484 125.578 60.3385 125.5 60.5625C125.427 60.7865 125.385 61.0417 125.375 61.3281L124.922 61.1875C124.922 60.6406 124.977 60.138 125.086 59.6797C125.195 59.2161 125.354 58.8125 125.562 58.4688C125.776 58.125 126.036 57.8594 126.344 57.6719C126.651 57.4844 127.003 57.3906 127.398 57.3906C127.523 57.3906 127.651 57.401 127.781 57.4219C127.911 57.4375 128.018 57.4609 128.102 57.4922ZM128.57 61.8594V61.6953C128.57 61.0755 128.659 60.5052 128.836 59.9844C129.013 59.4583 129.271 59.0026 129.609 58.6172C129.948 58.2318 130.365 57.9323 130.859 57.7188C131.354 57.5 131.922 57.3906 132.562 57.3906C133.203 57.3906 133.773 57.5 134.273 57.7188C134.773 57.9323 135.193 58.2318 135.531 58.6172C135.875 59.0026 136.135 59.4583 136.312 59.9844C136.49 60.5052 136.578 61.0755 136.578 61.6953V61.8594C136.578 62.474 136.49 63.0443 136.312 63.5703C136.135 64.0911 135.875 64.5469 135.531 64.9375C135.193 65.3229 134.776 65.6224 134.281 65.8359C133.786 66.0495 133.219 66.1562 132.578 66.1562C131.938 66.1562 131.367 66.0495 130.867 65.8359C130.372 65.6224 129.953 65.3229 129.609 64.9375C129.271 64.5469 129.013 64.0911 128.836 63.5703C128.659 63.0443 128.57 62.474 128.57 61.8594ZM130.82 61.6953V61.8594C130.82 62.2135 130.852 62.5443 130.914 62.8516C130.977 63.1589 131.076 63.4297 131.211 63.6641C131.352 63.8932 131.534 64.0729 131.758 64.2031C131.982 64.3333 132.255 64.3984 132.578 64.3984C132.891 64.3984 133.159 64.3333 133.383 64.2031C133.607 64.0729 133.786 63.8932 133.922 63.6641C134.057 63.4297 134.156 63.1589 134.219 62.8516C134.286 62.5443 134.32 62.2135 134.32 61.8594V61.6953C134.32 61.3516 134.286 61.0286 134.219 60.7266C134.156 60.4193 134.055 60.1484 133.914 59.9141C133.779 59.6745 133.599 59.487 133.375 59.3516C133.151 59.2161 132.88 59.1484 132.562 59.1484C132.245 59.1484 131.974 59.2161 131.75 59.3516C131.531 59.487 131.352 59.6745 131.211 59.9141C131.076 60.1484 130.977 60.4193 130.914 60.7266C130.852 61.0286 130.82 61.3516 130.82 61.6953ZM142.961 63.9766V57.5469H145.211V66H143.094L142.961 63.9766ZM143.211 62.2422L143.875 62.2266C143.875 62.7891 143.81 63.3125 143.68 63.7969C143.549 64.276 143.354 64.6927 143.094 65.0469C142.833 65.3958 142.505 65.6693 142.109 65.8672C141.714 66.0599 141.247 66.1562 140.711 66.1562C140.299 66.1562 139.919 66.099 139.57 65.9844C139.227 65.8646 138.93 65.6797 138.68 65.4297C138.435 65.1745 138.242 64.849 138.102 64.4531C137.966 64.0521 137.898 63.5703 137.898 63.0078V57.5469H140.148V63.0234C140.148 63.2734 140.177 63.4844 140.234 63.6562C140.297 63.8281 140.383 63.9688 140.492 64.0781C140.602 64.1875 140.729 64.2656 140.875 64.3125C141.026 64.3594 141.193 64.3828 141.375 64.3828C141.839 64.3828 142.203 64.2891 142.469 64.1016C142.74 63.9141 142.93 63.6589 143.039 63.3359C143.154 63.0078 143.211 62.6432 143.211 62.2422ZM149.133 59.3516V66H146.883V57.5469H148.992L149.133 59.3516ZM148.805 61.4766H148.195C148.195 60.8516 148.276 60.2891 148.438 59.7891C148.599 59.2839 148.826 58.8542 149.117 58.5C149.409 58.1406 149.755 57.8672 150.156 57.6797C150.562 57.487 151.016 57.3906 151.516 57.3906C151.911 57.3906 152.273 57.4479 152.602 57.5625C152.93 57.6771 153.211 57.8594 153.445 58.1094C153.685 58.3594 153.867 58.6901 153.992 59.1016C154.122 59.513 154.188 60.0156 154.188 60.6094V66H151.922V60.6016C151.922 60.2266 151.87 59.9349 151.766 59.7266C151.661 59.5182 151.508 59.3724 151.305 59.2891C151.107 59.2005 150.862 59.1562 150.57 59.1562C150.268 59.1562 150.005 59.2161 149.781 59.3359C149.562 59.4557 149.38 59.6224 149.234 59.8359C149.094 60.0443 148.987 60.2891 148.914 60.5703C148.841 60.8516 148.805 61.1536 148.805 61.4766ZM160.891 64.1562V54H163.156V66H161.117L160.891 64.1562ZM155.547 61.875V61.7109C155.547 61.0651 155.62 60.4792 155.766 59.9531C155.911 59.4219 156.125 58.9661 156.406 58.5859C156.688 58.2057 157.034 57.9115 157.445 57.7031C157.857 57.4948 158.326 57.3906 158.852 57.3906C159.346 57.3906 159.779 57.4948 160.148 57.7031C160.523 57.9115 160.841 58.2083 161.102 58.5938C161.367 58.974 161.581 59.4245 161.742 59.9453C161.904 60.4609 162.021 61.026 162.094 61.6406V62C162.021 62.5885 161.904 63.1354 161.742 63.6406C161.581 64.1458 161.367 64.5885 161.102 64.9688C160.841 65.3438 160.523 65.6354 160.148 65.8438C159.773 66.0521 159.336 66.1562 158.836 66.1562C158.31 66.1562 157.841 66.0495 157.43 65.8359C157.023 65.6224 156.68 65.3229 156.398 64.9375C156.122 64.5521 155.911 64.099 155.766 63.5781C155.62 63.0573 155.547 62.4896 155.547 61.875ZM157.797 61.7109V61.875C157.797 62.224 157.823 62.5495 157.875 62.8516C157.932 63.1536 158.023 63.4219 158.148 63.6562C158.279 63.8854 158.445 64.0651 158.648 64.1953C158.857 64.3203 159.109 64.3828 159.406 64.3828C159.792 64.3828 160.109 64.2969 160.359 64.125C160.609 63.9479 160.799 63.7057 160.93 63.3984C161.065 63.0911 161.143 62.737 161.164 62.3359V61.3125C161.148 60.9844 161.102 60.6901 161.023 60.4297C160.951 60.1641 160.841 59.9375 160.695 59.75C160.555 59.5625 160.378 59.4167 160.164 59.3125C159.956 59.2083 159.708 59.1562 159.422 59.1562C159.13 59.1562 158.88 59.224 158.672 59.3594C158.464 59.4896 158.294 59.6693 158.164 59.8984C158.039 60.1276 157.945 60.3984 157.883 60.7109C157.826 61.0182 157.797 61.3516 157.797 61.7109ZM171.781 64.1953L174.047 54.625H175.312L175.602 56.2188L173.188 66H171.828L171.781 64.1953ZM170.617 54.625L172.492 64.1953L172.336 66H170.82L168.297 54.625H170.617ZM177.594 64.1562L179.445 54.625H181.766L179.25 66H177.734L177.594 64.1562ZM176.023 54.625L178.305 64.2344L178.242 66H176.883L174.453 56.2109L174.766 54.625H176.023ZM182.289 61.8594V61.6953C182.289 61.0755 182.378 60.5052 182.555 59.9844C182.732 59.4583 182.99 59.0026 183.328 58.6172C183.667 58.2318 184.083 57.9323 184.578 57.7188C185.073 57.5 185.641 57.3906 186.281 57.3906C186.922 57.3906 187.492 57.5 187.992 57.7188C188.492 57.9323 188.911 58.2318 189.25 58.6172C189.594 59.0026 189.854 59.4583 190.031 59.9844C190.208 60.5052 190.297 61.0755 190.297 61.6953V61.8594C190.297 62.474 190.208 63.0443 190.031 63.5703C189.854 64.0911 189.594 64.5469 189.25 64.9375C188.911 65.3229 188.495 65.6224 188 65.8359C187.505 66.0495 186.938 66.1562 186.297 66.1562C185.656 66.1562 185.086 66.0495 184.586 65.8359C184.091 65.6224 183.672 65.3229 183.328 64.9375C182.99 64.5469 182.732 64.0911 182.555 63.5703C182.378 63.0443 182.289 62.474 182.289 61.8594ZM184.539 61.6953V61.8594C184.539 62.2135 184.57 62.5443 184.633 62.8516C184.695 63.1589 184.794 63.4297 184.93 63.6641C185.07 63.8932 185.253 64.0729 185.477 64.2031C185.701 64.3333 185.974 64.3984 186.297 64.3984C186.609 64.3984 186.878 64.3333 187.102 64.2031C187.326 64.0729 187.505 63.8932 187.641 63.6641C187.776 63.4297 187.875 63.1589 187.938 62.8516C188.005 62.5443 188.039 62.2135 188.039 61.8594V61.6953C188.039 61.3516 188.005 61.0286 187.938 60.7266C187.875 60.4193 187.773 60.1484 187.633 59.9141C187.497 59.6745 187.318 59.487 187.094 59.3516C186.87 59.2161 186.599 59.1484 186.281 59.1484C185.964 59.1484 185.693 59.2161 185.469 59.3516C185.25 59.487 185.07 59.6745 184.93 59.9141C184.794 60.1484 184.695 60.4193 184.633 60.7266C184.57 61.0286 184.539 61.3516 184.539 61.6953ZM193.93 59.3906V66H191.68V57.5469H193.797L193.93 59.3906ZM196.477 57.4922L196.438 59.5781C196.328 59.5625 196.195 59.5495 196.039 59.5391C195.888 59.5234 195.75 59.5156 195.625 59.5156C195.307 59.5156 195.031 59.5573 194.797 59.6406C194.568 59.7188 194.375 59.8359 194.219 59.9922C194.068 60.1484 193.953 60.3385 193.875 60.5625C193.802 60.7865 193.76 61.0417 193.75 61.3281L193.297 61.1875C193.297 60.6406 193.352 60.138 193.461 59.6797C193.57 59.2161 193.729 58.8125 193.938 58.4688C194.151 58.125 194.411 57.8594 194.719 57.6719C195.026 57.4844 195.378 57.3906 195.773 57.3906C195.898 57.3906 196.026 57.401 196.156 57.4219C196.286 57.4375 196.393 57.4609 196.477 57.4922ZM199.914 54V66H197.656V54H199.914ZM206.766 64.1562V54H209.031V66H206.992L206.766 64.1562ZM201.422 61.875V61.7109C201.422 61.0651 201.495 60.4792 201.641 59.9531C201.786 59.4219 202 58.9661 202.281 58.5859C202.562 58.2057 202.909 57.9115 203.32 57.7031C203.732 57.4948 204.201 57.3906 204.727 57.3906C205.221 57.3906 205.654 57.4948 206.023 57.7031C206.398 57.9115 206.716 58.2083 206.977 58.5938C207.242 58.974 207.456 59.4245 207.617 59.9453C207.779 60.4609 207.896 61.026 207.969 61.6406V62C207.896 62.5885 207.779 63.1354 207.617 63.6406C207.456 64.1458 207.242 64.5885 206.977 64.9688C206.716 65.3438 206.398 65.6354 206.023 65.8438C205.648 66.0521 205.211 66.1562 204.711 66.1562C204.185 66.1562 203.716 66.0495 203.305 65.8359C202.898 65.6224 202.555 65.3229 202.273 64.9375C201.997 64.5521 201.786 64.099 201.641 63.5781C201.495 63.0573 201.422 62.4896 201.422 61.875ZM203.672 61.7109V61.875C203.672 62.224 203.698 62.5495 203.75 62.8516C203.807 63.1536 203.898 63.4219 204.023 63.6562C204.154 63.8854 204.32 64.0651 204.523 64.1953C204.732 64.3203 204.984 64.3828 205.281 64.3828C205.667 64.3828 205.984 64.2969 206.234 64.125C206.484 63.9479 206.674 63.7057 206.805 63.3984C206.94 63.0911 207.018 62.737 207.039 62.3359V61.3125C207.023 60.9844 206.977 60.6901 206.898 60.4297C206.826 60.1641 206.716 59.9375 206.57 59.75C206.43 59.5625 206.253 59.4167 206.039 59.3125C205.831 59.2083 205.583 59.1562 205.297 59.1562C205.005 59.1562 204.755 59.224 204.547 59.3594C204.339 59.4896 204.169 59.6693 204.039 59.8984C203.914 60.1276 203.82 60.3984 203.758 60.7109C203.701 61.0182 203.672 61.3516 203.672 61.7109Z" fill="#999999"/>
</svg>
