<svg width="168" height="72" viewBox="0 0 168 72" fill="none" xmlns="http://www.w3.org/2000/svg">
<path d="M60.832 34.3105C60.832 36.9863 60.207 39.2422 58.957 41.0781C57.707 42.8945 55.9883 44.2715 53.8008 45.209C51.6328 46.127 49.1719 46.5859 46.418 46.5859C43.6641 46.5859 41.1934 46.127 39.0059 45.209C36.8184 44.2715 35.0898 42.8945 33.8203 41.0781C32.5508 39.2422 31.916 36.9863 31.916 34.3105C31.916 32.5137 32.2773 30.8926 33 29.4473C33.7227 27.9824 34.7285 26.7324 36.0176 25.6973C37.3262 24.6426 38.8594 23.8418 40.6172 23.2949C42.375 22.7285 44.2891 22.4453 46.3594 22.4453C49.1328 22.4453 51.6133 22.9336 53.8008 23.9102C55.9883 24.8867 57.707 26.2637 58.957 28.041C60.207 29.8184 60.832 31.9082 60.832 34.3105ZM52.3359 33.7539C52.3359 32.4453 52.082 31.3223 51.5742 30.3848C51.0859 29.4277 50.3926 28.6953 49.4941 28.1875C48.5957 27.6797 47.5508 27.4258 46.3594 27.4258C45.168 27.4258 44.123 27.6797 43.2246 28.1875C42.3262 28.6953 41.623 29.4277 41.1152 30.3848C40.627 31.3223 40.3828 32.4453 40.3828 33.7539C40.3828 35.043 40.627 36.1562 41.1152 37.0938C41.623 38.0312 42.3262 38.7539 43.2246 39.2617C44.1426 39.75 45.207 39.9941 46.418 39.9941C47.6289 39.9941 48.6738 39.75 49.5527 39.2617C50.4512 38.7539 51.1348 38.0312 51.6035 37.0938C52.0918 36.1562 52.3359 35.043 52.3359 33.7539ZM59.9238 14.6523C59.9238 16.8203 59.3477 18.7441 58.1953 20.4238C57.043 22.084 55.4414 23.3828 53.3906 24.3203C51.3594 25.2578 49.0352 25.7266 46.418 25.7266C43.7812 25.7266 41.4375 25.2578 39.3867 24.3203C37.3359 23.3828 35.7344 22.084 34.582 20.4238C33.4297 18.7441 32.8535 16.8203 32.8535 14.6523C32.8535 12.0742 33.4297 9.90625 34.582 8.14844C35.7539 6.37109 37.3555 5.02344 39.3867 4.10547C41.4375 3.1875 43.7617 2.72852 46.3594 2.72852C48.9961 2.72852 51.3301 3.1875 53.3613 4.10547C55.4121 5.02344 57.0137 6.37109 58.166 8.14844C59.3379 9.90625 59.9238 12.0742 59.9238 14.6523ZM51.4863 15.0332C51.4863 13.8809 51.2812 12.8848 50.8711 12.0449C50.4609 11.1855 49.875 10.5215 49.1133 10.0527C48.3711 9.58398 47.4531 9.34961 46.3594 9.34961C45.3047 9.34961 44.3965 9.57422 43.6348 10.0234C42.8926 10.4727 42.3164 11.127 41.9062 11.9863C41.5156 12.8262 41.3203 13.8418 41.3203 15.0332C41.3203 16.1855 41.5156 17.2012 41.9062 18.0801C42.3164 18.9395 42.9023 19.6133 43.6641 20.1016C44.4258 20.5898 45.3438 20.834 46.418 20.834C47.4922 20.834 48.4004 20.5898 49.1426 20.1016C49.9043 19.6133 50.4805 18.9395 50.8711 18.0801C51.2812 17.2012 51.4863 16.1855 51.4863 15.0332ZM96.4277 30.0625V36.6836H65.6953L65.2852 31.5566L83.0684 3.34375H89.7773L82.5117 15.502L73.6641 30.0625H96.4277ZM91.5938 3.34375V46H83.1562V3.34375H91.5938ZM109.787 0.970703V46H101.35V0.970703H109.787ZM129.768 14.3008L115.998 30.0039L108.615 37.4746L105.539 31.3809L111.398 23.9395L119.631 14.3008H129.768ZM121.008 46L111.633 31.3516L117.463 26.2539L130.734 46H121.008ZM138.354 39.6641V41.625H130.557V39.6641H138.354ZM135.525 36.5781V44.8594H133.393V36.5781H135.525Z" fill="white"/>
<path d="M4.96875 63.9453H2.07031V62.1172H4.96875C5.41667 62.1172 5.78125 62.0443 6.0625 61.8984C6.34375 61.7474 6.54948 61.5391 6.67969 61.2734C6.8099 61.0078 6.875 60.7083 6.875 60.375C6.875 60.0365 6.8099 59.7214 6.67969 59.4297C6.54948 59.138 6.34375 58.9036 6.0625 58.7266C5.78125 58.5495 5.41667 58.4609 4.96875 58.4609H2.88281V68H0.539062V56.625H4.96875C5.85938 56.625 6.6224 56.7865 7.25781 57.1094C7.89844 57.4271 8.38802 57.8672 8.72656 58.4297C9.0651 58.9922 9.23438 59.6354 9.23438 60.3594C9.23438 61.0938 9.0651 61.7292 8.72656 62.2656C8.38802 62.8021 7.89844 63.2161 7.25781 63.5078C6.6224 63.7995 5.85938 63.9453 4.96875 63.9453ZM12.9609 61.3906V68H10.7109V59.5469H12.8281L12.9609 61.3906ZM15.5078 59.4922L15.4688 61.5781C15.3594 61.5625 15.2266 61.5495 15.0703 61.5391C14.9193 61.5234 14.7812 61.5156 14.6562 61.5156C14.3385 61.5156 14.0625 61.5573 13.8281 61.6406C13.599 61.7188 13.4062 61.8359 13.25 61.9922C13.099 62.1484 12.9844 62.3385 12.9062 62.5625C12.8333 62.7865 12.7917 63.0417 12.7812 63.3281L12.3281 63.1875C12.3281 62.6406 12.3828 62.138 12.4922 61.6797C12.6016 61.2161 12.7604 60.8125 12.9688 60.4688C13.1823 60.125 13.4427 59.8594 13.75 59.6719C14.0573 59.4844 14.4089 59.3906 14.8047 59.3906C14.9297 59.3906 15.0573 59.401 15.1875 59.4219C15.3177 59.4375 15.4245 59.4609 15.5078 59.4922ZM15.9766 63.8594V63.6953C15.9766 63.0755 16.0651 62.5052 16.2422 61.9844C16.4193 61.4583 16.6771 61.0026 17.0156 60.6172C17.3542 60.2318 17.7708 59.9323 18.2656 59.7188C18.7604 59.5 19.3281 59.3906 19.9688 59.3906C20.6094 59.3906 21.1797 59.5 21.6797 59.7188C22.1797 59.9323 22.599 60.2318 22.9375 60.6172C23.2812 61.0026 23.5417 61.4583 23.7188 61.9844C23.8958 62.5052 23.9844 63.0755 23.9844 63.6953V63.8594C23.9844 64.474 23.8958 65.0443 23.7188 65.5703C23.5417 66.0911 23.2812 66.5469 22.9375 66.9375C22.599 67.3229 22.1823 67.6224 21.6875 67.8359C21.1927 68.0495 20.625 68.1562 19.9844 68.1562C19.3438 68.1562 18.7734 68.0495 18.2734 67.8359C17.7786 67.6224 17.3594 67.3229 17.0156 66.9375C16.6771 66.5469 16.4193 66.0911 16.2422 65.5703C16.0651 65.0443 15.9766 64.474 15.9766 63.8594ZM18.2266 63.6953V63.8594C18.2266 64.2135 18.2578 64.5443 18.3203 64.8516C18.3828 65.1589 18.4818 65.4297 18.6172 65.6641C18.7578 65.8932 18.9401 66.0729 19.1641 66.2031C19.388 66.3333 19.6615 66.3984 19.9844 66.3984C20.2969 66.3984 20.5651 66.3333 20.7891 66.2031C21.013 66.0729 21.1927 65.8932 21.3281 65.6641C21.4635 65.4297 21.5625 65.1589 21.625 64.8516C21.6927 64.5443 21.7266 64.2135 21.7266 63.8594V63.6953C21.7266 63.3516 21.6927 63.0286 21.625 62.7266C21.5625 62.4193 21.4609 62.1484 21.3203 61.9141C21.1849 61.6745 21.0052 61.487 20.7812 61.3516C20.5573 61.2161 20.2865 61.1484 19.9688 61.1484C19.651 61.1484 19.3802 61.2161 19.1562 61.3516C18.9375 61.487 18.7578 61.6745 18.6172 61.9141C18.4818 62.1484 18.3828 62.4193 18.3203 62.7266C18.2578 63.0286 18.2266 63.3516 18.2266 63.6953ZM25.4922 59.5469H27.75V68.5078C27.75 69.1328 27.6354 69.6615 27.4062 70.0938C27.1771 70.526 26.8464 70.8542 26.4141 71.0781C25.9818 71.3021 25.4583 71.4141 24.8438 71.4141C24.651 71.4141 24.4635 71.4036 24.2812 71.3828C24.0938 71.362 23.901 71.3281 23.7031 71.2812L23.7109 69.5547C23.8359 69.5755 23.9583 69.5911 24.0781 69.6016C24.1927 69.6172 24.3099 69.625 24.4297 69.625C24.6641 69.625 24.8594 69.5859 25.0156 69.5078C25.1719 69.4297 25.2891 69.3073 25.3672 69.1406C25.4505 68.9792 25.4922 68.7682 25.4922 68.5078V59.5469ZM25.3125 57.3438C25.3125 57.0156 25.4271 56.7448 25.6562 56.5312C25.8906 56.3177 26.1979 56.2109 26.5781 56.2109C26.9635 56.2109 27.2708 56.3177 27.5 56.5312C27.7292 56.7448 27.8438 57.0156 27.8438 57.3438C27.8438 57.6719 27.7292 57.9427 27.5 58.1562C27.2708 58.3698 26.9635 58.4766 26.5781 58.4766C26.1979 58.4766 25.8906 58.3698 25.6562 58.1562C25.4271 57.9427 25.3125 57.6719 25.3125 57.3438ZM33.4297 68.1562C32.7734 68.1562 32.1849 68.0521 31.6641 67.8438C31.1432 67.6302 30.7005 67.3359 30.3359 66.9609C29.9766 66.5859 29.7005 66.151 29.5078 65.6562C29.3151 65.1562 29.2188 64.625 29.2188 64.0625V63.75C29.2188 63.1094 29.3099 62.5234 29.4922 61.9922C29.6745 61.4609 29.9349 61 30.2734 60.6094C30.6172 60.2188 31.0339 59.9193 31.5234 59.7109C32.013 59.4974 32.5651 59.3906 33.1797 59.3906C33.7786 59.3906 34.3099 59.4896 34.7734 59.6875C35.237 59.8854 35.625 60.1667 35.9375 60.5312C36.2552 60.8958 36.4948 61.3333 36.6562 61.8438C36.8177 62.349 36.8984 62.9115 36.8984 63.5312V64.4688H30.1797V62.9688H34.6875V62.7969C34.6875 62.4844 34.6302 62.2057 34.5156 61.9609C34.4062 61.7109 34.2396 61.513 34.0156 61.3672C33.7917 61.2214 33.5052 61.1484 33.1562 61.1484C32.8594 61.1484 32.6042 61.2135 32.3906 61.3438C32.1771 61.474 32.0026 61.6562 31.8672 61.8906C31.737 62.125 31.638 62.401 31.5703 62.7188C31.5078 63.0312 31.4766 63.375 31.4766 63.75V64.0625C31.4766 64.401 31.5234 64.7135 31.6172 65C31.7161 65.2865 31.8542 65.5339 32.0312 65.7422C32.2135 65.9505 32.4323 66.112 32.6875 66.2266C32.9479 66.3411 33.2422 66.3984 33.5703 66.3984C33.9766 66.3984 34.3542 66.3203 34.7031 66.1641C35.0573 66.0026 35.362 65.7604 35.6172 65.4375L36.7109 66.625C36.5339 66.8802 36.2917 67.125 35.9844 67.3594C35.6823 67.5938 35.3177 67.7865 34.8906 67.9375C34.4635 68.0833 33.9766 68.1562 33.4297 68.1562ZM41.6719 66.3984C41.9479 66.3984 42.1927 66.3464 42.4062 66.2422C42.6198 66.1328 42.7865 65.9818 42.9062 65.7891C43.0312 65.5911 43.0964 65.3594 43.1016 65.0938H45.2188C45.2135 65.6875 45.0547 66.2161 44.7422 66.6797C44.4297 67.138 44.0104 67.5 43.4844 67.7656C42.9583 68.026 42.3698 68.1562 41.7188 68.1562C41.0625 68.1562 40.4896 68.0469 40 67.8281C39.5156 67.6094 39.112 67.3073 38.7891 66.9219C38.4661 66.5312 38.224 66.0781 38.0625 65.5625C37.901 65.0417 37.8203 64.4844 37.8203 63.8906V63.6641C37.8203 63.0651 37.901 62.5078 38.0625 61.9922C38.224 61.4714 38.4661 61.0182 38.7891 60.6328C39.112 60.2422 39.5156 59.9375 40 59.7188C40.4844 59.5 41.0521 59.3906 41.7031 59.3906C42.3958 59.3906 43.0026 59.5234 43.5234 59.7891C44.0495 60.0547 44.4609 60.4349 44.7578 60.9297C45.0599 61.4193 45.2135 62 45.2188 62.6719H43.1016C43.0964 62.3906 43.0365 62.1354 42.9219 61.9062C42.8125 61.6771 42.651 61.4948 42.4375 61.3594C42.2292 61.2188 41.9714 61.1484 41.6641 61.1484C41.3359 61.1484 41.0677 61.2188 40.8594 61.3594C40.651 61.4948 40.4896 61.6823 40.375 61.9219C40.2604 62.1562 40.1797 62.4245 40.1328 62.7266C40.0911 63.0234 40.0703 63.3359 40.0703 63.6641V63.8906C40.0703 64.2188 40.0911 64.5339 40.1328 64.8359C40.1745 65.138 40.2526 65.4062 40.3672 65.6406C40.487 65.875 40.651 66.0599 40.8594 66.1953C41.0677 66.3307 41.3385 66.3984 41.6719 66.3984ZM50.6641 59.5469V61.1406H45.7422V59.5469H50.6641ZM46.9609 57.4609H49.2109V65.4531C49.2109 65.6979 49.2422 65.8854 49.3047 66.0156C49.3724 66.1458 49.4714 66.237 49.6016 66.2891C49.7318 66.3359 49.8958 66.3594 50.0938 66.3594C50.2344 66.3594 50.3594 66.3542 50.4688 66.3438C50.5833 66.3281 50.6797 66.3125 50.7578 66.2969L50.7656 67.9531C50.5729 68.0156 50.3646 68.0651 50.1406 68.1016C49.9167 68.138 49.6693 68.1562 49.3984 68.1562C48.9036 68.1562 48.4714 68.0755 48.1016 67.9141C47.737 67.7474 47.4557 67.4818 47.2578 67.1172C47.0599 66.7526 46.9609 66.2734 46.9609 65.6797V57.4609ZM56.5156 65.6641C56.5156 65.5026 56.4688 65.3568 56.375 65.2266C56.2812 65.0964 56.1068 64.9766 55.8516 64.8672C55.6016 64.7526 55.2396 64.6484 54.7656 64.5547C54.3385 64.4609 53.9401 64.3438 53.5703 64.2031C53.2057 64.0573 52.888 63.8828 52.6172 63.6797C52.3516 63.4766 52.1432 63.237 51.9922 62.9609C51.8411 62.6797 51.7656 62.3594 51.7656 62C51.7656 61.6458 51.8411 61.3125 51.9922 61C52.1484 60.6875 52.3698 60.4115 52.6562 60.1719C52.9479 59.9271 53.3021 59.737 53.7188 59.6016C54.1406 59.4609 54.6146 59.3906 55.1406 59.3906C55.875 59.3906 56.5052 59.5078 57.0312 59.7422C57.5625 59.9766 57.9688 60.2995 58.25 60.7109C58.5365 61.1172 58.6797 61.5807 58.6797 62.1016H56.4297C56.4297 61.8828 56.3828 61.6875 56.2891 61.5156C56.2005 61.3385 56.0599 61.2005 55.8672 61.1016C55.6797 60.9974 55.4349 60.9453 55.1328 60.9453C54.8828 60.9453 54.6667 60.9896 54.4844 61.0781C54.3021 61.1615 54.1615 61.276 54.0625 61.4219C53.9688 61.5625 53.9219 61.7188 53.9219 61.8906C53.9219 62.0208 53.9479 62.138 54 62.2422C54.0573 62.3411 54.1484 62.4323 54.2734 62.5156C54.3984 62.599 54.5599 62.6771 54.7578 62.75C54.9609 62.8177 55.2109 62.8802 55.5078 62.9375C56.1172 63.0625 56.6615 63.2266 57.1406 63.4297C57.6198 63.6276 58 63.8984 58.2812 64.2422C58.5625 64.5807 58.7031 65.026 58.7031 65.5781C58.7031 65.9531 58.6198 66.2969 58.4531 66.6094C58.2865 66.9219 58.0469 67.1953 57.7344 67.4297C57.4219 67.6589 57.0469 67.8385 56.6094 67.9688C56.1771 68.0938 55.6901 68.1562 55.1484 68.1562C54.362 68.1562 53.6953 68.0156 53.1484 67.7344C52.6068 67.4531 52.1953 67.0964 51.9141 66.6641C51.638 66.2266 51.5 65.7786 51.5 65.3203H53.6328C53.6432 65.6276 53.7214 65.875 53.8672 66.0625C54.0182 66.25 54.2083 66.3854 54.4375 66.4688C54.6719 66.5521 54.9245 66.5938 55.1953 66.5938C55.487 66.5938 55.7292 66.5547 55.9219 66.4766C56.1146 66.3932 56.2604 66.2839 56.3594 66.1484C56.4635 66.0078 56.5156 65.8464 56.5156 65.6641ZM68.7109 66.0938V62.3281C68.7109 62.0573 68.6667 61.8255 68.5781 61.6328C68.4896 61.4349 68.3516 61.2812 68.1641 61.1719C67.9818 61.0625 67.7448 61.0078 67.4531 61.0078C67.2031 61.0078 66.987 61.0521 66.8047 61.1406C66.6224 61.224 66.4818 61.3464 66.3828 61.5078C66.2839 61.6641 66.2344 61.849 66.2344 62.0625H63.9844C63.9844 61.7031 64.0677 61.362 64.2344 61.0391C64.401 60.7161 64.6432 60.4323 64.9609 60.1875C65.2786 59.9375 65.6562 59.7422 66.0938 59.6016C66.5365 59.4609 67.0312 59.3906 67.5781 59.3906C68.2344 59.3906 68.8177 59.5 69.3281 59.7188C69.8385 59.9375 70.2396 60.2656 70.5312 60.7031C70.8281 61.1406 70.9766 61.6875 70.9766 62.3438V65.9609C70.9766 66.4245 71.0052 66.8047 71.0625 67.1016C71.1198 67.3932 71.2031 67.6484 71.3125 67.8672V68H69.0391C68.9297 67.7708 68.8464 67.4844 68.7891 67.1406C68.737 66.7917 68.7109 66.4427 68.7109 66.0938ZM69.0078 62.8516L69.0234 64.125H67.7656C67.4688 64.125 67.2109 64.1589 66.9922 64.2266C66.7734 64.2943 66.5938 64.3906 66.4531 64.5156C66.3125 64.6354 66.2083 64.776 66.1406 64.9375C66.0781 65.099 66.0469 65.276 66.0469 65.4688C66.0469 65.6615 66.0911 65.8359 66.1797 65.9922C66.2682 66.1432 66.3958 66.263 66.5625 66.3516C66.7292 66.4349 66.9245 66.4766 67.1484 66.4766C67.487 66.4766 67.7812 66.4089 68.0312 66.2734C68.2812 66.138 68.474 65.9714 68.6094 65.7734C68.75 65.5755 68.8229 65.388 68.8281 65.2109L69.4219 66.1641C69.3385 66.3776 69.224 66.599 69.0781 66.8281C68.9375 67.0573 68.7578 67.2734 68.5391 67.4766C68.3203 67.6745 68.0573 67.8385 67.75 67.9688C67.4427 68.0938 67.0781 68.1562 66.6562 68.1562C66.1198 68.1562 65.6328 68.0495 65.1953 67.8359C64.763 67.6172 64.4193 67.3177 64.1641 66.9375C63.9141 66.5521 63.7891 66.1146 63.7891 65.625C63.7891 65.1823 63.8724 64.7891 64.0391 64.4453C64.2057 64.1016 64.4505 63.8125 64.7734 63.5781C65.1016 63.3385 65.5104 63.1589 66 63.0391C66.4896 62.9141 67.0573 62.8516 67.7031 62.8516H69.0078ZM74.9609 61.3906V68H72.7109V59.5469H74.8281L74.9609 61.3906ZM77.5078 59.4922L77.4688 61.5781C77.3594 61.5625 77.2266 61.5495 77.0703 61.5391C76.9193 61.5234 76.7812 61.5156 76.6562 61.5156C76.3385 61.5156 76.0625 61.5573 75.8281 61.6406C75.599 61.7188 75.4062 61.8359 75.25 61.9922C75.099 62.1484 74.9844 62.3385 74.9062 62.5625C74.8333 62.7865 74.7917 63.0417 74.7812 63.3281L74.3281 63.1875C74.3281 62.6406 74.3828 62.138 74.4922 61.6797C74.6016 61.2161 74.7604 60.8125 74.9688 60.4688C75.1823 60.125 75.4427 59.8594 75.75 59.6719C76.0573 59.4844 76.4089 59.3906 76.8047 59.3906C76.9297 59.3906 77.0573 59.401 77.1875 59.4219C77.3177 59.4375 77.4245 59.4609 77.5078 59.4922ZM82.3047 68.1562C81.6484 68.1562 81.0599 68.0521 80.5391 67.8438C80.0182 67.6302 79.5755 67.3359 79.2109 66.9609C78.8516 66.5859 78.5755 66.151 78.3828 65.6562C78.1901 65.1562 78.0938 64.625 78.0938 64.0625V63.75C78.0938 63.1094 78.1849 62.5234 78.3672 61.9922C78.5495 61.4609 78.8099 61 79.1484 60.6094C79.4922 60.2188 79.9089 59.9193 80.3984 59.7109C80.888 59.4974 81.4401 59.3906 82.0547 59.3906C82.6536 59.3906 83.1849 59.4896 83.6484 59.6875C84.112 59.8854 84.5 60.1667 84.8125 60.5312C85.1302 60.8958 85.3698 61.3333 85.5312 61.8438C85.6927 62.349 85.7734 62.9115 85.7734 63.5312V64.4688H79.0547V62.9688H83.5625V62.7969C83.5625 62.4844 83.5052 62.2057 83.3906 61.9609C83.2812 61.7109 83.1146 61.513 82.8906 61.3672C82.6667 61.2214 82.3802 61.1484 82.0312 61.1484C81.7344 61.1484 81.4792 61.2135 81.2656 61.3438C81.0521 61.474 80.8776 61.6562 80.7422 61.8906C80.612 62.125 80.513 62.401 80.4453 62.7188C80.3828 63.0312 80.3516 63.375 80.3516 63.75V64.0625C80.3516 64.401 80.3984 64.7135 80.4922 65C80.5911 65.2865 80.7292 65.5339 80.9062 65.7422C81.0885 65.9505 81.3073 66.112 81.5625 66.2266C81.8229 66.3411 82.1172 66.3984 82.4453 66.3984C82.8516 66.3984 83.2292 66.3203 83.5781 66.1641C83.9323 66.0026 84.237 65.7604 84.4922 65.4375L85.5859 66.625C85.4089 66.8802 85.1667 67.125 84.8594 67.3594C84.5573 67.5938 84.1927 67.7865 83.7656 67.9375C83.3385 68.0833 82.8516 68.1562 82.3047 68.1562ZM97.7734 64.2266H100.109C100.062 64.9922 99.8516 65.6719 99.4766 66.2656C99.1068 66.8594 98.5885 67.3229 97.9219 67.6562C97.2604 67.9896 96.4635 68.1562 95.5312 68.1562C94.8021 68.1562 94.1484 68.0312 93.5703 67.7812C92.9922 67.526 92.4974 67.1615 92.0859 66.6875C91.6797 66.2135 91.3698 65.6406 91.1562 64.9688C90.9427 64.2969 90.8359 63.5443 90.8359 62.7109V61.9219C90.8359 61.0885 90.9453 60.3359 91.1641 59.6641C91.388 58.987 91.7057 58.4115 92.1172 57.9375C92.5339 57.4635 93.0312 57.099 93.6094 56.8438C94.1875 56.5885 94.8333 56.4609 95.5469 56.4609C96.4948 56.4609 97.2943 56.6328 97.9453 56.9766C98.6016 57.3203 99.1094 57.7943 99.4688 58.3984C99.8333 59.0026 100.052 59.6901 100.125 60.4609H97.7812C97.7552 60.0026 97.6641 59.6146 97.5078 59.2969C97.3516 58.974 97.1146 58.7318 96.7969 58.5703C96.4844 58.4036 96.0677 58.3203 95.5469 58.3203C95.1562 58.3203 94.8151 58.3932 94.5234 58.5391C94.2318 58.6849 93.987 58.9062 93.7891 59.2031C93.5911 59.5 93.4427 59.875 93.3438 60.3281C93.25 60.776 93.2031 61.3021 93.2031 61.9062V62.7109C93.2031 63.2995 93.2474 63.8177 93.3359 64.2656C93.4245 64.7083 93.5599 65.0833 93.7422 65.3906C93.9297 65.6927 94.1693 65.9219 94.4609 66.0781C94.7578 66.2292 95.1146 66.3047 95.5312 66.3047C96.0208 66.3047 96.4245 66.2266 96.7422 66.0703C97.0599 65.9141 97.3021 65.6823 97.4688 65.375C97.6406 65.0677 97.7422 64.6849 97.7734 64.2266ZM101.148 63.8594V63.6953C101.148 63.0755 101.237 62.5052 101.414 61.9844C101.591 61.4583 101.849 61.0026 102.188 60.6172C102.526 60.2318 102.943 59.9323 103.438 59.7188C103.932 59.5 104.5 59.3906 105.141 59.3906C105.781 59.3906 106.352 59.5 106.852 59.7188C107.352 59.9323 107.771 60.2318 108.109 60.6172C108.453 61.0026 108.714 61.4583 108.891 61.9844C109.068 62.5052 109.156 63.0755 109.156 63.6953V63.8594C109.156 64.474 109.068 65.0443 108.891 65.5703C108.714 66.0911 108.453 66.5469 108.109 66.9375C107.771 67.3229 107.354 67.6224 106.859 67.8359C106.365 68.0495 105.797 68.1562 105.156 68.1562C104.516 68.1562 103.945 68.0495 103.445 67.8359C102.951 67.6224 102.531 67.3229 102.188 66.9375C101.849 66.5469 101.591 66.0911 101.414 65.5703C101.237 65.0443 101.148 64.474 101.148 63.8594ZM103.398 63.6953V63.8594C103.398 64.2135 103.43 64.5443 103.492 64.8516C103.555 65.1589 103.654 65.4297 103.789 65.6641C103.93 65.8932 104.112 66.0729 104.336 66.2031C104.56 66.3333 104.833 66.3984 105.156 66.3984C105.469 66.3984 105.737 66.3333 105.961 66.2031C106.185 66.0729 106.365 65.8932 106.5 65.6641C106.635 65.4297 106.734 65.1589 106.797 64.8516C106.865 64.5443 106.898 64.2135 106.898 63.8594V63.6953C106.898 63.3516 106.865 63.0286 106.797 62.7266C106.734 62.4193 106.633 62.1484 106.492 61.9141C106.357 61.6745 106.177 61.487 105.953 61.3516C105.729 61.2161 105.458 61.1484 105.141 61.1484C104.823 61.1484 104.552 61.2161 104.328 61.3516C104.109 61.487 103.93 61.6745 103.789 61.9141C103.654 62.1484 103.555 62.4193 103.492 62.7266C103.43 63.0286 103.398 63.3516 103.398 63.6953ZM112.789 61.2969V68H110.531V59.5469H112.648L112.789 61.2969ZM112.477 63.4766H111.852C111.852 62.888 111.922 62.3464 112.062 61.8516C112.208 61.3516 112.419 60.9193 112.695 60.5547C112.977 60.1849 113.323 59.8984 113.734 59.6953C114.146 59.4922 114.622 59.3906 115.164 59.3906C115.539 59.3906 115.883 59.4479 116.195 59.5625C116.508 59.6719 116.776 59.8464 117 60.0859C117.229 60.3203 117.406 60.6276 117.531 61.0078C117.656 61.3828 117.719 61.8333 117.719 62.3594V68H115.469V62.6094C115.469 62.224 115.417 61.9271 115.312 61.7188C115.208 61.5104 115.06 61.3646 114.867 61.2812C114.68 61.1979 114.453 61.1562 114.188 61.1562C113.896 61.1562 113.641 61.2161 113.422 61.3359C113.208 61.4557 113.031 61.6224 112.891 61.8359C112.75 62.0443 112.646 62.2891 112.578 62.5703C112.51 62.8516 112.477 63.1536 112.477 63.4766ZM117.508 63.2188L116.703 63.3203C116.703 62.7682 116.771 62.2552 116.906 61.7812C117.047 61.3073 117.253 60.8906 117.523 60.5312C117.799 60.1719 118.141 59.8932 118.547 59.6953C118.953 59.4922 119.422 59.3906 119.953 59.3906C120.359 59.3906 120.729 59.4505 121.062 59.5703C121.396 59.6849 121.68 59.8698 121.914 60.125C122.154 60.375 122.336 60.7031 122.461 61.1094C122.591 61.5156 122.656 62.013 122.656 62.6016V68H120.398V62.6016C120.398 62.2109 120.346 61.9141 120.242 61.7109C120.143 61.5026 119.997 61.3594 119.805 61.2812C119.617 61.1979 119.393 61.1562 119.133 61.1562C118.862 61.1562 118.625 61.2109 118.422 61.3203C118.219 61.4245 118.049 61.5703 117.914 61.7578C117.779 61.9453 117.677 62.1641 117.609 62.4141C117.542 62.6589 117.508 62.9271 117.508 63.2188ZM126.648 61.1719V71.25H124.398V59.5469H126.484L126.648 61.1719ZM132 63.6797V63.8438C132 64.4583 131.927 65.0286 131.781 65.5547C131.641 66.0807 131.432 66.5391 131.156 66.9297C130.88 67.3151 130.536 67.6172 130.125 67.8359C129.719 68.0495 129.25 68.1562 128.719 68.1562C128.203 68.1562 127.755 68.0521 127.375 67.8438C126.995 67.6354 126.674 67.3438 126.414 66.9688C126.159 66.5885 125.953 66.1484 125.797 65.6484C125.641 65.1484 125.521 64.612 125.438 64.0391V63.6094C125.521 62.9948 125.641 62.4323 125.797 61.9219C125.953 61.4062 126.159 60.9609 126.414 60.5859C126.674 60.2057 126.992 59.9115 127.367 59.7031C127.747 59.4948 128.193 59.3906 128.703 59.3906C129.24 59.3906 129.711 59.4922 130.117 59.6953C130.529 59.8984 130.872 60.1901 131.148 60.5703C131.43 60.9505 131.641 61.4036 131.781 61.9297C131.927 62.4557 132 63.0391 132 63.6797ZM129.742 63.8438V63.6797C129.742 63.3203 129.711 62.9896 129.648 62.6875C129.591 62.3802 129.497 62.112 129.367 61.8828C129.242 61.6536 129.076 61.4766 128.867 61.3516C128.664 61.2214 128.417 61.1562 128.125 61.1562C127.818 61.1562 127.555 61.2057 127.336 61.3047C127.122 61.4036 126.948 61.5469 126.812 61.7344C126.677 61.9219 126.576 62.1458 126.508 62.4062C126.44 62.6667 126.398 62.9609 126.383 63.2891V64.375C126.409 64.7604 126.482 65.1068 126.602 65.4141C126.721 65.7161 126.906 65.9557 127.156 66.1328C127.406 66.3099 127.734 66.3984 128.141 66.3984C128.438 66.3984 128.688 66.3333 128.891 66.2031C129.094 66.0677 129.258 65.8828 129.383 65.6484C129.513 65.4141 129.604 65.1432 129.656 64.8359C129.714 64.5286 129.742 64.1979 129.742 63.8438ZM135.773 56V68H133.516V56H135.773ZM141.523 68.1562C140.867 68.1562 140.279 68.0521 139.758 67.8438C139.237 67.6302 138.794 67.3359 138.43 66.9609C138.07 66.5859 137.794 66.151 137.602 65.6562C137.409 65.1562 137.312 64.625 137.312 64.0625V63.75C137.312 63.1094 137.404 62.5234 137.586 61.9922C137.768 61.4609 138.029 61 138.367 60.6094C138.711 60.2188 139.128 59.9193 139.617 59.7109C140.107 59.4974 140.659 59.3906 141.273 59.3906C141.872 59.3906 142.404 59.4896 142.867 59.6875C143.331 59.8854 143.719 60.1667 144.031 60.5312C144.349 60.8958 144.589 61.3333 144.75 61.8438C144.911 62.349 144.992 62.9115 144.992 63.5312V64.4688H138.273V62.9688H142.781V62.7969C142.781 62.4844 142.724 62.2057 142.609 61.9609C142.5 61.7109 142.333 61.513 142.109 61.3672C141.885 61.2214 141.599 61.1484 141.25 61.1484C140.953 61.1484 140.698 61.2135 140.484 61.3438C140.271 61.474 140.096 61.6562 139.961 61.8906C139.831 62.125 139.732 62.401 139.664 62.7188C139.602 63.0312 139.57 63.375 139.57 63.75V64.0625C139.57 64.401 139.617 64.7135 139.711 65C139.81 65.2865 139.948 65.5339 140.125 65.7422C140.307 65.9505 140.526 66.112 140.781 66.2266C141.042 66.3411 141.336 66.3984 141.664 66.3984C142.07 66.3984 142.448 66.3203 142.797 66.1641C143.151 66.0026 143.456 65.7604 143.711 65.4375L144.805 66.625C144.628 66.8802 144.385 67.125 144.078 67.3594C143.776 67.5938 143.411 67.7865 142.984 67.9375C142.557 68.0833 142.07 68.1562 141.523 68.1562ZM150.414 59.5469V61.1406H145.492V59.5469H150.414ZM146.711 57.4609H148.961V65.4531C148.961 65.6979 148.992 65.8854 149.055 66.0156C149.122 66.1458 149.221 66.237 149.352 66.2891C149.482 66.3359 149.646 66.3594 149.844 66.3594C149.984 66.3594 150.109 66.3542 150.219 66.3438C150.333 66.3281 150.43 66.3125 150.508 66.2969L150.516 67.9531C150.323 68.0156 150.115 68.0651 149.891 68.1016C149.667 68.138 149.419 68.1562 149.148 68.1562C148.654 68.1562 148.221 68.0755 147.852 67.9141C147.487 67.7474 147.206 67.4818 147.008 67.1172C146.81 66.7526 146.711 66.2734 146.711 65.6797V57.4609ZM155.586 68.1562C154.93 68.1562 154.341 68.0521 153.82 67.8438C153.299 67.6302 152.857 67.3359 152.492 66.9609C152.133 66.5859 151.857 66.151 151.664 65.6562C151.471 65.1562 151.375 64.625 151.375 64.0625V63.75C151.375 63.1094 151.466 62.5234 151.648 61.9922C151.831 61.4609 152.091 61 152.43 60.6094C152.773 60.2188 153.19 59.9193 153.68 59.7109C154.169 59.4974 154.721 59.3906 155.336 59.3906C155.935 59.3906 156.466 59.4896 156.93 59.6875C157.393 59.8854 157.781 60.1667 158.094 60.5312C158.411 60.8958 158.651 61.3333 158.812 61.8438C158.974 62.349 159.055 62.9115 159.055 63.5312V64.4688H152.336V62.9688H156.844V62.7969C156.844 62.4844 156.786 62.2057 156.672 61.9609C156.562 61.7109 156.396 61.513 156.172 61.3672C155.948 61.2214 155.661 61.1484 155.312 61.1484C155.016 61.1484 154.76 61.2135 154.547 61.3438C154.333 61.474 154.159 61.6562 154.023 61.8906C153.893 62.125 153.794 62.401 153.727 62.7188C153.664 63.0312 153.633 63.375 153.633 63.75V64.0625C153.633 64.401 153.68 64.7135 153.773 65C153.872 65.2865 154.01 65.5339 154.188 65.7422C154.37 65.9505 154.589 66.112 154.844 66.2266C155.104 66.3411 155.398 66.3984 155.727 66.3984C156.133 66.3984 156.51 66.3203 156.859 66.1641C157.214 66.0026 157.518 65.7604 157.773 65.4375L158.867 66.625C158.69 66.8802 158.448 67.125 158.141 67.3594C157.839 67.5938 157.474 67.7865 157.047 67.9375C156.62 68.0833 156.133 68.1562 155.586 68.1562ZM165.328 66.1562V56H167.594V68H165.555L165.328 66.1562ZM159.984 63.875V63.7109C159.984 63.0651 160.057 62.4792 160.203 61.9531C160.349 61.4219 160.562 60.9661 160.844 60.5859C161.125 60.2057 161.471 59.9115 161.883 59.7031C162.294 59.4948 162.763 59.3906 163.289 59.3906C163.784 59.3906 164.216 59.4948 164.586 59.7031C164.961 59.9115 165.279 60.2083 165.539 60.5938C165.805 60.974 166.018 61.4245 166.18 61.9453C166.341 62.4609 166.458 63.026 166.531 63.6406V64C166.458 64.5885 166.341 65.1354 166.18 65.6406C166.018 66.1458 165.805 66.5885 165.539 66.9688C165.279 67.3438 164.961 67.6354 164.586 67.8438C164.211 68.0521 163.773 68.1562 163.273 68.1562C162.747 68.1562 162.279 68.0495 161.867 67.8359C161.461 67.6224 161.117 67.3229 160.836 66.9375C160.56 66.5521 160.349 66.099 160.203 65.5781C160.057 65.0573 159.984 64.4896 159.984 63.875ZM162.234 63.7109V63.875C162.234 64.224 162.26 64.5495 162.312 64.8516C162.37 65.1536 162.461 65.4219 162.586 65.6562C162.716 65.8854 162.883 66.0651 163.086 66.1953C163.294 66.3203 163.547 66.3828 163.844 66.3828C164.229 66.3828 164.547 66.2969 164.797 66.125C165.047 65.9479 165.237 65.7057 165.367 65.3984C165.503 65.0911 165.581 64.737 165.602 64.3359V63.3125C165.586 62.9844 165.539 62.6901 165.461 62.4297C165.388 62.1641 165.279 61.9375 165.133 61.75C164.992 61.5625 164.815 61.4167 164.602 61.3125C164.393 61.2083 164.146 61.1562 163.859 61.1562C163.568 61.1562 163.318 61.224 163.109 61.3594C162.901 61.4896 162.732 61.6693 162.602 61.8984C162.477 62.1276 162.383 62.3984 162.32 62.7109C162.263 63.0182 162.234 63.3516 162.234 63.7109Z" fill="#999999"/>
</svg>
