<svg width="134" height="86" viewBox="0 0 134 86" fill="none" xmlns="http://www.w3.org/2000/svg">
<path d="M30.76 85.44C25.8 85.44 21.44 84.72 17.68 83.28C13.92 81.76 10.76 79.36 8.2 76.08C5.72 72.72 3.84 68.32 2.56 62.88C1.36 57.44 0.76 50.76 0.76 42.84C0.76 34.84 1.36 28.16 2.56 22.8C3.84 17.36 5.72 12.96 8.2 9.6C10.76 6.24 13.92 3.83999 17.68 2.4C21.44 0.959999 25.8 0.239998 30.76 0.239998C35.8 0.239998 40.16 0.959999 43.84 2.4C47.52 3.83999 50.6 6.24 53.08 9.6C55.64 12.96 57.52 17.36 58.72 22.8C60 28.16 60.64 34.84 60.64 42.84C60.64 50.76 60 57.44 58.72 62.88C57.52 68.32 55.64 72.72 53.08 76.08C50.6 79.36 47.52 81.76 43.84 83.28C40.16 84.72 35.8 85.44 30.76 85.44ZM30.76 72.48C34.28 72.48 36.96 71.56 38.8 69.72C40.64 67.8 41.92 64.92 42.64 61.08C43.36 57.24 43.72 52.44 43.72 46.68V39.24C43.72 33.4 43.36 28.56 42.64 24.72C41.92 20.8 40.64 17.88 38.8 15.96C36.96 14.04 34.28 13.08 30.76 13.08C27.24 13.08 24.52 14.04 22.6 15.96C20.76 17.88 19.48 20.76 18.76 24.6C18.04 28.36 17.68 33.16 17.68 39V46.44C17.68 52.28 18.04 57.16 18.76 61.08C19.48 64.92 20.76 67.8 22.6 69.72C24.52 71.56 27.24 72.48 30.76 72.48ZM78.3672 84V70.56H98.0472V21.96H78.2472V11.88C80.8872 11.64 83.9272 11.04 87.3672 10.08C90.8872 9.04 94.4072 7.8 97.9272 6.36C101.447 4.84 104.607 3.24 107.407 1.56H114.847V70.56H133.207V84H78.3672Z" fill="#222222" fill-opacity="0.04"/>
</svg>
