<svg width="133" height="86" viewBox="0 0 133 86" fill="none" xmlns="http://www.w3.org/2000/svg">
<path d="M30.76 85.44C25.8 85.44 21.44 84.72 17.68 83.28C13.92 81.76 10.76 79.36 8.2 76.08C5.72 72.72 3.84 68.32 2.56 62.88C1.36 57.44 0.76 50.76 0.76 42.84C0.76 34.84 1.36 28.16 2.56 22.8C3.84 17.36 5.72 12.96 8.2 9.6C10.76 6.24 13.92 3.83999 17.68 2.4C21.44 0.959999 25.8 0.239998 30.76 0.239998C35.8 0.239998 40.16 0.959999 43.84 2.4C47.52 3.83999 50.6 6.24 53.08 9.6C55.64 12.96 57.52 17.36 58.72 22.8C60 28.16 60.64 34.84 60.64 42.84C60.64 50.76 60 57.44 58.72 62.88C57.52 68.32 55.64 72.72 53.08 76.08C50.6 79.36 47.52 81.76 43.84 83.28C40.16 84.72 35.8 85.44 30.76 85.44ZM30.76 72.48C34.28 72.48 36.96 71.56 38.8 69.72C40.64 67.8 41.92 64.92 42.64 61.08C43.36 57.24 43.72 52.44 43.72 46.68V39.24C43.72 33.4 43.36 28.56 42.64 24.72C41.92 20.8 40.64 17.88 38.8 15.96C36.96 14.04 34.28 13.08 30.76 13.08C27.24 13.08 24.52 14.04 22.6 15.96C20.76 17.88 19.48 20.76 18.76 24.6C18.04 28.36 17.68 33.16 17.68 39V46.44C17.68 52.28 18.04 57.16 18.76 61.08C19.48 64.92 20.76 67.8 22.6 69.72C24.52 71.56 27.24 72.48 30.76 72.48ZM72.4872 84V79.68C72.4872 76.08 73.1272 72.8 74.4072 69.84C75.6872 66.88 77.4472 64.16 79.6872 61.68C81.9272 59.2 84.4072 56.84 87.1272 54.6C89.8472 52.36 92.6472 50.2 95.5272 48.12C98.8072 45.64 101.887 43.2 104.767 40.8C107.727 38.4 110.127 35.84 111.967 33.12C113.807 30.32 114.727 27.24 114.727 23.88C114.727 22.28 114.327 20.68 113.527 19.08C112.727 17.48 111.447 16.16 109.687 15.12C108.007 14 105.727 13.44 102.847 13.44C99.8872 13.44 97.4472 13.96 95.5272 15C93.6072 15.96 92.1272 17.36 91.0872 19.2C90.1272 20.96 89.6472 23.16 89.6472 25.8V30.12H73.5672C73.4872 29.72 73.4072 29.16 73.3272 28.44C73.2472 27.72 73.2072 26.84 73.2072 25.8C73.2072 19.96 74.5272 15.16 77.1672 11.4C79.8872 7.64 83.5272 4.84 88.0872 3C92.7272 1.16 97.9672 0.239998 103.807 0.239998C109.087 0.239998 113.487 0.999998 117.007 2.52C120.607 3.96 123.487 5.92 125.647 8.39999C127.807 10.8 129.327 13.44 130.207 16.32C131.167 19.12 131.647 21.84 131.647 24.48C131.647 28.24 130.967 31.68 129.607 34.8C128.247 37.92 126.407 40.84 124.087 43.56C121.767 46.28 119.007 48.92 115.807 51.48C112.607 53.96 109.207 56.44 105.607 58.92C103.767 60.2 102.007 61.44 100.327 62.64C98.7272 63.84 97.3272 65 96.1272 66.12C95.0072 67.16 94.1272 68.2 93.4872 69.24H132.247V84H72.4872Z" fill="#222222" fill-opacity="0.04"/>
</svg>
