<svg width="133" height="86" viewBox="0 0 133 86" fill="none" xmlns="http://www.w3.org/2000/svg">
<path d="M30.76 85.44C25.8 85.44 21.44 84.72 17.68 83.28C13.92 81.76 10.76 79.36 8.2 76.08C5.72 72.72 3.84 68.32 2.56 62.88C1.36 57.44 0.76 50.76 0.76 42.84C0.76 34.84 1.36 28.16 2.56 22.8C3.84 17.36 5.72 12.96 8.2 9.6C10.76 6.24 13.92 3.83999 17.68 2.4C21.44 0.959999 25.8 0.239998 30.76 0.239998C35.8 0.239998 40.16 0.959999 43.84 2.4C47.52 3.83999 50.6 6.24 53.08 9.6C55.64 12.96 57.52 17.36 58.72 22.8C60 28.16 60.64 34.84 60.64 42.84C60.64 50.76 60 57.44 58.72 62.88C57.52 68.32 55.64 72.72 53.08 76.08C50.6 79.36 47.52 81.76 43.84 83.28C40.16 84.72 35.8 85.44 30.76 85.44ZM30.76 72.48C34.28 72.48 36.96 71.56 38.8 69.72C40.64 67.8 41.92 64.92 42.64 61.08C43.36 57.24 43.72 52.44 43.72 46.68V39.24C43.72 33.4 43.36 28.56 42.64 24.72C41.92 20.8 40.64 17.88 38.8 15.96C36.96 14.04 34.28 13.08 30.76 13.08C27.24 13.08 24.52 14.04 22.6 15.96C20.76 17.88 19.48 20.76 18.76 24.6C18.04 28.36 17.68 33.16 17.68 39V46.44C17.68 52.28 18.04 57.16 18.76 61.08C19.48 64.92 20.76 67.8 22.6 69.72C24.52 71.56 27.24 72.48 30.76 72.48ZM102.367 85.44C95.6472 85.44 90.0072 84.4 85.4472 82.32C80.8872 80.24 77.4472 77.36 75.1272 73.68C72.8072 70 71.6472 65.76 71.6472 60.96V58.92H87.8472V61.2C87.8472 64.72 89.0072 67.48 91.3272 69.48C93.7272 71.48 97.1672 72.48 101.647 72.48C105.967 72.48 109.327 71.48 111.727 69.48C114.127 67.48 115.327 64.4 115.327 60.24C115.327 57.12 114.687 54.72 113.407 53.04C112.127 51.36 110.447 50.16 108.367 49.44C106.367 48.72 104.167 48.36 101.767 48.36H94.4472V35.76H101.647C103.887 35.76 105.887 35.36 107.647 34.56C109.487 33.68 110.927 32.4 111.967 30.72C113.087 29.04 113.647 26.88 113.647 24.24C113.647 21.76 113.127 19.72 112.087 18.12C111.127 16.44 109.727 15.2 107.887 14.4C106.127 13.6 104.087 13.2 101.767 13.2C99.4472 13.2 97.3272 13.6 95.4072 14.4C93.5672 15.2 92.1272 16.4 91.0872 18C90.0472 19.6 89.5272 21.6 89.5272 24V25.8H73.5672V22.8C73.5672 18.32 74.7272 14.4 77.0472 11.04C79.4472 7.6 82.8072 4.96 87.1272 3.12C91.4472 1.2 96.4472 0.239998 102.127 0.239998C107.807 0.239998 112.767 1.12 117.007 2.87999C121.327 4.63999 124.647 7.24 126.967 10.68C129.367 14.04 130.567 18.04 130.567 22.68C130.567 25.8 129.967 28.56 128.767 30.96C127.647 33.36 126.127 35.4 124.207 37.08C122.287 38.68 120.087 40.04 117.607 41.16V41.64C121.927 42.92 125.447 45.28 128.167 48.72C130.967 52.08 132.367 56.44 132.367 61.8C132.287 66.6 131.007 70.76 128.527 74.28C126.127 77.8 122.687 80.56 118.207 82.56C113.727 84.48 108.447 85.44 102.367 85.44Z" fill="#222222" fill-opacity="0.04"/>
</svg>
