<svg width="134" height="86" viewBox="0 0 134 86" fill="none" xmlns="http://www.w3.org/2000/svg">
<path d="M30.05 85.44C25.09 85.44 20.73 84.72 16.97 83.28C13.21 81.76 10.05 79.36 7.48998 76.08C5.00998 72.72 3.12998 68.32 1.84998 62.88C0.649978 57.44 0.0499781 50.76 0.0499781 42.84C0.0499781 34.84 0.649978 28.16 1.84998 22.8C3.12998 17.36 5.00998 12.96 7.48998 9.6C10.05 6.24 13.21 3.83999 16.97 2.4C20.73 0.959999 25.09 0.239998 30.05 0.239998C35.09 0.239998 39.45 0.959999 43.13 2.4C46.81 3.83999 49.89 6.24 52.37 9.6C54.93 12.96 56.81 17.36 58.01 22.8C59.29 28.16 59.93 34.84 59.93 42.84C59.93 50.76 59.29 57.44 58.01 62.88C56.81 68.32 54.93 72.72 52.37 76.08C49.89 79.36 46.81 81.76 43.13 83.28C39.45 84.72 35.09 85.44 30.05 85.44ZM30.05 72.48C33.57 72.48 36.25 71.56 38.09 69.72C39.93 67.8 41.21 64.92 41.93 61.08C42.65 57.24 43.01 52.44 43.01 46.68V39.24C43.01 33.4 42.65 28.56 41.93 24.72C41.21 20.8 39.93 17.88 38.09 15.96C36.25 14.04 33.57 13.08 30.05 13.08C26.53 13.08 23.81 14.04 21.89 15.96C20.05 17.88 18.77 20.76 18.05 24.6C17.33 28.36 16.97 33.16 16.97 39V46.44C16.97 52.28 17.33 57.16 18.05 61.08C18.77 64.92 20.05 67.8 21.89 69.72C23.81 71.56 26.53 72.48 30.05 72.48ZM106.217 84V66H69.1372V52.68C72.2572 47.72 75.1772 42.48 77.8972 36.96C80.6172 31.44 83.1372 25.6 85.4572 19.44C87.8572 13.28 89.8572 6.88 91.4572 0.239998H108.617C107.737 4.08 106.497 8.12 104.897 12.36C103.377 16.6 101.617 20.8 99.6172 24.96C97.6172 29.12 95.5772 33.04 93.4972 36.72C91.4972 40.32 89.5772 43.52 87.7372 46.32C85.8972 49.12 84.3372 51.24 83.0572 52.68H106.217V32.76C107.017 31.24 107.817 29.6 108.617 27.84C109.497 26 110.337 24.16 111.137 22.32C111.937 20.4 112.657 18.52 113.297 16.68C114.017 14.84 114.577 13.12 114.977 11.52H122.657V52.68H133.217V66H122.657V84H106.217Z" fill="#222222" fill-opacity="0.04"/>
</svg>
