<svg width="133" height="86" viewBox="0 0 133 86" fill="none" xmlns="http://www.w3.org/2000/svg">
<path d="M30.76 85.44C25.8 85.44 21.44 84.72 17.68 83.28C13.92 81.76 10.76 79.36 8.2 76.08C5.72 72.72 3.84 68.32 2.56 62.88C1.36 57.44 0.76 50.76 0.76 42.84C0.76 34.84 1.36 28.16 2.56 22.8C3.84 17.36 5.72 12.96 8.2 9.6C10.76 6.24 13.92 3.83999 17.68 2.4C21.44 0.959999 25.8 0.239998 30.76 0.239998C35.8 0.239998 40.16 0.959999 43.84 2.4C47.52 3.83999 50.6 6.24 53.08 9.6C55.64 12.96 57.52 17.36 58.72 22.8C60 28.16 60.64 34.84 60.64 42.84C60.64 50.76 60 57.44 58.72 62.88C57.52 68.32 55.64 72.72 53.08 76.08C50.6 79.36 47.52 81.76 43.84 83.28C40.16 84.72 35.8 85.44 30.76 85.44ZM30.76 72.48C34.28 72.48 36.96 71.56 38.8 69.72C40.64 67.8 41.92 64.92 42.64 61.08C43.36 57.24 43.72 52.44 43.72 46.68V39.24C43.72 33.4 43.36 28.56 42.64 24.72C41.92 20.8 40.64 17.88 38.8 15.96C36.96 14.04 34.28 13.08 30.76 13.08C27.24 13.08 24.52 14.04 22.6 15.96C20.76 17.88 19.48 20.76 18.76 24.6C18.04 28.36 17.68 33.16 17.68 39V46.44C17.68 52.28 18.04 57.16 18.76 61.08C19.48 64.92 20.76 67.8 22.6 69.72C24.52 71.56 27.24 72.48 30.76 72.48ZM102.247 85.44C96.0072 85.44 90.5672 84.36 85.9272 82.2C81.3672 79.96 77.8472 76.8 75.3672 72.72C72.8872 68.64 71.6472 63.8 71.6472 58.2H88.0872C88.0872 61 88.6072 63.52 89.6472 65.76C90.7672 67.92 92.3672 69.6 94.4472 70.8C96.5272 71.92 98.9672 72.48 101.767 72.48C104.487 72.48 106.807 71.88 108.727 70.68C110.727 69.48 112.287 67.76 113.407 65.52C114.527 63.2 115.087 60.36 115.087 57C115.087 53.88 114.527 51.28 113.407 49.2C112.367 47.04 110.847 45.44 108.847 44.4C106.927 43.28 104.647 42.72 102.007 42.72C99.9272 42.72 98.0872 43.08 96.4872 43.8C94.9672 44.44 93.6472 45.24 92.5272 46.2C91.4072 47.16 90.4472 48.2 89.6472 49.32L74.6472 47.4L78.0072 1.67999H127.447V16.44H91.9272L90.6072 35.04C91.4872 34.4 92.6472 33.72 94.0872 33C95.5272 32.28 97.2872 31.64 99.3672 31.08C101.527 30.44 104.007 30.12 106.807 30.12C111.607 30.12 115.887 31.12 119.647 33.12C123.487 35.12 126.527 38.12 128.767 42.12C131.007 46.04 132.127 51.04 132.127 57.12C132.127 62.96 130.887 68 128.407 72.24C126.007 76.48 122.567 79.76 118.087 82.08C113.687 84.32 108.407 85.44 102.247 85.44Z" fill="#222222" fill-opacity="0.04"/>
</svg>
