<svg width="133" height="86" viewBox="0 0 133 86" fill="none" xmlns="http://www.w3.org/2000/svg">
<path d="M30.76 85.44C25.8 85.44 21.44 84.72 17.68 83.28C13.92 81.76 10.76 79.36 8.2 76.08C5.72 72.72 3.84 68.32 2.56 62.88C1.36 57.44 0.76 50.76 0.76 42.84C0.76 34.84 1.36 28.16 2.56 22.8C3.84 17.36 5.72 12.96 8.2 9.6C10.76 6.24 13.92 3.83999 17.68 2.4C21.44 0.959999 25.8 0.239998 30.76 0.239998C35.8 0.239998 40.16 0.959999 43.84 2.4C47.52 3.83999 50.6 6.24 53.08 9.6C55.64 12.96 57.52 17.36 58.72 22.8C60 28.16 60.64 34.84 60.64 42.84C60.64 50.76 60 57.44 58.72 62.88C57.52 68.32 55.64 72.72 53.08 76.08C50.6 79.36 47.52 81.76 43.84 83.28C40.16 84.72 35.8 85.44 30.76 85.44ZM30.76 72.48C34.28 72.48 36.96 71.56 38.8 69.72C40.64 67.8 41.92 64.92 42.64 61.08C43.36 57.24 43.72 52.44 43.72 46.68V39.24C43.72 33.4 43.36 28.56 42.64 24.72C41.92 20.8 40.64 17.88 38.8 15.96C36.96 14.04 34.28 13.08 30.76 13.08C27.24 13.08 24.52 14.04 22.6 15.96C20.76 17.88 19.48 20.76 18.76 24.6C18.04 28.36 17.68 33.16 17.68 39V46.44C17.68 52.28 18.04 57.16 18.76 61.08C19.48 64.92 20.76 67.8 22.6 69.72C24.52 71.56 27.24 72.48 30.76 72.48ZM103.687 85.44C98.6472 85.44 94.1672 84.72 90.2472 83.28C86.4072 81.84 83.1272 79.56 80.4072 76.44C77.6872 73.32 75.6472 69.2 74.2872 64.08C72.9272 58.88 72.2472 52.56 72.2472 45.12C72.2472 36.72 72.9272 29.64 74.2872 23.88C75.6472 18.12 77.6072 13.52 80.1672 10.08C82.8072 6.56 86.0472 4.04 89.8872 2.52C93.7272 0.999998 98.1672 0.239998 103.207 0.239998C109.287 0.239998 114.327 1.36 118.327 3.6C122.407 5.84 125.407 8.92 127.327 12.84C129.327 16.68 130.327 21.16 130.327 26.28H114.127C114.127 23.48 113.727 21.12 112.927 19.2C112.127 17.2 110.887 15.68 109.207 14.64C107.527 13.6 105.407 13.08 102.847 13.08C99.0872 13.08 96.2072 14.08 94.2072 16.08C92.2872 18 90.9672 20.84 90.2472 24.6C89.6072 28.36 89.2472 32.92 89.1672 38.28C89.9672 37.48 91.1672 36.52 92.7672 35.4C94.4472 34.28 96.5272 33.32 99.0072 32.52C101.487 31.64 104.167 31.2 107.047 31.2C112.727 31.2 117.487 32.36 121.327 34.68C125.247 36.92 128.167 40.04 130.087 44.04C132.007 48.04 132.967 52.68 132.967 57.96C132.967 63.64 131.687 68.56 129.127 72.72C126.647 76.8 123.207 79.96 118.807 82.2C114.487 84.36 109.447 85.44 103.687 85.44ZM103.087 72.48C106.047 72.48 108.487 71.88 110.407 70.68C112.327 69.4 113.767 67.68 114.727 65.52C115.687 63.28 116.167 60.8 116.167 58.08C116.167 55.2 115.687 52.68 114.727 50.52C113.767 48.36 112.327 46.68 110.407 45.48C108.487 44.2 106.047 43.56 103.087 43.56C100.207 43.56 97.7672 44.2 95.7672 45.48C93.8472 46.68 92.4072 48.36 91.4472 50.52C90.4872 52.68 90.0072 55.2 90.0072 58.08C90.0072 60.88 90.4872 63.4 91.4472 65.64C92.4072 67.8 93.8472 69.48 95.7672 70.68C97.7672 71.88 100.207 72.48 103.087 72.48Z" fill="#222222" fill-opacity="0.04"/>
</svg>
