<svg width="6" height="10" viewBox="0 0 6 10" fill="none" xmlns="http://www.w3.org/2000/svg">
<path d="M0.661588 9.67603C0.709083 9.67605 0.756117 9.66671 0.800004 9.64855C0.843891 9.6304 0.88377 9.60377 0.917365 9.5702L5.37453 5.11279C5.44232 5.04498 5.48041 4.95302 5.48041 4.85713C5.48041 4.76125 5.44232 4.66929 5.37453 4.60148L0.917365 0.144067C0.883791 0.110478 0.843932 0.0838309 0.80006 0.0656466C0.756188 0.0474623 0.709165 0.0380971 0.661674 0.0380859C0.614182 0.0380748 0.567155 0.0474177 0.523274 0.0655814C0.479394 0.083745 0.439521 0.110374 0.405932 0.143947C0.372343 0.17752 0.345696 0.21738 0.327511 0.261252C0.309327 0.305124 0.299962 0.352147 0.29995 0.399638C0.299939 0.447129 0.309282 0.494157 0.327446 0.538038C0.34561 0.581918 0.372239 0.621791 0.405812 0.65538L4.60744 4.85701L0.405812 9.05864C0.355207 9.10922 0.320741 9.17366 0.306775 9.24383C0.292808 9.314 0.299969 9.38673 0.327352 9.45282C0.354734 9.51892 0.401109 9.57541 0.460605 9.61514C0.520101 9.65487 0.590045 9.67606 0.661588 9.67603Z" fill="white"/>
</svg>
