<svg width="6" height="10" viewBox="0 0 6 10" fill="none" xmlns="http://www.w3.org/2000/svg">
<path d="M5.33842 9.67603C5.29092 9.67605 5.24389 9.66671 5.2 9.64855C5.15612 9.6304 5.11624 9.60377 5.08264 9.5702L0.625474 5.11279C0.557683 5.04498 0.5196 4.95302 0.5196 4.85713C0.5196 4.76125 0.557683 4.66929 0.625474 4.60148L5.08264 0.144067C5.11622 0.110478 5.15608 0.0838309 5.19995 0.0656466C5.24382 0.0474623 5.29084 0.0380971 5.33833 0.0380859C5.38583 0.0380748 5.43285 0.0474177 5.47673 0.0655814C5.52061 0.083745 5.56049 0.110374 5.59408 0.143947C5.62767 0.17752 5.65431 0.21738 5.6725 0.261252C5.69068 0.305124 5.70005 0.352147 5.70006 0.399638C5.70007 0.447129 5.69073 0.494157 5.67256 0.538038C5.6544 0.581918 5.62777 0.621791 5.5942 0.65538L1.39256 4.85701L5.5942 9.05864C5.6448 9.10922 5.67927 9.17366 5.69323 9.24383C5.7072 9.314 5.70004 9.38673 5.67266 9.45282C5.64527 9.51892 5.5989 9.57541 5.5394 9.61514C5.47991 9.65487 5.40996 9.67606 5.33842 9.67603Z" fill="#111111"/>
</svg>
